<svg xmlns="http://www.w3.org/2000/svg" viewBox="0 0 252.92 228.72"><defs><style>.cls-1{fill:#414042;}.cls-2{fill:none;stroke:#414042;stroke-linecap:round;stroke-linejoin:round;stroke-width:20px;}.cls-3{fill:#fff;}.cls-4{fill:#fed210;}</style></defs><title>SlappedSilly-Icon</title><g id="Layer_2" data-name="Layer 2"><g id="Layer_1-2" data-name="Layer 1"><path class="cls-1" d="M244.25,20.58a15,15,0,0,0-13.66-8.81H107.92a15,15,0,0,0-13.76,9,15,15,0,0,0-8.61,13.57v33A14.82,14.82,0,0,0,80.08,70l-.25.19c-.42.31-.88.66-1.38,1.09-2.56,2.18-4.78,3.38-6.25,3.38-.85,0-2.79-.43-6.25-3.28a34.14,34.14,0,0,1-2.66-2.67c-1.08-1.15-2.29-2.45-3.73-3.78a15,15,0,0,0-25.12,9.55,18.7,18.7,0,0,0,.61,6.78c1.22,4.6,2.32,9.48,2.06,14.1-.69.17-1.77.31-3,.48-1.62.21-3.63.48-5.87,1A15,15,0,0,0,22,123.19c.89.71,1.57,1.29,2.1,1.77a15,15,0,0,0,8.69,27.28H33c.93,0,1.69,0,2.31.09a15,15,0,0,0,18.34,10.89c0,5.65,2.71,11.08,8,15.18l7.62,5.93C85.37,196.84,102,209.8,118.47,222.5a28.46,28.46,0,0,0,17.45,6.21c8.44,0,16.17-3.93,21.77-11.06,6.33-8.06,13.15-16.89,20.88-27a31,31,0,0,0,2.85-4.47h49.2a15,15,0,0,0,13.67-8.82,15,15,0,0,0,8.64-13.58V34.18A15,15,0,0,0,244.25,20.58Z"/><path class="cls-1" d="M244.11,20.48a15,15,0,0,0-13.66-8.81H107.78a15,15,0,0,0-13.76,9,15,15,0,0,0-8.61,13.57v33a14.82,14.82,0,0,0-5.47,2.58l-.25.19c-.42.31-.88.66-1.38,1.09-2.56,2.18-4.78,3.38-6.25,3.38-.85,0-2.79-.43-6.25-3.28a34.14,34.14,0,0,1-2.66-2.67c-1.08-1.15-2.29-2.45-3.73-3.78A15,15,0,0,0,34.3,74.35a18.7,18.7,0,0,0,.61,6.78c1.22,4.6,2.32,9.48,2.06,14.1-.69.17-1.77.31-3,.48-1.62.21-3.63.48-5.87,1a15,15,0,0,0-6.16,26.43c.89.71,1.57,1.29,2.1,1.77a15,15,0,0,0,8.69,27.28h.17c.93,0,1.69,0,2.31.09a15,15,0,0,0,18.34,10.89c0,5.65,2.71,11.08,8,15.18l7.62,5.93c16.11,12.53,32.78,25.49,49.21,38.19a28.46,28.46,0,0,0,17.45,6.21c8.44,0,16.17-3.93,21.77-11.06,6.33-8.06,13.15-16.89,20.88-27a31,31,0,0,0,2.85-4.47h49.2a15,15,0,0,0,13.67-8.82,15,15,0,0,0,8.64-13.58V34.08A15,15,0,0,0,244.11,20.48Z"/><path class="cls-1" d="M244,20.38a15,15,0,0,0-13.66-8.81H107.64a15,15,0,0,0-13.76,9,15,15,0,0,0-8.61,13.57v33a14.82,14.82,0,0,0-5.47,2.58l-.25.19c-.42.31-.88.66-1.38,1.09-2.56,2.18-4.78,3.38-6.25,3.38-.85,0-2.79-.43-6.25-3.28A34.14,34.14,0,0,1,63,68.48c-1.08-1.15-2.29-2.45-3.73-3.78a15,15,0,0,0-25.12,9.55A18.7,18.7,0,0,0,34.77,81c1.22,4.6,2.32,9.48,2.06,14.1-.69.17-1.77.31-3,.48-1.62.21-3.63.48-5.87,1A15,15,0,0,0,21.77,123c.89.71,1.57,1.29,2.1,1.77A15,15,0,0,0,32.55,152h.17c.93,0,1.69,0,2.31.09A15,15,0,0,0,53.37,163c0,5.65,2.71,11.08,8,15.18L69,184.12c16.11,12.53,32.78,25.49,49.21,38.19a28.46,28.46,0,0,0,17.45,6.21c8.44,0,16.17-3.93,21.77-11.06,6.33-8.06,13.15-16.89,20.88-27a31,31,0,0,0,2.85-4.47h49.2A15,15,0,0,0,244,177.18a15,15,0,0,0,8.64-13.58V34A15,15,0,0,0,244,20.38Z"/><path class="cls-1" d="M243.83,20.28a15,15,0,0,0-13.66-8.81H107.5a15,15,0,0,0-13.76,9,15,15,0,0,0-8.61,13.57v33a14.82,14.82,0,0,0-5.47,2.58l-.25.19c-.42.31-.88.66-1.38,1.09-2.56,2.18-4.78,3.38-6.25,3.38-.85,0-2.79-.43-6.25-3.28a34.14,34.14,0,0,1-2.66-2.67c-1.08-1.15-2.29-2.45-3.73-3.78A15,15,0,0,0,34,74.15a18.7,18.7,0,0,0,.61,6.78c1.22,4.6,2.32,9.48,2.06,14.1-.69.17-1.77.31-3,.48-1.62.21-3.63.48-5.87,1a15,15,0,0,0-6.16,26.43c.89.71,1.57,1.29,2.1,1.77a15,15,0,0,0,8.69,27.28h.17c.93,0,1.69,0,2.31.09a15,15,0,0,0,18.34,10.89c0,5.65,2.71,11.08,8,15.18L68.83,184C84.94,196.55,101.6,209.5,118,222.21a28.46,28.46,0,0,0,17.45,6.21c8.44,0,16.17-3.93,21.77-11.06,6.33-8.06,13.15-16.89,20.88-27A31,31,0,0,0,181,185.9h49.2a15,15,0,0,0,13.67-8.82,15,15,0,0,0,8.64-13.58V33.88A15,15,0,0,0,243.83,20.28Z"/><path class="cls-1" d="M243.68,20.18A15,15,0,0,0,230,11.38H107.35a15,15,0,0,0-13.76,9A15,15,0,0,0,85,34V67a14.82,14.82,0,0,0-5.47,2.58l-.25.19c-.42.31-.88.66-1.38,1.09-2.56,2.18-4.78,3.38-6.25,3.38-.85,0-2.79-.43-6.25-3.28a34.14,34.14,0,0,1-2.66-2.67c-1.08-1.15-2.29-2.45-3.73-3.78a15,15,0,0,0-25.12,9.55,18.7,18.7,0,0,0,.61,6.78c1.22,4.6,2.32,9.48,2.06,14.1-.69.17-1.77.31-3,.48-1.62.21-3.63.48-5.87,1a15,15,0,0,0-6.16,26.43c.89.71,1.57,1.29,2.1,1.77a15,15,0,0,0,8.69,27.28h.17c.93,0,1.69,0,2.31.09a15,15,0,0,0,18.34,10.89c0,5.65,2.71,11.08,8,15.18l7.62,5.93c16.11,12.53,32.78,25.49,49.21,38.19a28.46,28.46,0,0,0,17.45,6.21c8.44,0,16.17-3.93,21.77-11.06,6.33-8.06,13.15-16.89,20.88-27a31,31,0,0,0,2.85-4.47H230A15,15,0,0,0,243.71,177a15,15,0,0,0,8.64-13.58V33.78A15,15,0,0,0,243.68,20.18Z"/><path class="cls-1" d="M243.54,20.09a15,15,0,0,0-13.66-8.81H107.21a15,15,0,0,0-13.76,9,15,15,0,0,0-8.61,13.57v33a14.82,14.82,0,0,0-5.47,2.58l-.25.19c-.42.31-.88.66-1.38,1.09-2.56,2.18-4.78,3.38-6.25,3.38-.85,0-2.79-.43-6.25-3.28a34.14,34.14,0,0,1-2.66-2.67c-1.08-1.15-2.29-2.45-3.73-3.78A15,15,0,0,0,33.73,74a18.7,18.7,0,0,0,.61,6.78c1.22,4.6,2.32,9.48,2.06,14.1-.69.17-1.77.31-3,.48-1.62.21-3.63.48-5.87,1a15,15,0,0,0-6.16,26.43c.89.71,1.57,1.29,2.1,1.77a15,15,0,0,0,8.69,27.28h.17c.93,0,1.69,0,2.31.09a15,15,0,0,0,18.34,10.89c0,5.65,2.71,11.08,8,15.18l7.62,5.93c16.11,12.53,32.78,25.49,49.21,38.19a28.46,28.46,0,0,0,17.45,6.21c8.44,0,16.17-3.93,21.77-11.06,6.33-8.06,13.15-16.89,20.88-27a31,31,0,0,0,2.85-4.47h49.2a15,15,0,0,0,13.67-8.82,15,15,0,0,0,8.64-13.58V33.68A15,15,0,0,0,243.54,20.09Z"/><path class="cls-1" d="M243.4,20a15,15,0,0,0-13.66-8.81H107.07a15,15,0,0,0-13.76,9A15,15,0,0,0,84.7,33.79v33a14.82,14.82,0,0,0-5.47,2.58l-.25.19c-.42.31-.88.66-1.38,1.09C75,72.84,72.81,74,71.34,74c-.85,0-2.79-.43-6.25-3.28a34.14,34.14,0,0,1-2.66-2.67c-1.08-1.15-2.29-2.45-3.73-3.78a15,15,0,0,0-25.12,9.55,18.7,18.7,0,0,0,.61,6.78c1.22,4.6,2.32,9.48,2.06,14.1-.69.17-1.77.31-3,.48-1.62.21-3.63.48-5.87,1A15,15,0,0,0,21.2,122.6c.89.71,1.57,1.29,2.1,1.77A15,15,0,0,0,32,151.64h.17c.93,0,1.69,0,2.31.09a15,15,0,0,0,18.34,10.89c0,5.65,2.71,11.08,8,15.18l7.62,5.93c16.11,12.53,32.78,25.49,49.21,38.19a28.46,28.46,0,0,0,17.45,6.21c8.44,0,16.17-3.93,21.77-11.06,6.33-8.06,13.15-16.89,20.88-27a31,31,0,0,0,2.85-4.47h49.2a15,15,0,0,0,13.67-8.82,15,15,0,0,0,8.64-13.58V33.58A15,15,0,0,0,243.4,20Z"/><path class="cls-1" d="M243.26,19.89a15,15,0,0,0-13.66-8.81H106.93a15,15,0,0,0-13.76,9,15,15,0,0,0-8.61,13.57v33a14.82,14.82,0,0,0-5.47,2.58l-.25.19c-.42.31-.88.66-1.38,1.09-2.56,2.18-4.78,3.38-6.25,3.38-.85,0-2.79-.43-6.25-3.28A34.14,34.14,0,0,1,62.29,68c-1.08-1.15-2.29-2.45-3.73-3.78a15,15,0,0,0-25.12,9.55,18.7,18.7,0,0,0,.61,6.78c1.22,4.6,2.32,9.48,2.06,14.1-.69.17-1.77.31-3,.48-1.62.21-3.63.48-5.87,1a15,15,0,0,0-6.16,26.43c.89.71,1.57,1.29,2.1,1.77a15,15,0,0,0,8.69,27.28H32c.93,0,1.69,0,2.31.09a15,15,0,0,0,18.34,10.89c0,5.65,2.71,11.08,8,15.18l7.62,5.93c16.11,12.53,32.78,25.49,49.21,38.19A28.46,28.46,0,0,0,134.93,228c8.44,0,16.17-3.93,21.77-11.06,6.33-8.06,13.15-16.89,20.88-27a31,31,0,0,0,2.85-4.47h49.2a15,15,0,0,0,13.67-8.82,15,15,0,0,0,8.64-13.58V33.49A15,15,0,0,0,243.26,19.89Z"/><path class="cls-1" d="M243.12,19.79A15,15,0,0,0,229.46,11H106.79A15,15,0,0,0,93,20a15,15,0,0,0-8.61,13.57v33a14.82,14.82,0,0,0-5.47,2.58l-.25.19c-.42.31-.88.66-1.38,1.09-2.56,2.18-4.78,3.38-6.25,3.38-.85,0-2.79-.43-6.25-3.28a34.14,34.14,0,0,1-2.66-2.67c-1.08-1.15-2.29-2.45-3.73-3.78A15,15,0,0,0,33.3,73.66a18.7,18.7,0,0,0,.61,6.78c1.22,4.6,2.32,9.48,2.06,14.1-.69.17-1.77.31-3,.48-1.62.21-3.63.48-5.87,1a15,15,0,0,0-6.16,26.43c.89.71,1.57,1.29,2.1,1.77a15,15,0,0,0,8.69,27.28h.17c.93,0,1.69,0,2.31.09a15,15,0,0,0,18.34,10.89c0,5.65,2.71,11.08,8,15.18l7.62,5.93c16.11,12.53,32.78,25.49,49.21,38.19a28.46,28.46,0,0,0,17.45,6.21c8.44,0,16.17-3.93,21.77-11.06,6.33-8.06,13.15-16.89,20.88-27a31,31,0,0,0,2.85-4.47h49.2a15,15,0,0,0,13.67-8.82A15,15,0,0,0,251.79,163V33.39A15,15,0,0,0,243.12,19.79Z"/><path class="cls-1" d="M243,19.69a15,15,0,0,0-13.66-8.81H106.64a15,15,0,0,0-13.76,9,15,15,0,0,0-8.61,13.57v33a14.82,14.82,0,0,0-5.47,2.58l-.25.19c-.42.31-.88.66-1.38,1.09-2.56,2.18-4.78,3.38-6.25,3.38-.85,0-2.79-.43-6.25-3.28A34.14,34.14,0,0,1,62,67.79c-1.08-1.15-2.29-2.45-3.73-3.78a15,15,0,0,0-25.12,9.55,18.7,18.7,0,0,0,.61,6.78c1.22,4.6,2.32,9.48,2.06,14.1-.69.17-1.77.31-3,.48-1.62.21-3.63.48-5.87,1a15,15,0,0,0-6.16,26.43c.89.71,1.57,1.29,2.1,1.77a15,15,0,0,0,8.69,27.28h.17c.93,0,1.69,0,2.31.09a15,15,0,0,0,18.34,10.89c0,5.65,2.71,11.08,8,15.18L68,183.43c16.11,12.53,32.78,25.49,49.21,38.19a28.46,28.46,0,0,0,17.45,6.21c8.44,0,16.17-3.93,21.77-11.06,6.33-8.06,13.15-16.89,20.88-27a31,31,0,0,0,2.85-4.47h49.2A15,15,0,0,0,243,176.49a15,15,0,0,0,8.64-13.58V33.29A15,15,0,0,0,243,19.69Z"/><path class="cls-1" d="M242.83,19.59a15,15,0,0,0-13.66-8.81H106.5a15,15,0,0,0-13.76,9,15,15,0,0,0-8.61,13.57v33A14.82,14.82,0,0,0,78.66,69l-.25.19c-.42.31-.88.66-1.38,1.09-2.56,2.18-4.78,3.38-6.25,3.38-.85,0-2.79-.43-6.25-3.28a34.14,34.14,0,0,1-2.66-2.67c-1.08-1.15-2.29-2.45-3.73-3.78A15,15,0,0,0,33,73.46a18.7,18.7,0,0,0,.61,6.78c1.22,4.6,2.32,9.48,2.06,14.1-.69.17-1.77.31-3,.48-1.62.21-3.63.48-5.87,1a15,15,0,0,0-6.16,26.43c.89.71,1.57,1.29,2.1,1.77a15,15,0,0,0,8.69,27.28h.17c.93,0,1.69,0,2.31.09a15,15,0,0,0,18.34,10.89c0,5.65,2.71,11.08,8,15.18l7.62,5.93c16.11,12.53,32.78,25.49,49.21,38.19a28.46,28.46,0,0,0,17.45,6.21c8.44,0,16.17-3.93,21.77-11.06,6.33-8.06,13.15-16.89,20.88-27a31,31,0,0,0,2.85-4.47h49.2a15,15,0,0,0,13.67-8.82,15,15,0,0,0,8.64-13.58V33.19A15,15,0,0,0,242.83,19.59Z"/><path class="cls-1" d="M242.69,19.49A15,15,0,0,0,229,10.69H106.36a15,15,0,0,0-13.76,9A15,15,0,0,0,84,33.29v33a14.82,14.82,0,0,0-5.47,2.58l-.25.19c-.42.31-.88.66-1.38,1.09-2.56,2.18-4.78,3.38-6.25,3.38-.85,0-2.79-.43-6.25-3.28a34.14,34.14,0,0,1-2.66-2.67c-1.08-1.15-2.29-2.45-3.73-3.78a15,15,0,0,0-25.12,9.55,18.7,18.7,0,0,0,.61,6.78c1.22,4.6,2.32,9.48,2.06,14.1-.69.17-1.77.31-3,.48-1.62.21-3.63.48-5.87,1a15,15,0,0,0-6.16,26.43c.89.71,1.57,1.29,2.1,1.77a15,15,0,0,0,8.69,27.28h.17c.93,0,1.69,0,2.31.09A15,15,0,0,0,52.1,162.13c0,5.65,2.71,11.08,8,15.18l7.62,5.93c16.11,12.53,32.78,25.49,49.21,38.19a28.46,28.46,0,0,0,17.45,6.21c8.44,0,16.17-3.93,21.77-11.06,6.33-8.06,13.15-16.89,20.88-27a31,31,0,0,0,2.85-4.47h49.2a15,15,0,0,0,13.67-8.82,15,15,0,0,0,8.64-13.58V33.09A15,15,0,0,0,242.69,19.49Z"/><path class="cls-1" d="M242.55,19.39a15,15,0,0,0-13.66-8.81H106.22a15,15,0,0,0-13.76,9A15,15,0,0,0,83.85,33.2v33a14.82,14.82,0,0,0-5.47,2.58l-.25.19c-.42.31-.88.66-1.38,1.09-2.56,2.18-4.78,3.38-6.25,3.38-.85,0-2.79-.43-6.25-3.28a34.14,34.14,0,0,1-2.66-2.67c-1.08-1.15-2.29-2.45-3.73-3.78a15,15,0,0,0-25.12,9.55A18.7,18.7,0,0,0,33.35,80c1.22,4.6,2.32,9.48,2.06,14.1-.69.17-1.77.31-3,.48-1.62.21-3.63.48-5.87,1A15,15,0,0,0,20.35,122c.89.71,1.57,1.29,2.1,1.77A15,15,0,0,0,31.13,151h.17c.93,0,1.69,0,2.31.09A15,15,0,0,0,52,162c0,5.65,2.71,11.08,8,15.18l7.62,5.93c16.11,12.53,32.78,25.49,49.21,38.19a28.46,28.46,0,0,0,17.45,6.21c8.44,0,16.17-3.93,21.77-11.06,6.33-8.06,13.15-16.89,20.88-27a31,31,0,0,0,2.85-4.47h49.2a15,15,0,0,0,13.67-8.82,15,15,0,0,0,8.64-13.58V33A15,15,0,0,0,242.55,19.39Z"/><path class="cls-1" d="M242.41,19.3a15,15,0,0,0-13.66-8.81H106.08a15,15,0,0,0-13.76,9A15,15,0,0,0,83.7,33.1v33a14.82,14.82,0,0,0-5.47,2.58l-.25.19c-.42.31-.88.66-1.38,1.09-2.56,2.18-4.78,3.38-6.25,3.38-.85,0-2.79-.43-6.25-3.28a34.14,34.14,0,0,1-2.66-2.67c-1.08-1.15-2.29-2.45-3.73-3.78a15,15,0,0,0-25.12,9.55,18.7,18.7,0,0,0,.61,6.78c1.22,4.6,2.32,9.48,2.06,14.1-.69.17-1.77.31-3,.48-1.62.21-3.63.48-5.87,1a15,15,0,0,0-6.16,26.43c.89.71,1.57,1.29,2.1,1.77A15,15,0,0,0,31,151h.17c.93,0,1.69,0,2.31.09a15,15,0,0,0,18.34,10.89c0,5.65,2.71,11.08,8,15.18L67.41,183c16.11,12.53,32.78,25.49,49.21,38.19a28.46,28.46,0,0,0,17.45,6.21c8.44,0,16.17-3.93,21.77-11.06,6.33-8.06,13.15-16.89,20.88-27a31,31,0,0,0,2.85-4.47h49.2a15,15,0,0,0,13.67-8.82,15,15,0,0,0,8.64-13.58V32.89A15,15,0,0,0,242.41,19.3Z"/><path class="cls-1" d="M242.26,19.2a15,15,0,0,0-13.66-8.81H105.93a15,15,0,0,0-13.76,9A15,15,0,0,0,83.56,33V66a14.82,14.82,0,0,0-5.47,2.58l-.25.19c-.42.31-.88.66-1.38,1.09-2.56,2.18-4.78,3.38-6.25,3.38-.85,0-2.79-.43-6.25-3.28A34.14,34.14,0,0,1,61.3,67.3c-1.08-1.15-2.29-2.45-3.73-3.78a15,15,0,0,0-25.12,9.55,18.7,18.7,0,0,0,.61,6.78c1.22,4.6,2.32,9.48,2.06,14.1-.69.17-1.77.31-3,.48-1.62.21-3.63.48-5.87,1a15,15,0,0,0-6.16,26.43c.89.71,1.57,1.29,2.1,1.77a15,15,0,0,0,8.69,27.28H31c.93,0,1.69,0,2.31.09a15,15,0,0,0,18.34,10.89c0,5.65,2.71,11.08,8,15.18l7.62,5.93c16.11,12.53,32.78,25.49,49.21,38.19a28.46,28.46,0,0,0,17.45,6.21c8.44,0,16.17-3.93,21.77-11.06,6.33-8.06,13.15-16.89,20.88-27a31,31,0,0,0,2.85-4.47h49.2A15,15,0,0,0,242.29,176a15,15,0,0,0,8.64-13.58V32.8A15,15,0,0,0,242.26,19.2Z"/><path class="cls-1" d="M242.12,19.1a15,15,0,0,0-13.66-8.81H105.79a15,15,0,0,0-13.76,9A15,15,0,0,0,83.42,32.9v33a14.82,14.82,0,0,0-5.47,2.58l-.25.19c-.42.31-.88.66-1.38,1.09-2.56,2.18-4.78,3.38-6.25,3.38-.85,0-2.79-.43-6.25-3.28a34.14,34.14,0,0,1-2.66-2.67c-1.08-1.15-2.29-2.45-3.73-3.78A15,15,0,0,0,32.31,73a18.7,18.7,0,0,0,.61,6.78c1.22,4.6,2.32,9.48,2.06,14.1-.69.17-1.77.31-3,.48-1.62.21-3.63.48-5.87,1a15,15,0,0,0-6.16,26.43c.89.71,1.57,1.29,2.1,1.77a15,15,0,0,0,8.69,27.28h.17c.93,0,1.69,0,2.31.09a15,15,0,0,0,18.34,10.89c0,5.65,2.71,11.08,8,15.18l7.62,5.93C83.24,195.36,99.9,208.32,116.34,221a28.46,28.46,0,0,0,17.45,6.21c8.44,0,16.17-3.93,21.77-11.06,6.33-8.06,13.15-16.89,20.88-27a31,31,0,0,0,2.85-4.47h49.2a15,15,0,0,0,13.67-8.82,15,15,0,0,0,8.64-13.58V32.7A15,15,0,0,0,242.12,19.1Z"/><path class="cls-1" d="M242,19a15,15,0,0,0-13.66-8.81H105.65a15,15,0,0,0-13.76,9A15,15,0,0,0,83.28,32.8v33a14.82,14.82,0,0,0-5.47,2.58l-.25.19c-.42.31-.88.66-1.38,1.09-2.56,2.18-4.78,3.38-6.25,3.38-.85,0-2.79-.43-6.25-3.28A34.14,34.14,0,0,1,61,67.1c-1.08-1.15-2.29-2.45-3.73-3.78a15,15,0,0,0-25.12,9.55,18.7,18.7,0,0,0,.61,6.78c1.22,4.6,2.32,9.48,2.06,14.1-.69.17-1.77.31-3,.48-1.62.21-3.63.48-5.87,1a15,15,0,0,0-6.16,26.43c.89.71,1.57,1.29,2.1,1.77a15,15,0,0,0,8.69,27.28h.17c.93,0,1.69,0,2.31.09a15,15,0,0,0,18.34,10.89c0,5.65,2.71,11.08,8,15.18L67,182.73c16.11,12.53,32.78,25.49,49.21,38.19a28.46,28.46,0,0,0,17.45,6.21c8.44,0,16.17-3.93,21.77-11.06,6.33-8.06,13.15-16.89,20.88-27a31,31,0,0,0,2.85-4.47h49.2A15,15,0,0,0,242,175.8a15,15,0,0,0,8.64-13.58V32.6A15,15,0,0,0,242,19Z"/><path class="cls-1" d="M241.84,18.9a15,15,0,0,0-13.66-8.81H105.51a15,15,0,0,0-13.76,9A15,15,0,0,0,83.14,32.7v33a14.82,14.82,0,0,0-5.47,2.58l-.25.19c-.42.31-.88.66-1.38,1.09C73.47,71.75,71.25,73,69.78,73c-.85,0-2.79-.43-6.25-3.28A34.14,34.14,0,0,1,60.87,67c-1.08-1.15-2.29-2.45-3.73-3.78A15,15,0,0,0,32,72.77a18.7,18.7,0,0,0,.61,6.78C33.86,84.15,35,89,34.7,93.65c-.69.17-1.77.31-3,.48-1.62.21-3.63.48-5.87,1a15,15,0,0,0-6.16,26.43c.89.71,1.57,1.29,2.1,1.77a15,15,0,0,0,8.69,27.28h.17c.93,0,1.69,0,2.31.09a15,15,0,0,0,18.34,10.89c0,5.65,2.71,11.08,8,15.18l7.62,5.93c16.11,12.53,32.78,25.49,49.21,38.19A28.46,28.46,0,0,0,133.51,227c8.44,0,16.17-3.93,21.77-11.06,6.33-8.06,13.15-16.89,20.88-27a31,31,0,0,0,2.85-4.47h49.2a15,15,0,0,0,13.67-8.82,15,15,0,0,0,8.64-13.58V32.5A15,15,0,0,0,241.84,18.9Z"/><path class="cls-1" d="M241.7,18.8A15,15,0,0,0,228,10H105.37A15,15,0,0,0,91.6,19,15,15,0,0,0,83,32.6v33a14.82,14.82,0,0,0-5.47,2.58l-.25.19c-.42.31-.88.66-1.38,1.09-2.56,2.18-4.78,3.38-6.25,3.38-.85,0-2.79-.43-6.25-3.28a34.14,34.14,0,0,1-2.66-2.67c-1.08-1.15-2.29-2.45-3.73-3.78a15,15,0,0,0-25.12,9.55,18.7,18.7,0,0,0,.61,6.78c1.22,4.6,2.32,9.48,2.06,14.1-.69.17-1.77.31-3,.48-1.62.21-3.63.48-5.87,1a15,15,0,0,0-6.16,26.43c.89.71,1.57,1.29,2.1,1.77a15,15,0,0,0,8.69,27.28h.17c.93,0,1.69,0,2.31.09A15,15,0,0,0,51.1,161.44c0,5.65,2.71,11.08,8,15.18l7.62,5.93c16.11,12.53,32.78,25.49,49.21,38.19a28.46,28.46,0,0,0,17.45,6.21c8.44,0,16.17-3.93,21.77-11.06,6.33-8.06,13.15-16.89,20.88-27a31,31,0,0,0,2.85-4.47h49.2a15,15,0,0,0,13.67-8.82A15,15,0,0,0,250.37,162V32.4A15,15,0,0,0,241.7,18.8Z"/><path class="cls-1" d="M241.55,18.7A15,15,0,0,0,227.89,9.9H105.22a15,15,0,0,0-13.76,9A15,15,0,0,0,82.85,32.5v33a14.82,14.82,0,0,0-5.47,2.58l-.25.19c-.42.31-.88.66-1.38,1.09-2.56,2.18-4.78,3.38-6.25,3.38-.85,0-2.79-.43-6.25-3.28a34.14,34.14,0,0,1-2.66-2.67c-1.08-1.15-2.29-2.45-3.73-3.78a15,15,0,0,0-25.12,9.55,18.7,18.7,0,0,0,.61,6.78c1.22,4.6,2.32,9.48,2.06,14.1-.69.17-1.77.31-3,.48-1.62.21-3.63.48-5.87,1a15,15,0,0,0-6.16,26.43c.89.71,1.57,1.29,2.1,1.77a15,15,0,0,0,8.69,27.28h.17c.93,0,1.69,0,2.31.09A15,15,0,0,0,51,161.34c0,5.65,2.71,11.08,8,15.18l7.62,5.93c16.11,12.53,32.78,25.49,49.21,38.19a28.46,28.46,0,0,0,17.45,6.21c8.44,0,16.17-3.93,21.77-11.06,6.33-8.06,13.15-16.89,20.88-27a31,31,0,0,0,2.85-4.47h49.2a15,15,0,0,0,13.67-8.82,15,15,0,0,0,8.64-13.58V32.3A15,15,0,0,0,241.55,18.7Z"/><path class="cls-1" d="M241.41,18.6A15,15,0,0,0,227.75,9.8H105.08a15,15,0,0,0-13.76,9,15,15,0,0,0-8.61,13.57v33A14.82,14.82,0,0,0,77.24,68l-.25.19c-.42.31-.88.66-1.38,1.09-2.56,2.18-4.78,3.38-6.25,3.38-.85,0-2.79-.43-6.25-3.28a34.14,34.14,0,0,1-2.66-2.67c-1.08-1.15-2.29-2.45-3.73-3.78A15,15,0,0,0,31.6,72.48a18.7,18.7,0,0,0,.61,6.78c1.22,4.6,2.32,9.48,2.06,14.1-.69.17-1.77.31-3,.48-1.62.21-3.63.48-5.87,1a15,15,0,0,0-6.16,26.43c.89.71,1.57,1.29,2.1,1.77A15,15,0,0,0,30,150.26h.17c.93,0,1.69,0,2.31.09a15,15,0,0,0,18.34,10.89c0,5.65,2.71,11.08,8,15.18l7.62,5.93c16.11,12.53,32.78,25.49,49.21,38.19a28.46,28.46,0,0,0,17.45,6.21c8.44,0,16.17-3.93,21.77-11.06,6.33-8.06,13.15-16.89,20.88-27a31,31,0,0,0,2.85-4.47h49.2a15,15,0,0,0,13.67-8.82,15,15,0,0,0,8.64-13.58V32.2A15,15,0,0,0,241.41,18.6Z"/><path class="cls-1" d="M241.27,18.51A15,15,0,0,0,227.61,9.7H104.94a15,15,0,0,0-13.76,9,15,15,0,0,0-8.61,13.57v33a14.82,14.82,0,0,0-5.47,2.58l-.25.19c-.42.31-.88.66-1.38,1.09-2.56,2.18-4.78,3.38-6.25,3.38-.85,0-2.79-.43-6.25-3.28a34.14,34.14,0,0,1-2.66-2.67c-1.08-1.15-2.29-2.45-3.73-3.78a15,15,0,0,0-25.12,9.55,18.7,18.7,0,0,0,.61,6.78c1.22,4.6,2.32,9.48,2.06,14.1-.69.17-1.77.31-3,.48-1.62.21-3.63.48-5.87,1a15,15,0,0,0-6.16,26.43c.89.71,1.57,1.29,2.1,1.77a15,15,0,0,0,8.69,27.28H30c.93,0,1.69,0,2.31.09a15,15,0,0,0,18.34,10.89c0,5.65,2.71,11.08,8,15.18l7.62,5.93c16.11,12.53,32.78,25.49,49.21,38.19a28.46,28.46,0,0,0,17.45,6.21c8.44,0,16.17-3.93,21.77-11.06,6.33-8.06,13.15-16.89,20.88-27a31,31,0,0,0,2.85-4.47h49.2a15,15,0,0,0,13.67-8.82,15,15,0,0,0,8.64-13.58V32.1A15,15,0,0,0,241.27,18.51Z"/><path class="cls-1" d="M241.13,18.41A15,15,0,0,0,227.47,9.6H104.8a15,15,0,0,0-13.76,9,15,15,0,0,0-8.61,13.57v33A14.82,14.82,0,0,0,77,67.8L76.7,68c-.42.31-.88.66-1.38,1.09-2.56,2.18-4.78,3.38-6.25,3.38-.85,0-2.79-.43-6.25-3.28a34.14,34.14,0,0,1-2.66-2.67c-1.08-1.15-2.29-2.45-3.73-3.78a15,15,0,0,0-25.12,9.55,18.7,18.7,0,0,0,.61,6.78c1.22,4.6,2.32,9.48,2.06,14.1-.69.17-1.77.31-3,.48-1.62.21-3.63.48-5.87,1A15,15,0,0,0,18.93,121c.89.71,1.57,1.29,2.1,1.77a15,15,0,0,0,8.69,27.28h.17c.93,0,1.69,0,2.31.09A15,15,0,0,0,50.53,161c0,5.65,2.71,11.08,8,15.18l7.62,5.93c16.11,12.53,32.78,25.49,49.21,38.19a28.46,28.46,0,0,0,17.45,6.21c8.44,0,16.17-3.93,21.77-11.06,6.33-8.06,13.15-16.89,20.88-27a31,31,0,0,0,2.85-4.47h49.2a15,15,0,0,0,13.67-8.82,15,15,0,0,0,8.64-13.58V32A15,15,0,0,0,241.13,18.41Z"/><path class="cls-1" d="M241,18.31A15,15,0,0,0,227.32,9.5H104.66a15,15,0,0,0-13.76,9,15,15,0,0,0-8.61,13.57v33a14.82,14.82,0,0,0-5.47,2.58l-.25.19c-.42.31-.88.66-1.38,1.09-2.56,2.18-4.78,3.38-6.25,3.38-.85,0-2.79-.43-6.25-3.28A34.14,34.14,0,0,1,60,66.41c-1.08-1.15-2.29-2.45-3.73-3.78a15,15,0,0,0-25.12,9.55A18.7,18.7,0,0,0,31.78,79c1.22,4.6,2.32,9.48,2.06,14.1-.69.17-1.77.31-3,.48-1.62.21-3.63.48-5.87,1a15,15,0,0,0-6.16,26.43c.89.71,1.57,1.29,2.1,1.77A15,15,0,0,0,29.57,150h.17c.93,0,1.69,0,2.31.09a15,15,0,0,0,18.34,10.89c0,5.65,2.71,11.08,8,15.18L66,182c16.11,12.53,32.78,25.49,49.21,38.19a28.46,28.46,0,0,0,17.45,6.21c8.44,0,16.17-3.93,21.77-11.06,6.33-8.06,13.15-16.89,20.88-27a31,31,0,0,0,2.85-4.47h49.2A15,15,0,0,0,241,175.11a15,15,0,0,0,8.64-13.58V31.91A15,15,0,0,0,241,18.31Z"/><path class="cls-1" d="M240.84,18.21A15,15,0,0,0,227.18,9.4H104.51a15,15,0,0,0-13.76,9A15,15,0,0,0,82.14,32V65a14.82,14.82,0,0,0-5.47,2.58l-.25.19c-.42.31-.88.66-1.38,1.09-2.56,2.18-4.78,3.38-6.25,3.38-.85,0-2.79-.43-6.25-3.28a34.14,34.14,0,0,1-2.66-2.67c-1.08-1.15-2.29-2.45-3.73-3.78A15,15,0,0,0,31,72.08a18.7,18.7,0,0,0,.61,6.78C32.86,83.46,34,88.34,33.7,93c-.69.17-1.77.31-3,.48-1.62.21-3.63.48-5.87,1a15,15,0,0,0-6.16,26.43c.89.71,1.57,1.29,2.1,1.77a15,15,0,0,0,8.69,27.28h.17c.93,0,1.69,0,2.31.09a15,15,0,0,0,18.34,10.89c0,5.65,2.71,11.08,8,15.18l7.62,5.93c16.11,12.53,32.78,25.49,49.21,38.19a28.46,28.46,0,0,0,17.45,6.21c8.44,0,16.17-3.93,21.77-11.06,6.33-8.06,13.15-16.89,20.88-27a31,31,0,0,0,2.85-4.47h49.2A15,15,0,0,0,240.87,175a15,15,0,0,0,8.64-13.58V31.81A15,15,0,0,0,240.84,18.21Z"/><path class="cls-1" d="M240.7,18.11A15,15,0,0,0,227,9.3H104.37a15,15,0,0,0-13.76,9A15,15,0,0,0,82,31.91v33a14.82,14.82,0,0,0-5.47,2.58l-.25.19c-.42.31-.88.66-1.38,1.09-2.56,2.18-4.78,3.38-6.25,3.38-.85,0-2.79-.43-6.25-3.28a34.14,34.14,0,0,1-2.66-2.67c-1.08-1.15-2.29-2.45-3.73-3.78A15,15,0,0,0,30.89,72a18.7,18.7,0,0,0,.61,6.78c1.22,4.6,2.32,9.48,2.06,14.1-.69.17-1.77.31-3,.48-1.62.21-3.63.48-5.87,1a15,15,0,0,0-6.16,26.43c.89.71,1.57,1.29,2.1,1.77a15,15,0,0,0,8.69,27.28h.17c.93,0,1.69,0,2.31.09a15,15,0,0,0,18.34,10.89c0,5.65,2.71,11.08,8,15.18l7.62,5.93c16.11,12.53,32.78,25.49,49.21,38.19a28.46,28.46,0,0,0,17.45,6.21c8.44,0,16.17-3.93,21.77-11.06,6.33-8.06,13.15-16.89,20.88-27a31,31,0,0,0,2.85-4.47h49.2a15,15,0,0,0,13.67-8.82,15,15,0,0,0,8.64-13.58V31.71A15,15,0,0,0,240.7,18.11Z"/><path class="cls-1" d="M240.56,18A15,15,0,0,0,226.9,9.2H104.23a15,15,0,0,0-13.76,9,15,15,0,0,0-8.61,13.57v33a14.82,14.82,0,0,0-5.47,2.58l-.25.19c-.42.31-.88.66-1.38,1.09-2.56,2.18-4.78,3.38-6.25,3.38-.85,0-2.79-.43-6.25-3.28a34.14,34.14,0,0,1-2.66-2.67c-1.08-1.15-2.29-2.45-3.73-3.78a15,15,0,0,0-25.12,9.55,18.7,18.7,0,0,0,.61,6.78c1.22,4.6,2.32,9.48,2.06,14.1-.69.17-1.77.31-3,.48-1.62.21-3.63.48-5.87,1a15,15,0,0,0-6.16,26.43c.89.71,1.57,1.29,2.1,1.77a15,15,0,0,0,8.69,27.28h.17c.93,0,1.69,0,2.31.09A15,15,0,0,0,50,160.65c0,5.65,2.71,11.08,8,15.18l7.62,5.93c16.11,12.53,32.78,25.49,49.21,38.19a28.46,28.46,0,0,0,17.45,6.21c8.44,0,16.17-3.93,21.77-11.06,6.33-8.06,13.15-16.89,20.88-27a31,31,0,0,0,2.85-4.47h49.2a15,15,0,0,0,13.67-8.82,15,15,0,0,0,8.64-13.58V31.61A15,15,0,0,0,240.56,18Z"/><path class="cls-1" d="M240.42,17.91a15,15,0,0,0-13.66-8.81H104.09a15,15,0,0,0-13.76,9,15,15,0,0,0-8.61,13.57v33a14.82,14.82,0,0,0-5.47,2.58l-.25.19c-.42.31-.88.66-1.38,1.09C72,70.77,69.83,72,68.36,72c-.85,0-2.79-.43-6.25-3.28A34.14,34.14,0,0,1,59.45,66c-1.08-1.15-2.29-2.45-3.73-3.78a15,15,0,0,0-25.12,9.55,18.7,18.7,0,0,0,.61,6.78c1.22,4.6,2.32,9.48,2.06,14.1-.69.17-1.77.31-3,.48-1.62.21-3.63.48-5.87,1a15,15,0,0,0-6.16,26.43c.89.71,1.57,1.29,2.1,1.77A15,15,0,0,0,29,149.57h.17c.93,0,1.69,0,2.31.09a15,15,0,0,0,18.34,10.89c0,5.65,2.71,11.08,8,15.18l7.62,5.93c16.11,12.53,32.78,25.49,49.21,38.19a28.46,28.46,0,0,0,17.45,6.21c8.44,0,16.17-3.93,21.77-11.06,6.33-8.06,13.15-16.89,20.88-27a31,31,0,0,0,2.85-4.47h49.2a15,15,0,0,0,13.67-8.82,15,15,0,0,0,8.64-13.58V31.51A15,15,0,0,0,240.42,17.91Z"/><path class="cls-1" d="M240.28,17.82A15,15,0,0,0,226.61,9H103.95a15,15,0,0,0-13.76,9,15,15,0,0,0-8.61,13.57v33a14.82,14.82,0,0,0-5.47,2.58l-.25.19c-.42.31-.88.66-1.38,1.09-2.56,2.18-4.78,3.38-6.25,3.38-.85,0-2.79-.43-6.25-3.28a34.14,34.14,0,0,1-2.66-2.67c-1.08-1.15-2.29-2.45-3.73-3.78a15,15,0,0,0-25.12,9.55,18.7,18.7,0,0,0,.61,6.78c1.22,4.6,2.32,9.48,2.06,14.1-.69.17-1.77.31-3,.48-1.62.21-3.63.48-5.87,1a15,15,0,0,0-6.16,26.43c.89.71,1.57,1.29,2.1,1.77a15,15,0,0,0,8.69,27.28H29c.93,0,1.69,0,2.31.09a15,15,0,0,0,18.34,10.89c0,5.65,2.71,11.08,8,15.18l7.62,5.93c16.11,12.53,32.78,25.49,49.21,38.19A28.46,28.46,0,0,0,131.94,226c8.44,0,16.17-3.93,21.77-11.06,6.33-8.06,13.15-16.89,20.88-27a31,31,0,0,0,2.85-4.47h49.2a15,15,0,0,0,13.67-8.82A15,15,0,0,0,248.95,161V31.41A15,15,0,0,0,240.28,17.82Z"/><path class="cls-1" d="M240.13,17.72a15,15,0,0,0-13.66-8.81H103.8a15,15,0,0,0-13.76,9,15,15,0,0,0-8.61,13.57v33A14.82,14.82,0,0,0,76,67.11l-.25.19c-.42.31-.88.66-1.38,1.09-2.56,2.18-4.78,3.38-6.25,3.38-.85,0-2.79-.43-6.25-3.28a34.14,34.14,0,0,1-2.66-2.67c-1.08-1.15-2.29-2.45-3.73-3.78a15,15,0,0,0-25.12,9.55,18.7,18.7,0,0,0,.61,6.78c1.22,4.6,2.32,9.48,2.06,14.1-.69.17-1.77.31-3,.48-1.62.21-3.63.48-5.87,1a15,15,0,0,0-6.16,26.43c.89.71,1.57,1.29,2.1,1.77a15,15,0,0,0,8.69,27.28h.17c.93,0,1.69,0,2.31.09a15,15,0,0,0,18.34,10.89c0,5.65,2.71,11.08,8,15.18l7.62,5.93c16.11,12.53,32.78,25.49,49.21,38.19a28.46,28.46,0,0,0,17.45,6.21c8.44,0,16.17-3.93,21.77-11.06,6.33-8.06,13.15-16.89,20.88-27a31,31,0,0,0,2.85-4.47h49.2a15,15,0,0,0,13.67-8.82,15,15,0,0,0,8.64-13.58V31.31A15,15,0,0,0,240.13,17.72Z"/><path class="cls-1" d="M240,17.62a15,15,0,0,0-13.66-8.81H103.66a15,15,0,0,0-13.76,9,15,15,0,0,0-8.61,13.57v33A14.82,14.82,0,0,0,75.81,67l-.25.19c-.42.31-.88.66-1.38,1.09-2.56,2.18-4.78,3.38-6.25,3.38-.85,0-2.79-.43-6.25-3.28A34.14,34.14,0,0,1,59,65.72c-1.08-1.15-2.29-2.45-3.73-3.78a15,15,0,0,0-25.12,9.55,18.7,18.7,0,0,0,.61,6.78c1.22,4.6,2.32,9.48,2.06,14.1-.69.17-1.77.31-3,.48-1.62.21-3.63.48-5.87,1a15,15,0,0,0-6.16,26.43c.89.71,1.57,1.29,2.1,1.77a15,15,0,0,0,8.69,27.28h.17c.93,0,1.69,0,2.31.09A15,15,0,0,0,49.4,160.25c0,5.65,2.71,11.08,8,15.18L65,181.35c16.11,12.53,32.78,25.49,49.21,38.19a28.46,28.46,0,0,0,17.45,6.21c8.44,0,16.17-3.93,21.77-11.06,6.33-8.06,13.15-16.89,20.88-27a31,31,0,0,0,2.85-4.47h49.2A15,15,0,0,0,240,174.42a15,15,0,0,0,8.64-13.58V31.22A15,15,0,0,0,240,17.62Z"/><path class="cls-1" d="M239.85,17.52a15,15,0,0,0-13.66-8.81H103.52a15,15,0,0,0-13.76,9,15,15,0,0,0-8.61,13.57v33a14.82,14.82,0,0,0-5.47,2.58l-.25.19c-.42.31-.88.66-1.38,1.09-2.56,2.18-4.78,3.38-6.25,3.38-.85,0-2.79-.43-6.25-3.28a34.14,34.14,0,0,1-2.66-2.67c-1.08-1.15-2.29-2.45-3.73-3.78A15,15,0,0,0,30,71.39a18.7,18.7,0,0,0,.61,6.78c1.22,4.6,2.32,9.48,2.06,14.1-.69.17-1.77.31-3,.48-1.62.21-3.63.48-5.87,1a15,15,0,0,0-6.16,26.43c.89.71,1.57,1.29,2.1,1.77a15,15,0,0,0,8.69,27.28h.17c.93,0,1.69,0,2.31.09a15,15,0,0,0,18.34,10.89c0,5.65,2.71,11.08,8,15.18l7.62,5.93c16.11,12.53,32.78,25.49,49.21,38.19a28.46,28.46,0,0,0,17.45,6.21c8.44,0,16.17-3.93,21.77-11.06,6.33-8.06,13.15-16.89,20.88-27a31,31,0,0,0,2.85-4.47h49.2a15,15,0,0,0,13.67-8.82,15,15,0,0,0,8.64-13.58V31.12A15,15,0,0,0,239.85,17.52Z"/><path class="cls-1" d="M239.71,17.42A15,15,0,0,0,226,8.61H103.38a15,15,0,0,0-13.76,9A15,15,0,0,0,81,31.22v33a14.82,14.82,0,0,0-5.47,2.58l-.25.19c-.42.31-.88.66-1.38,1.09-2.56,2.18-4.78,3.38-6.25,3.38-.85,0-2.79-.43-6.25-3.28a34.14,34.14,0,0,1-2.66-2.67c-1.08-1.15-2.29-2.45-3.73-3.78A15,15,0,0,0,29.9,71.29a18.7,18.7,0,0,0,.61,6.78c1.22,4.6,2.32,9.48,2.06,14.1-.69.17-1.77.31-3,.48-1.62.21-3.63.48-5.87,1A15,15,0,0,0,17.5,120c.89.71,1.57,1.29,2.1,1.77a15,15,0,0,0,8.69,27.28h.17c.93,0,1.69,0,2.31.09a15,15,0,0,0,18.34,10.89c0,5.65,2.71,11.08,8,15.18l7.62,5.93c16.11,12.53,32.78,25.49,49.21,38.19a28.46,28.46,0,0,0,17.45,6.21c8.44,0,16.17-3.93,21.77-11.06,6.33-8.06,13.15-16.89,20.88-27a31,31,0,0,0,2.85-4.47h49.2a15,15,0,0,0,13.67-8.82,15,15,0,0,0,8.64-13.58V31A15,15,0,0,0,239.71,17.42Z"/><path class="cls-1" d="M239.57,17.32A15,15,0,0,0,225.9,8.51H103.24a15,15,0,0,0-13.76,9,15,15,0,0,0-8.61,13.57v33a14.82,14.82,0,0,0-5.47,2.58l-.25.19c-.42.31-.88.66-1.38,1.09-2.56,2.18-4.78,3.38-6.25,3.38-.85,0-2.79-.43-6.25-3.28a34.14,34.14,0,0,1-2.66-2.67c-1.08-1.15-2.29-2.45-3.73-3.78a15,15,0,0,0-25.12,9.55A18.7,18.7,0,0,0,30.36,78c1.22,4.6,2.32,9.48,2.06,14.1-.69.17-1.77.31-3,.48-1.62.21-3.63.48-5.87,1a15,15,0,0,0-6.16,26.43c.89.71,1.57,1.29,2.1,1.77A15,15,0,0,0,28.15,149h.17c.93,0,1.69,0,2.31.09A15,15,0,0,0,49,160c0,5.65,2.71,11.08,8,15.18l7.62,5.93c16.11,12.53,32.78,25.49,49.21,38.19a28.46,28.46,0,0,0,17.45,6.21c8.44,0,16.17-3.93,21.77-11.06,6.33-8.06,13.15-16.89,20.88-27a31,31,0,0,0,2.85-4.47h49.2a15,15,0,0,0,13.67-8.82,15,15,0,0,0,8.64-13.58V30.92A15,15,0,0,0,239.57,17.32Z"/><path class="cls-1" d="M239.42,17.22a15,15,0,0,0-13.66-8.81H103.09a15,15,0,0,0-13.76,9A15,15,0,0,0,80.72,31V64a14.82,14.82,0,0,0-5.47,2.58L75,66.8c-.42.31-.88.66-1.38,1.09-2.56,2.18-4.78,3.38-6.25,3.38-.85,0-2.79-.43-6.25-3.28a34.14,34.14,0,0,1-2.66-2.67c-1.08-1.15-2.29-2.45-3.73-3.78a15,15,0,0,0-25.12,9.55,18.7,18.7,0,0,0,.61,6.78c1.22,4.6,2.32,9.48,2.06,14.1-.69.17-1.77.31-3,.48-1.62.21-3.63.48-5.87,1a15,15,0,0,0-6.16,26.43c.89.71,1.57,1.29,2.1,1.77A15,15,0,0,0,28,148.88h.17c.93,0,1.69,0,2.31.09a15,15,0,0,0,18.34,10.89c0,5.65,2.71,11.08,8,15.18L64.42,181c16.11,12.53,32.78,25.49,49.21,38.19a28.46,28.46,0,0,0,17.45,6.21c8.44,0,16.17-3.93,21.77-11.06,6.33-8.06,13.15-16.89,20.88-27a31,31,0,0,0,2.85-4.47h49.2A15,15,0,0,0,239.45,174a15,15,0,0,0,8.64-13.58V30.82A15,15,0,0,0,239.42,17.22Z"/><path class="cls-1" d="M239.28,17.12a15,15,0,0,0-13.66-8.81H103a15,15,0,0,0-13.76,9,15,15,0,0,0-8.61,13.57v33a14.82,14.82,0,0,0-5.47,2.58l-.25.19c-.42.31-.88.66-1.38,1.09-2.56,2.18-4.78,3.38-6.25,3.38-.85,0-2.79-.43-6.25-3.28a34.14,34.14,0,0,1-2.66-2.67c-1.08-1.15-2.29-2.45-3.73-3.78A15,15,0,0,0,29.47,71a18.7,18.7,0,0,0,.61,6.78c1.22,4.6,2.32,9.48,2.06,14.1-.69.17-1.77.31-3,.48-1.62.21-3.63.48-5.87,1a15,15,0,0,0-6.16,26.43c.89.71,1.57,1.29,2.1,1.77a15,15,0,0,0,8.69,27.28H28c.93,0,1.69,0,2.31.09a15,15,0,0,0,18.34,10.89c0,5.65,2.71,11.08,8,15.18l7.62,5.93C80.4,193.39,97.06,206.34,113.5,219a28.46,28.46,0,0,0,17.45,6.21c8.44,0,16.17-3.93,21.77-11.06,6.33-8.06,13.15-16.89,20.88-27a31,31,0,0,0,2.85-4.47h49.2a15,15,0,0,0,13.67-8.82A15,15,0,0,0,248,160.34V30.72A15,15,0,0,0,239.28,17.12Z"/><path class="cls-1" d="M239.14,17a15,15,0,0,0-13.66-8.81H102.81a15,15,0,0,0-13.76,9,15,15,0,0,0-8.61,13.57v33A14.82,14.82,0,0,0,75,66.42l-.25.19c-.42.31-.88.66-1.38,1.09-2.56,2.18-4.78,3.38-6.25,3.38-.85,0-2.79-.43-6.25-3.28a34.14,34.14,0,0,1-2.66-2.67c-1.08-1.15-2.29-2.45-3.73-3.78A15,15,0,0,0,29.33,70.9a18.7,18.7,0,0,0,.61,6.78c1.22,4.6,2.32,9.48,2.06,14.1-.69.17-1.77.31-3,.48-1.62.21-3.63.48-5.87,1a15,15,0,0,0-6.16,26.43c.89.71,1.57,1.29,2.1,1.77a15,15,0,0,0,8.69,27.28h.17c.93,0,1.69,0,2.31.09a15,15,0,0,0,18.34,10.89c0,5.65,2.71,11.08,8,15.18l7.62,5.93c16.11,12.53,32.78,25.49,49.21,38.19a28.46,28.46,0,0,0,17.45,6.21c8.44,0,16.17-3.93,21.77-11.06,6.33-8.06,13.15-16.89,20.88-27a31,31,0,0,0,2.85-4.47h49.2a15,15,0,0,0,13.67-8.82,15,15,0,0,0,8.64-13.58V30.62A15,15,0,0,0,239.14,17Z"/><path class="cls-1" d="M239,16.93a15,15,0,0,0-13.66-8.81H102.67a15,15,0,0,0-13.76,9A15,15,0,0,0,80.3,30.73v33a14.82,14.82,0,0,0-5.47,2.58l-.25.19c-.42.31-.88.66-1.38,1.09C70.63,69.78,68.41,71,66.94,71c-.85,0-2.79-.43-6.25-3.28A34.14,34.14,0,0,1,58,65c-1.08-1.15-2.29-2.45-3.73-3.78A15,15,0,0,0,29.19,70.8a18.7,18.7,0,0,0,.61,6.78c1.22,4.6,2.32,9.48,2.06,14.1-.69.17-1.77.31-3,.48-1.62.21-3.63.48-5.87,1a15,15,0,0,0-6.16,26.43c.89.71,1.57,1.29,2.1,1.77a15,15,0,0,0,8.69,27.28h.17c.93,0,1.69,0,2.31.09A15,15,0,0,0,48.4,159.56c0,5.65,2.71,11.08,8,15.18L64,180.66c16.11,12.53,32.78,25.49,49.21,38.19a28.46,28.46,0,0,0,17.45,6.21c8.44,0,16.17-3.93,21.77-11.06,6.33-8.06,13.15-16.89,20.88-27a31,31,0,0,0,2.85-4.47h49.2A15,15,0,0,0,239,173.73a15,15,0,0,0,8.64-13.58V30.52A15,15,0,0,0,239,16.93Z"/><path class="cls-1" d="M238.86,16.83A15,15,0,0,0,225.19,8H102.53a15,15,0,0,0-13.76,9,15,15,0,0,0-8.61,13.57v33a14.82,14.82,0,0,0-5.47,2.58l-.25.19c-.42.31-.88.66-1.38,1.09-2.56,2.18-4.78,3.38-6.25,3.38-.85,0-2.79-.43-6.25-3.28a34.14,34.14,0,0,1-2.66-2.67c-1.08-1.15-2.29-2.45-3.73-3.78A15,15,0,0,0,29,70.7a18.7,18.7,0,0,0,.61,6.78c1.22,4.6,2.32,9.48,2.06,14.1-.69.17-1.77.31-3,.48-1.62.21-3.63.48-5.87,1a15,15,0,0,0-6.16,26.43c.89.71,1.57,1.29,2.1,1.77a15,15,0,0,0,8.69,27.28h.17c.93,0,1.69,0,2.31.09a15,15,0,0,0,18.34,10.89c0,5.65,2.71,11.08,8,15.18l7.62,5.93C80,193.09,96.63,206,113.07,218.75A28.46,28.46,0,0,0,130.52,225c8.44,0,16.17-3.93,21.77-11.06,6.33-8.06,13.15-16.89,20.88-27a31,31,0,0,0,2.85-4.47h49.2a15,15,0,0,0,13.67-8.82A15,15,0,0,0,247.53,160V30.43A15,15,0,0,0,238.86,16.83Z"/><path class="cls-1" d="M238.71,16.73a15,15,0,0,0-13.66-8.81H102.38a15,15,0,0,0-13.76,9A15,15,0,0,0,80,30.53v33a14.82,14.82,0,0,0-5.47,2.58l-.25.19c-.42.31-.88.66-1.38,1.09-2.56,2.18-4.78,3.38-6.25,3.38-.85,0-2.79-.43-6.25-3.28a34.14,34.14,0,0,1-2.66-2.67c-1.08-1.15-2.29-2.45-3.73-3.78A15,15,0,0,0,28.9,70.6a18.7,18.7,0,0,0,.61,6.78c1.22,4.6,2.32,9.48,2.06,14.1-.69.17-1.77.31-3,.48-1.62.21-3.63.48-5.87,1a15,15,0,0,0-6.16,26.43c.89.71,1.57,1.29,2.1,1.77a15,15,0,0,0,8.69,27.28h.17c.93,0,1.69,0,2.31.09a15,15,0,0,0,18.34,10.89c0,5.65,2.71,11.08,8,15.18l7.62,5.93c16.11,12.53,32.78,25.49,49.21,38.19a28.46,28.46,0,0,0,17.45,6.21c8.44,0,16.17-3.93,21.77-11.06,6.33-8.06,13.15-16.89,20.88-27a31,31,0,0,0,2.85-4.47h49.2a15,15,0,0,0,13.67-8.82,15,15,0,0,0,8.64-13.58V30.33A15,15,0,0,0,238.71,16.73Z"/><path class="cls-1" d="M238.57,16.63a15,15,0,0,0-13.66-8.81H102.24a15,15,0,0,0-13.76,9,15,15,0,0,0-8.61,13.57v33A14.82,14.82,0,0,0,74.39,66l-.25.19c-.42.31-.88.66-1.38,1.09-2.56,2.18-4.78,3.38-6.25,3.38-.85,0-2.79-.43-6.25-3.28a34.14,34.14,0,0,1-2.66-2.67c-1.08-1.15-2.29-2.45-3.73-3.78A15,15,0,0,0,28.76,70.5a18.7,18.7,0,0,0,.61,6.78c1.22,4.6,2.32,9.48,2.06,14.1-.69.17-1.77.31-3,.48-1.62.21-3.63.48-5.87,1a15,15,0,0,0-6.16,26.43c.89.71,1.57,1.29,2.1,1.77a15,15,0,0,0,8.69,27.28h.17c.93,0,1.69,0,2.31.09A15,15,0,0,0,48,159.26c0,5.65,2.71,11.08,8,15.18l7.62,5.93c16.11,12.53,32.78,25.49,49.21,38.19a28.46,28.46,0,0,0,17.45,6.21c8.44,0,16.17-3.93,21.77-11.06,6.33-8.06,13.15-16.89,20.88-27a31,31,0,0,0,2.85-4.47h49.2a15,15,0,0,0,13.67-8.82,15,15,0,0,0,8.64-13.58V30.23A15,15,0,0,0,238.57,16.63Z"/><path class="cls-1" d="M238.43,16.53a15,15,0,0,0-13.66-8.81H102.1a15,15,0,0,0-13.76,9,15,15,0,0,0-8.61,13.57v33a14.82,14.82,0,0,0-5.47,2.58l-.25.19c-.42.31-.88.66-1.38,1.09-2.56,2.18-4.78,3.38-6.25,3.38-.85,0-2.79-.43-6.25-3.28a34.14,34.14,0,0,1-2.66-2.67c-1.08-1.15-2.29-2.45-3.73-3.78A15,15,0,0,0,28.62,70.4a18.7,18.7,0,0,0,.61,6.78c1.22,4.6,2.32,9.48,2.06,14.1-.69.17-1.77.31-3,.48-1.62.21-3.63.48-5.87,1a15,15,0,0,0-6.16,26.43c.89.71,1.57,1.29,2.1,1.77A15,15,0,0,0,27,148.19h.17c.93,0,1.69,0,2.31.09a15,15,0,0,0,18.34,10.89c0,5.65,2.71,11.08,8,15.18l7.62,5.93c16.11,12.53,32.78,25.49,49.21,38.19a28.46,28.46,0,0,0,17.45,6.21c8.44,0,16.17-3.93,21.77-11.06,6.33-8.06,13.15-16.89,20.88-27a31,31,0,0,0,2.85-4.47h49.2a15,15,0,0,0,13.67-8.82,15,15,0,0,0,8.64-13.58V30.13A15,15,0,0,0,238.43,16.53Z"/><path class="cls-1" d="M238.29,16.43a15,15,0,0,0-13.66-8.81H102a15,15,0,0,0-13.76,9,15,15,0,0,0-8.61,13.57v33a14.82,14.82,0,0,0-5.47,2.58l-.25.19c-.42.31-.88.66-1.38,1.09-2.56,2.18-4.78,3.38-6.25,3.38-.85,0-2.79-.43-6.25-3.28a34.14,34.14,0,0,1-2.66-2.67c-1.08-1.15-2.29-2.45-3.73-3.78A15,15,0,0,0,28.48,70.3a18.7,18.7,0,0,0,.61,6.78c1.22,4.6,2.32,9.48,2.06,14.1-.69.17-1.77.31-3,.48-1.62.21-3.63.48-5.87,1A15,15,0,0,0,16.08,119c.89.71,1.57,1.29,2.1,1.77a15,15,0,0,0,8.69,27.28H27c.93,0,1.69,0,2.31.09a15,15,0,0,0,18.34,10.89c0,5.65,2.71,11.08,8,15.18l7.62,5.93c16.11,12.53,32.78,25.49,49.21,38.19A28.46,28.46,0,0,0,130,224.57c8.44,0,16.17-3.93,21.77-11.06,6.33-8.06,13.15-16.89,20.88-27a31,31,0,0,0,2.85-4.47h49.2a15,15,0,0,0,13.67-8.82A15,15,0,0,0,247,159.65V30A15,15,0,0,0,238.29,16.43Z"/><path class="cls-1" d="M238.14,16.33a15,15,0,0,0-13.66-8.81H101.81a15,15,0,0,0-13.76,9,15,15,0,0,0-8.61,13.57v33A14.82,14.82,0,0,0,74,65.73l-.25.19c-.42.31-.88.66-1.38,1.09-2.56,2.18-4.78,3.38-6.25,3.38-.85,0-2.79-.43-6.25-3.28a34.14,34.14,0,0,1-2.66-2.67c-1.08-1.15-2.29-2.45-3.73-3.78A15,15,0,0,0,28.33,70.2,18.7,18.7,0,0,0,28.94,77c1.22,4.6,2.32,9.48,2.06,14.1-.69.17-1.77.31-3,.48-1.62.21-3.63.48-5.87,1a15,15,0,0,0-6.16,26.43c.89.71,1.57,1.29,2.1,1.77A15,15,0,0,0,26.73,148h.17c.93,0,1.69,0,2.31.09A15,15,0,0,0,47.55,159c0,5.65,2.71,11.08,8,15.18l7.62,5.93c16.11,12.53,32.78,25.49,49.21,38.19a28.46,28.46,0,0,0,17.45,6.21c8.44,0,16.17-3.93,21.77-11.06,6.33-8.06,13.15-16.89,20.88-27a31,31,0,0,0,2.85-4.47h49.2a15,15,0,0,0,13.67-8.82,15,15,0,0,0,8.64-13.58V29.93A15,15,0,0,0,238.14,16.33Z"/><path class="cls-1" d="M238,16.24a15,15,0,0,0-13.66-8.81H101.67a15,15,0,0,0-13.76,9A15,15,0,0,0,79.3,30V63a14.82,14.82,0,0,0-5.47,2.58l-.25.19c-.42.31-.88.66-1.38,1.09-2.56,2.18-4.78,3.38-6.25,3.38-.85,0-2.79-.43-6.25-3.28A34.14,34.14,0,0,1,57,64.34c-1.08-1.15-2.29-2.45-3.73-3.78a15,15,0,0,0-25.12,9.55,18.7,18.7,0,0,0,.61,6.78c1.22,4.6,2.32,9.48,2.06,14.1-.69.17-1.77.31-3,.48-1.62.21-3.63.48-5.87,1a15,15,0,0,0-6.16,26.43c.89.71,1.57,1.29,2.1,1.77a15,15,0,0,0,8.69,27.28h.17c.93,0,1.69,0,2.31.09a15,15,0,0,0,18.34,10.89c0,5.65,2.71,11.08,8,15.18L63,180c16.11,12.53,32.78,25.49,49.21,38.19a28.46,28.46,0,0,0,17.45,6.21c8.44,0,16.17-3.93,21.77-11.06,6.33-8.06,13.15-16.89,20.88-27a31,31,0,0,0,2.85-4.47h49.2A15,15,0,0,0,238,173a15,15,0,0,0,8.64-13.58V29.83A15,15,0,0,0,238,16.24Z"/><path class="cls-1" d="M237.86,16.14A15,15,0,0,0,224.2,7.33H101.53a15,15,0,0,0-13.76,9,15,15,0,0,0-8.61,13.57v33a14.82,14.82,0,0,0-5.47,2.58l-.25.19c-.42.31-.88.66-1.38,1.09-2.56,2.18-4.78,3.38-6.25,3.38-.85,0-2.79-.43-6.25-3.28a34.14,34.14,0,0,1-2.66-2.67c-1.08-1.15-2.29-2.45-3.73-3.78A15,15,0,0,0,28,70a18.7,18.7,0,0,0,.61,6.78c1.22,4.6,2.32,9.48,2.06,14.1-.69.17-1.77.31-3,.48-1.62.21-3.63.48-5.87,1a15,15,0,0,0-6.16,26.43c.89.71,1.57,1.29,2.1,1.77a15,15,0,0,0,8.69,27.28h.17c.93,0,1.69,0,2.31.09a15,15,0,0,0,18.34,10.89c0,5.65,2.71,11.08,8,15.18l7.62,5.93C79,192.4,95.64,205.36,112.08,218.06a28.46,28.46,0,0,0,17.45,6.21c8.44,0,16.17-3.93,21.77-11.06,6.33-8.06,13.15-16.89,20.88-27a31,31,0,0,0,2.85-4.47h49.2a15,15,0,0,0,13.67-8.82,15,15,0,0,0,8.64-13.58V29.73A15,15,0,0,0,237.86,16.14Z"/><path class="cls-1" d="M237.72,16a15,15,0,0,0-13.66-8.81H101.39a15,15,0,0,0-13.76,9A15,15,0,0,0,79,29.84v33a14.82,14.82,0,0,0-5.47,2.58l-.25.19c-.42.31-.88.66-1.38,1.09-2.56,2.18-4.78,3.38-6.25,3.38-.85,0-2.79-.43-6.25-3.28a34.14,34.14,0,0,1-2.66-2.67C55.68,63,54.46,61.69,53,60.36a15,15,0,0,0-25.12,9.55,18.7,18.7,0,0,0,.61,6.78c1.22,4.6,2.32,9.48,2.06,14.1-.69.17-1.77.31-3,.48-1.62.21-3.63.48-5.87,1a15,15,0,0,0-6.16,26.43c.89.71,1.57,1.29,2.1,1.77a15,15,0,0,0,8.69,27.28h.17c.93,0,1.69,0,2.31.09a15,15,0,0,0,18.34,10.89c0,5.65,2.71,11.08,8,15.18l7.62,5.93C78.83,192.3,95.5,205.26,111.93,218a28.46,28.46,0,0,0,17.45,6.21c8.44,0,16.17-3.93,21.77-11.06,6.33-8.06,13.15-16.89,20.88-27a31,31,0,0,0,2.85-4.47h49.2a15,15,0,0,0,13.67-8.82,15,15,0,0,0,8.64-13.58V29.64A15,15,0,0,0,237.72,16Z"/><path class="cls-1" d="M237.58,15.94a15,15,0,0,0-13.66-8.81H101.25a15,15,0,0,0-13.76,9,15,15,0,0,0-8.61,13.57v33a14.82,14.82,0,0,0-5.47,2.58l-.25.19c-.42.31-.88.66-1.38,1.09C69.21,68.79,67,70,65.52,70c-.85,0-2.79-.43-6.25-3.28A34.14,34.14,0,0,1,56.61,64c-1.08-1.15-2.29-2.45-3.73-3.78a15,15,0,0,0-25.12,9.55,18.7,18.7,0,0,0,.61,6.78c1.22,4.6,2.32,9.48,2.06,14.1-.69.17-1.77.31-3,.48-1.62.21-3.63.48-5.87,1a15,15,0,0,0-6.16,26.43c.89.71,1.57,1.29,2.1,1.77a15,15,0,0,0,8.69,27.28h.17c.93,0,1.69,0,2.31.09A15,15,0,0,0,47,158.57c0,5.65,2.71,11.08,8,15.18l7.62,5.93c16.11,12.53,32.78,25.49,49.21,38.19a28.46,28.46,0,0,0,17.45,6.21c8.44,0,16.17-3.93,21.77-11.06,6.33-8.06,13.15-16.89,20.88-27a31,31,0,0,0,2.85-4.47h49.2a15,15,0,0,0,13.67-8.82,15,15,0,0,0,8.64-13.58V29.54A15,15,0,0,0,237.58,15.94Z"/><path class="cls-1" d="M237.43,15.84A15,15,0,0,0,223.77,7H101.1a15,15,0,0,0-13.76,9,15,15,0,0,0-8.61,13.57v33a14.82,14.82,0,0,0-5.47,2.58l-.25.19c-.42.31-.88.66-1.38,1.09-2.56,2.18-4.78,3.38-6.25,3.38-.85,0-2.79-.43-6.25-3.28a34.14,34.14,0,0,1-2.66-2.67c-1.08-1.15-2.29-2.45-3.73-3.78a15,15,0,0,0-25.12,9.55,18.7,18.7,0,0,0,.61,6.78c1.22,4.6,2.32,9.48,2.06,14.1-.69.17-1.77.31-3,.48-1.62.21-3.63.48-5.87,1a15,15,0,0,0-6.16,26.43c.89.71,1.57,1.29,2.1,1.77A15,15,0,0,0,26,147.49h.17c.93,0,1.69,0,2.31.09a15,15,0,0,0,18.34,10.89c0,5.65,2.71,11.08,8,15.18l7.62,5.93c16.11,12.53,32.78,25.49,49.21,38.19A28.46,28.46,0,0,0,129.1,224c8.44,0,16.17-3.93,21.77-11.06,6.33-8.06,13.15-16.89,20.88-27a31,31,0,0,0,2.85-4.47h49.2a15,15,0,0,0,13.67-8.82,15,15,0,0,0,8.64-13.58V29.44A15,15,0,0,0,237.43,15.84Z"/><path class="cls-1" d="M237.29,15.74a15,15,0,0,0-13.66-8.81H101A15,15,0,0,0,87.2,16a15,15,0,0,0-8.61,13.57v33a14.82,14.82,0,0,0-5.47,2.58l-.25.19c-.42.31-.88.66-1.38,1.09-2.56,2.18-4.78,3.38-6.25,3.38-.85,0-2.79-.43-6.25-3.28a34.14,34.14,0,0,1-2.66-2.67c-1.08-1.15-2.29-2.45-3.73-3.78a15,15,0,0,0-25.12,9.55,18.7,18.7,0,0,0,.61,6.78c1.22,4.6,2.32,9.48,2.06,14.1-.69.17-1.77.31-3,.48-1.62.21-3.63.48-5.87,1a15,15,0,0,0-6.16,26.43c.89.71,1.57,1.29,2.1,1.77a15,15,0,0,0,8.69,27.28H26c.93,0,1.69,0,2.31.09A15,15,0,0,0,46.7,158.37c0,5.65,2.71,11.08,8,15.18l7.62,5.93C78.41,192,95.07,205,111.51,217.67A28.46,28.46,0,0,0,129,223.88c8.44,0,16.17-3.93,21.77-11.06,6.33-8.06,13.15-16.89,20.88-27a31,31,0,0,0,2.85-4.47h49.2a15,15,0,0,0,13.67-8.82A15,15,0,0,0,246,159V29.34A15,15,0,0,0,237.29,15.74Z"/><path class="cls-1" d="M237.15,15.64a15,15,0,0,0-13.66-8.81H100.82a15,15,0,0,0-13.76,9,15,15,0,0,0-8.61,13.57v33A14.82,14.82,0,0,0,73,65l-.25.19c-.42.31-.88.66-1.38,1.09-2.56,2.18-4.78,3.38-6.25,3.38-.85,0-2.79-.43-6.25-3.28a34.14,34.14,0,0,1-2.66-2.67c-1.08-1.15-2.29-2.45-3.73-3.78a15,15,0,0,0-25.12,9.55,18.7,18.7,0,0,0,.61,6.78c1.22,4.6,2.32,9.48,2.06,14.1-.69.17-1.77.31-3,.48-1.62.21-3.63.48-5.87,1a15,15,0,0,0-6.16,26.43c.89.71,1.57,1.29,2.1,1.77a15,15,0,0,0,8.69,27.28h.17c.93,0,1.69,0,2.31.09a15,15,0,0,0,18.34,10.89c0,5.65,2.71,11.08,8,15.18l7.62,5.93c16.11,12.53,32.78,25.49,49.21,38.19a28.46,28.46,0,0,0,17.45,6.21c8.44,0,16.17-3.93,21.77-11.06,6.33-8.06,13.15-16.89,20.88-27a31,31,0,0,0,2.85-4.47h49.2a15,15,0,0,0,13.67-8.82,15,15,0,0,0,8.64-13.58V29.24A15,15,0,0,0,237.15,15.64Z"/><path class="cls-1" d="M237,15.54a15,15,0,0,0-13.66-8.81H100.68a15,15,0,0,0-13.76,9,15,15,0,0,0-8.61,13.57v33a14.82,14.82,0,0,0-5.47,2.58l-.25.19c-.42.31-.88.66-1.38,1.09C68.64,68.4,66.42,69.6,65,69.6c-.85,0-2.79-.43-6.25-3.28A34.14,34.14,0,0,1,56,63.65c-1.08-1.15-2.29-2.45-3.73-3.78A15,15,0,0,0,27.2,69.41a18.7,18.7,0,0,0,.61,6.78c1.22,4.6,2.32,9.48,2.06,14.1-.69.17-1.77.31-3,.48-1.62.21-3.63.48-5.87,1a15,15,0,0,0-6.16,26.43c.89.71,1.57,1.29,2.1,1.77a15,15,0,0,0,8.69,27.28h.17c.93,0,1.69,0,2.31.09a15,15,0,0,0,18.34,10.89c0,5.65,2.71,11.08,8,15.18L62,179.28c16.11,12.53,32.78,25.49,49.21,38.19a28.46,28.46,0,0,0,17.45,6.21c8.44,0,16.17-3.93,21.77-11.06,6.33-8.06,13.15-16.89,20.88-27a31,31,0,0,0,2.85-4.47h49.2A15,15,0,0,0,237,172.34a15,15,0,0,0,8.64-13.58V29.14A15,15,0,0,0,237,15.54Z"/><path class="cls-1" d="M236.87,15.45a15,15,0,0,0-13.66-8.81H100.54a15,15,0,0,0-13.76,9,15,15,0,0,0-8.61,13.57v33a14.82,14.82,0,0,0-5.47,2.58l-.25.19c-.42.31-.88.66-1.38,1.09-2.56,2.18-4.78,3.38-6.25,3.38-.85,0-2.79-.43-6.25-3.28a34.14,34.14,0,0,1-2.66-2.67c-1.08-1.15-2.29-2.45-3.73-3.78a15,15,0,0,0-25.12,9.55,18.7,18.7,0,0,0,.61,6.78c1.22,4.6,2.32,9.48,2.06,14.1-.69.17-1.77.31-3,.48-1.62.21-3.63.48-5.87,1a15,15,0,0,0-6.16,26.43c.89.71,1.57,1.29,2.1,1.77a15,15,0,0,0,8.69,27.28h.17c.93,0,1.69,0,2.31.09a15,15,0,0,0,18.34,10.89c0,5.65,2.71,11.08,8,15.18l7.62,5.93c16.11,12.53,32.78,25.49,49.21,38.19a28.46,28.46,0,0,0,17.45,6.21c8.44,0,16.17-3.93,21.77-11.06,6.33-8.06,13.15-16.89,20.88-27a31,31,0,0,0,2.85-4.47h49.2a15,15,0,0,0,13.67-8.82,15,15,0,0,0,8.64-13.58V29A15,15,0,0,0,236.87,15.45Z"/><path class="cls-1" d="M236.72,15.35a15,15,0,0,0-13.66-8.81H100.39a15,15,0,0,0-13.76,9A15,15,0,0,0,78,29.15v33a14.82,14.82,0,0,0-5.47,2.58l-.25.19c-.42.31-.88.66-1.38,1.09-2.56,2.18-4.78,3.38-6.25,3.38-.85,0-2.79-.43-6.25-3.28a34.14,34.14,0,0,1-2.66-2.67C54.69,62.3,53.47,61,52,59.67a15,15,0,0,0-25.12,9.55A18.7,18.7,0,0,0,27.52,76c1.22,4.6,2.32,9.48,2.06,14.1-.69.17-1.77.31-3,.48-1.62.21-3.63.48-5.87,1A15,15,0,0,0,14.52,118c.89.71,1.57,1.29,2.1,1.77A15,15,0,0,0,25.31,147h.17c.93,0,1.69,0,2.31.09A15,15,0,0,0,46.13,158c0,5.65,2.71,11.08,8,15.18l7.62,5.93c16.11,12.53,32.78,25.49,49.21,38.19a28.46,28.46,0,0,0,17.45,6.21c8.44,0,16.17-3.93,21.77-11.06,6.33-8.06,13.15-16.89,20.88-27a31,31,0,0,0,2.85-4.47h49.2a15,15,0,0,0,13.67-8.82,15,15,0,0,0,8.64-13.58V28.94A15,15,0,0,0,236.72,15.35Z"/><path class="cls-1" d="M236.58,15.25a15,15,0,0,0-13.66-8.81H100.25a15,15,0,0,0-13.76,9A15,15,0,0,0,77.88,29v33a14.82,14.82,0,0,0-5.47,2.58l-.25.19c-.42.31-.88.66-1.38,1.09C68.21,68.1,66,69.3,64.53,69.3c-.85,0-2.79-.43-6.25-3.28a34.14,34.14,0,0,1-2.66-2.67c-1.08-1.15-2.29-2.45-3.73-3.78a15,15,0,0,0-25.12,9.55,18.7,18.7,0,0,0,.61,6.78c1.22,4.6,2.32,9.48,2.06,14.1-.69.17-1.77.31-3,.48-1.62.21-3.63.48-5.87,1a15,15,0,0,0-6.16,26.43c.89.71,1.57,1.29,2.1,1.77a15,15,0,0,0,8.69,27.28h.17c.93,0,1.69,0,2.31.09A15,15,0,0,0,46,157.88c0,5.65,2.71,11.08,8,15.18L61.58,179c16.11,12.53,32.78,25.49,49.21,38.19a28.46,28.46,0,0,0,17.45,6.21c8.44,0,16.17-3.93,21.77-11.06,6.33-8.06,13.15-16.89,20.88-27a31,31,0,0,0,2.85-4.47h49.2A15,15,0,0,0,236.61,172a15,15,0,0,0,8.64-13.58V28.85A15,15,0,0,0,236.58,15.25Z"/><path class="cls-1" d="M236.44,15.15a15,15,0,0,0-13.66-8.81H100.11a15,15,0,0,0-13.76,9,15,15,0,0,0-8.61,13.57V62a14.82,14.82,0,0,0-5.47,2.58l-.25.19c-.42.31-.88.66-1.38,1.09C68.07,68,65.85,69.2,64.38,69.2c-.85,0-2.79-.43-6.25-3.28a34.14,34.14,0,0,1-2.66-2.67c-1.08-1.15-2.29-2.45-3.73-3.78A15,15,0,0,0,26.63,69a18.7,18.7,0,0,0,.61,6.78c1.22,4.6,2.32,9.48,2.06,14.1-.69.17-1.77.31-3,.48-1.62.21-3.63.48-5.87,1a15,15,0,0,0-6.16,26.43c.89.71,1.57,1.29,2.1,1.77A15,15,0,0,0,25,146.8h.17c.93,0,1.69,0,2.31.09a15,15,0,0,0,18.34,10.89c0,5.65,2.71,11.08,8,15.18l7.62,5.93c16.11,12.53,32.78,25.49,49.21,38.19a28.46,28.46,0,0,0,17.45,6.21c8.44,0,16.17-3.93,21.77-11.06,6.33-8.06,13.15-16.89,20.88-27a31,31,0,0,0,2.85-4.47h49.2a15,15,0,0,0,13.67-8.82,15,15,0,0,0,8.64-13.58V28.75A15,15,0,0,0,236.44,15.15Z"/><path class="cls-1" d="M236.3,15.05a15,15,0,0,0-13.66-8.81H100a15,15,0,0,0-13.76,9A15,15,0,0,0,77.6,28.85v33a14.82,14.82,0,0,0-5.47,2.58l-.25.19c-.42.31-.88.66-1.38,1.09-2.56,2.18-4.78,3.38-6.25,3.38-.85,0-2.79-.43-6.25-3.28a34.14,34.14,0,0,1-2.66-2.67C54.26,62,53,60.7,51.61,59.37a15,15,0,0,0-25.12,9.55,18.7,18.7,0,0,0,.61,6.78c1.22,4.6,2.32,9.48,2.06,14.1-.69.17-1.77.31-3,.48-1.62.21-3.63.48-5.87,1a15,15,0,0,0-6.16,26.43c.89.71,1.57,1.29,2.1,1.77a15,15,0,0,0,8.69,27.28H25c.93,0,1.69,0,2.31.09A15,15,0,0,0,45.7,157.68c0,5.65,2.71,11.08,8,15.18l7.62,5.93c16.11,12.53,32.78,25.49,49.21,38.19A28.46,28.46,0,0,0,128,223.19c8.44,0,16.17-3.93,21.77-11.06,6.33-8.06,13.15-16.89,20.88-27a31,31,0,0,0,2.85-4.47h49.2a15,15,0,0,0,13.67-8.82A15,15,0,0,0,245,158.27V28.65A15,15,0,0,0,236.3,15.05Z"/><path class="cls-1" d="M236.16,15A15,15,0,0,0,222.5,6.14H99.83a15,15,0,0,0-13.76,9,15,15,0,0,0-8.61,13.57v33A14.82,14.82,0,0,0,72,64.35l-.25.19c-.42.31-.88.66-1.38,1.09C67.79,67.8,65.57,69,64.1,69c-.85,0-2.79-.43-6.25-3.28a34.14,34.14,0,0,1-2.66-2.67c-1.08-1.15-2.29-2.45-3.73-3.78a15,15,0,0,0-25.12,9.55A18.7,18.7,0,0,0,27,75.6c1.22,4.6,2.32,9.48,2.06,14.1-.69.17-1.77.31-3,.48-1.62.21-3.63.48-5.87,1A15,15,0,0,0,14,117.56c.89.71,1.57,1.29,2.1,1.77a15,15,0,0,0,8.69,27.28h.17c.93,0,1.69,0,2.31.09a15,15,0,0,0,18.34,10.89c0,5.65,2.71,11.08,8,15.18l7.62,5.93c16.11,12.53,32.78,25.49,49.21,38.19a28.46,28.46,0,0,0,17.45,6.21c8.44,0,16.17-3.93,21.77-11.06,6.33-8.06,13.15-16.89,20.88-27a31,31,0,0,0,2.85-4.47h49.2a15,15,0,0,0,13.67-8.82,15,15,0,0,0,8.64-13.58V28.55A15,15,0,0,0,236.16,15Z"/><path class="cls-1" d="M236,14.85A15,15,0,0,0,222.35,6H99.68a15,15,0,0,0-13.76,9,15,15,0,0,0-8.61,13.57v33a14.82,14.82,0,0,0-5.47,2.58l-.25.19c-.42.31-.88.66-1.38,1.09-2.56,2.18-4.78,3.38-6.25,3.38-.85,0-2.79-.43-6.25-3.28A34.14,34.14,0,0,1,55.05,63c-1.08-1.15-2.29-2.45-3.73-3.78A15,15,0,0,0,26.2,68.72a18.7,18.7,0,0,0,.61,6.78C28,80.1,29.13,85,28.87,89.6c-.69.17-1.77.31-3,.48-1.62.21-3.63.48-5.87,1a15,15,0,0,0-6.16,26.43c.89.71,1.57,1.29,2.1,1.77a15,15,0,0,0,8.69,27.28h.17c.93,0,1.69,0,2.31.09a15,15,0,0,0,18.34,10.89c0,5.65,2.71,11.08,8,15.18L61,178.59c16.11,12.53,32.78,25.49,49.21,38.19A28.46,28.46,0,0,0,127.68,223c8.44,0,16.17-3.93,21.77-11.06,6.33-8.06,13.15-16.89,20.88-27a31,31,0,0,0,2.85-4.47h49.2A15,15,0,0,0,236,171.65a15,15,0,0,0,8.64-13.58V28.45A15,15,0,0,0,236,14.85Z"/><path class="cls-1" d="M235.87,14.75a15,15,0,0,0-13.66-8.81H99.54a15,15,0,0,0-13.76,9,15,15,0,0,0-8.61,13.57v33a14.82,14.82,0,0,0-5.47,2.58l-.25.19c-.42.31-.88.66-1.38,1.09-2.56,2.18-4.78,3.38-6.25,3.38-.85,0-2.79-.43-6.25-3.28a34.14,34.14,0,0,1-2.66-2.67c-1.08-1.15-2.29-2.45-3.73-3.78a15,15,0,0,0-25.12,9.55,18.7,18.7,0,0,0,.61,6.78C27.89,80,29,84.89,28.73,89.5c-.69.17-1.77.31-3,.48-1.62.21-3.63.48-5.87,1a15,15,0,0,0-6.16,26.43c.89.71,1.57,1.29,2.1,1.77a15,15,0,0,0,8.69,27.28h.17c.93,0,1.69,0,2.31.09a15,15,0,0,0,18.34,10.89c0,5.65,2.71,11.08,8,15.18l7.62,5.93C77,191,93.65,204,110.09,216.68a28.46,28.46,0,0,0,17.45,6.21c8.44,0,16.17-3.93,21.77-11.06,6.33-8.06,13.15-16.89,20.88-27a31,31,0,0,0,2.85-4.47h49.2a15,15,0,0,0,13.67-8.82A15,15,0,0,0,244.54,158V28.35A15,15,0,0,0,235.87,14.75Z"/><path class="cls-1" d="M235.73,14.66a15,15,0,0,0-13.66-8.81H99.4a15,15,0,0,0-13.76,9A15,15,0,0,0,77,28.46v33A14.82,14.82,0,0,0,71.55,64l-.25.19c-.42.31-.88.66-1.38,1.09-2.56,2.18-4.78,3.38-6.25,3.38-.85,0-2.79-.43-6.25-3.28a34.14,34.14,0,0,1-2.66-2.67C53.69,61.61,52.47,60.3,51,59a15,15,0,0,0-25.12,9.55,18.7,18.7,0,0,0,.61,6.78c1.22,4.6,2.32,9.48,2.06,14.1-.69.17-1.77.31-3,.48-1.62.21-3.63.48-5.87,1a15,15,0,0,0-6.16,26.43c.89.71,1.57,1.29,2.1,1.77a15,15,0,0,0,8.69,27.28h.17c.93,0,1.69,0,2.31.09a15,15,0,0,0,18.34,10.89c0,5.65,2.71,11.08,8,15.18l7.62,5.93c16.11,12.53,32.78,25.49,49.21,38.19a28.46,28.46,0,0,0,17.45,6.21c8.44,0,16.17-3.93,21.77-11.06,6.33-8.06,13.15-16.89,20.88-27a31,31,0,0,0,2.85-4.47h49.2a15,15,0,0,0,13.67-8.82,15,15,0,0,0,8.64-13.58V28.25A15,15,0,0,0,235.73,14.66Z"/><path class="cls-1" d="M235.59,14.56a15,15,0,0,0-13.66-8.81H99.26a15,15,0,0,0-13.76,9,15,15,0,0,0-8.61,13.57v33A14.82,14.82,0,0,0,71.41,64l-.25.19c-.42.31-.88.66-1.38,1.09-2.56,2.18-4.78,3.38-6.25,3.38-.85,0-2.79-.43-6.25-3.28a34.14,34.14,0,0,1-2.66-2.67c-1.08-1.15-2.29-2.45-3.73-3.78a15,15,0,0,0-25.12,9.55,18.7,18.7,0,0,0,.61,6.78c1.22,4.6,2.32,9.48,2.06,14.1-.69.17-1.77.31-3,.48-1.62.21-3.63.48-5.87,1a15,15,0,0,0-6.16,26.43c.89.71,1.57,1.29,2.1,1.77a15,15,0,0,0,8.69,27.28h.17c.93,0,1.69,0,2.31.09A15,15,0,0,0,45,157.19c0,5.65,2.71,11.08,8,15.18l7.62,5.93c16.11,12.53,32.78,25.49,49.21,38.19a28.46,28.46,0,0,0,17.45,6.21c8.44,0,16.17-3.93,21.77-11.06,6.33-8.06,13.15-16.89,20.88-27a31,31,0,0,0,2.85-4.47H222a15,15,0,0,0,13.67-8.82,15,15,0,0,0,8.64-13.58V28.15A15,15,0,0,0,235.59,14.56Z"/><path class="cls-1" d="M235.45,14.46a15,15,0,0,0-13.66-8.81H99.12a15,15,0,0,0-13.76,9,15,15,0,0,0-8.61,13.57v33a14.82,14.82,0,0,0-5.47,2.58L71,64c-.42.31-.88.66-1.38,1.09-2.56,2.18-4.78,3.38-6.25,3.38-.85,0-2.79-.43-6.25-3.28a34.14,34.14,0,0,1-2.66-2.67c-1.08-1.15-2.29-2.45-3.73-3.78a15,15,0,0,0-25.12,9.55,18.7,18.7,0,0,0,.61,6.78c1.22,4.6,2.32,9.48,2.06,14.1-.69.17-1.77.31-3,.48-1.62.21-3.63.48-5.87,1a15,15,0,0,0-6.16,26.43c.89.71,1.57,1.29,2.1,1.77A15,15,0,0,0,24,146.11h.17c.93,0,1.69,0,2.31.09a15,15,0,0,0,18.34,10.89c0,5.65,2.71,11.08,8,15.18l7.62,5.93c16.11,12.53,32.78,25.49,49.21,38.19a28.46,28.46,0,0,0,17.45,6.21c8.44,0,16.17-3.93,21.77-11.06,6.33-8.06,13.15-16.89,20.88-27a31,31,0,0,0,2.85-4.47h49.2a15,15,0,0,0,13.67-8.82,15,15,0,0,0,8.64-13.58V28.06A15,15,0,0,0,235.45,14.46Z"/><path class="cls-1" d="M235.3,14.36a15,15,0,0,0-13.66-8.81H99a15,15,0,0,0-13.76,9A15,15,0,0,0,76.6,28.16v33a14.82,14.82,0,0,0-5.47,2.58l-.25.19c-.42.31-.88.66-1.38,1.09-2.56,2.18-4.78,3.38-6.25,3.38-.85,0-2.79-.43-6.25-3.28a34.14,34.14,0,0,1-2.66-2.67C53.27,61.31,52,60,50.61,58.68a15,15,0,0,0-25.12,9.55A18.7,18.7,0,0,0,26.1,75c1.22,4.6,2.32,9.48,2.06,14.1-.69.17-1.77.31-3,.48-1.62.21-3.63.48-5.87,1A15,15,0,0,0,13.1,117c.89.71,1.57,1.29,2.1,1.77A15,15,0,0,0,23.89,146h.17c.93,0,1.69,0,2.31.09A15,15,0,0,0,44.71,157c0,5.65,2.71,11.08,8,15.18l7.62,5.93c16.11,12.53,32.78,25.49,49.21,38.19A28.46,28.46,0,0,0,127,222.5c8.44,0,16.17-3.93,21.77-11.06,6.33-8.06,13.15-16.89,20.88-27a31,31,0,0,0,2.85-4.47h49.2a15,15,0,0,0,13.67-8.82A15,15,0,0,0,244,157.58V28A15,15,0,0,0,235.3,14.36Z"/><path class="cls-1" d="M235.16,14.26A15,15,0,0,0,221.5,5.45H98.83a15,15,0,0,0-13.76,9,15,15,0,0,0-8.61,13.57v33A14.82,14.82,0,0,0,71,63.66l-.25.19c-.42.31-.88.66-1.38,1.09-2.56,2.18-4.78,3.38-6.25,3.38-.85,0-2.79-.43-6.25-3.28a34.14,34.14,0,0,1-2.66-2.67c-1.08-1.15-2.29-2.45-3.73-3.78a15,15,0,0,0-25.12,9.55A18.7,18.7,0,0,0,26,74.91c1.22,4.6,2.32,9.48,2.06,14.1-.69.17-1.77.31-3,.48-1.62.21-3.63.48-5.87,1A15,15,0,0,0,13,116.87c.89.71,1.57,1.29,2.1,1.77a15,15,0,0,0,8.69,27.28h.17c.93,0,1.69,0,2.31.09a15,15,0,0,0,18.34,10.89c0,5.65,2.71,11.08,8,15.18L60.16,178c16.11,12.53,32.78,25.49,49.21,38.19a28.46,28.46,0,0,0,17.45,6.21c8.44,0,16.17-3.93,21.77-11.06,6.33-8.06,13.15-16.89,20.88-27a31,31,0,0,0,2.85-4.47h49.2a15,15,0,0,0,13.67-8.82,15,15,0,0,0,8.64-13.58V27.86A15,15,0,0,0,235.16,14.26Z"/><path class="cls-1" d="M235,14.16a15,15,0,0,0-13.66-8.81H98.69a15,15,0,0,0-13.76,9A15,15,0,0,0,76.32,28V61a14.82,14.82,0,0,0-5.47,2.58l-.25.19c-.42.31-.88.66-1.38,1.09C66.65,67,64.43,68.22,63,68.22c-.85,0-2.79-.43-6.25-3.28a34.14,34.14,0,0,1-2.66-2.67c-1.08-1.15-2.29-2.45-3.73-3.78A15,15,0,0,0,25.21,68a18.7,18.7,0,0,0,.61,6.78c1.22,4.6,2.32,9.48,2.06,14.1-.69.17-1.77.31-3,.48-1.62.21-3.63.48-5.87,1a15,15,0,0,0-6.16,26.43c.89.71,1.57,1.29,2.1,1.77a15,15,0,0,0,8.69,27.28h.17c.93,0,1.69,0,2.31.09a15,15,0,0,0,18.34,10.89c0,5.65,2.71,11.08,8,15.18L60,177.9c16.11,12.53,32.78,25.49,49.21,38.19a28.46,28.46,0,0,0,17.45,6.21c8.44,0,16.17-3.93,21.77-11.06,6.33-8.06,13.15-16.89,20.88-27a31,31,0,0,0,2.85-4.47h49.2A15,15,0,0,0,235,171a15,15,0,0,0,8.64-13.58V27.76A15,15,0,0,0,235,14.16Z"/><path class="cls-1" d="M234.88,14.06a15,15,0,0,0-13.66-8.81H98.55a15,15,0,0,0-13.76,9,15,15,0,0,0-8.61,13.57v33a14.82,14.82,0,0,0-5.47,2.58l-.25.19c-.42.31-.88.66-1.38,1.09-2.56,2.18-4.78,3.38-6.25,3.38-.85,0-2.79-.43-6.25-3.28a34.14,34.14,0,0,1-2.66-2.67c-1.08-1.15-2.29-2.45-3.73-3.78a15,15,0,0,0-25.12,9.55,18.7,18.7,0,0,0,.61,6.78c1.22,4.6,2.32,9.48,2.06,14.1-.69.17-1.77.31-3,.48-1.62.21-3.63.48-5.87,1a15,15,0,0,0-6.16,26.43c.89.71,1.57,1.29,2.1,1.77a15,15,0,0,0,8.69,27.28h.17c.93,0,1.69,0,2.31.09A15,15,0,0,0,44.28,156.7c0,5.65,2.71,11.08,8,15.18l7.62,5.93C76,190.33,92.65,203.28,109.09,216a28.46,28.46,0,0,0,17.45,6.21c8.44,0,16.17-3.93,21.77-11.06,6.33-8.06,13.15-16.89,20.88-27a31,31,0,0,0,2.85-4.47h49.2a15,15,0,0,0,13.67-8.82,15,15,0,0,0,8.64-13.58V27.66A15,15,0,0,0,234.88,14.06Z"/><path class="cls-1" d="M234.74,14a15,15,0,0,0-13.66-8.81H98.41a15,15,0,0,0-13.76,9A15,15,0,0,0,76,27.77v33a14.82,14.82,0,0,0-5.47,2.58l-.25.19c-.42.31-.88.66-1.38,1.09C66.37,66.82,64.15,68,62.68,68c-.85,0-2.79-.43-6.25-3.28a34.14,34.14,0,0,1-2.66-2.67c-1.08-1.15-2.29-2.45-3.73-3.78a15,15,0,0,0-25.12,9.55,18.7,18.7,0,0,0,.61,6.78c1.22,4.6,2.32,9.48,2.06,14.1-.69.17-1.77.31-3,.48-1.62.21-3.63.48-5.87,1a15,15,0,0,0-6.16,26.43c.89.71,1.57,1.29,2.1,1.77a15,15,0,0,0,8.69,27.28h.17c.93,0,1.69,0,2.31.09A15,15,0,0,0,44.14,156.6c0,5.65,2.71,11.08,8,15.18l7.62,5.93c16.11,12.53,32.78,25.49,49.21,38.19a28.46,28.46,0,0,0,17.45,6.21c8.44,0,16.17-3.93,21.77-11.06,6.33-8.06,13.15-16.89,20.88-27a31,31,0,0,0,2.85-4.47h49.2a15,15,0,0,0,13.67-8.82,15,15,0,0,0,8.64-13.58V27.56A15,15,0,0,0,234.74,14Z"/><path class="cls-1" d="M234.59,13.87a15,15,0,0,0-13.66-8.81H98.26a15,15,0,0,0-13.76,9,15,15,0,0,0-8.61,13.57v33a14.82,14.82,0,0,0-5.47,2.58l-.25.19c-.42.31-.88.66-1.38,1.09-2.56,2.18-4.78,3.38-6.25,3.38-.85,0-2.79-.43-6.25-3.28A34.14,34.14,0,0,1,53.63,62c-1.08-1.15-2.29-2.45-3.73-3.78a15,15,0,0,0-25.12,9.55,18.7,18.7,0,0,0,.61,6.78c1.22,4.6,2.32,9.48,2.06,14.1-.69.17-1.77.31-3,.48-1.62.21-3.63.48-5.87,1a15,15,0,0,0-6.16,26.43c.89.71,1.57,1.29,2.1,1.77a15,15,0,0,0,8.69,27.28h.17c.93,0,1.69,0,2.31.09A15,15,0,0,0,44,156.5c0,5.65,2.71,11.08,8,15.18l7.62,5.93c16.11,12.53,32.78,25.49,49.21,38.19A28.46,28.46,0,0,0,126.26,222c8.44,0,16.17-3.93,21.77-11.06,6.33-8.06,13.15-16.89,20.88-27a31,31,0,0,0,2.85-4.47H221a15,15,0,0,0,13.67-8.82,15,15,0,0,0,8.64-13.58V27.46A15,15,0,0,0,234.59,13.87Z"/><path class="cls-1" d="M234.45,13.77A15,15,0,0,0,220.79,5H98.12a15,15,0,0,0-13.76,9,15,15,0,0,0-8.61,13.57v33a14.82,14.82,0,0,0-5.47,2.58l-.25.19c-.42.31-.88.66-1.38,1.09-2.56,2.18-4.78,3.38-6.25,3.38-.85,0-2.79-.43-6.25-3.28a34.14,34.14,0,0,1-2.66-2.67c-1.08-1.15-2.29-2.45-3.73-3.78a15,15,0,0,0-25.12,9.55,18.7,18.7,0,0,0,.61,6.78c1.22,4.6,2.32,9.48,2.06,14.1-.69.17-1.77.31-3,.48-1.62.21-3.63.48-5.87,1a15,15,0,0,0-6.16,26.43c.89.71,1.57,1.29,2.1,1.77A15,15,0,0,0,23,145.42h.17c.93,0,1.69,0,2.31.09A15,15,0,0,0,43.86,156.4c0,5.65,2.71,11.08,8,15.18l7.62,5.93C75.57,190,92.23,203,108.67,215.69a28.46,28.46,0,0,0,17.45,6.21c8.44,0,16.17-3.93,21.77-11.06,6.33-8.06,13.15-16.89,20.88-27a31,31,0,0,0,2.85-4.47h49.2a15,15,0,0,0,13.67-8.82A15,15,0,0,0,243.12,157V27.36A15,15,0,0,0,234.45,13.77Z"/><path class="cls-1" d="M234.31,13.67a15,15,0,0,0-13.66-8.81H98a15,15,0,0,0-13.76,9,15,15,0,0,0-8.61,13.57v33a14.82,14.82,0,0,0-5.47,2.58l-.25.19c-.42.31-.88.66-1.38,1.09-2.56,2.18-4.78,3.38-6.25,3.38-.85,0-2.79-.43-6.25-3.28a34.14,34.14,0,0,1-2.66-2.67c-1.08-1.15-2.29-2.45-3.73-3.78A15,15,0,0,0,24.5,67.54a18.7,18.7,0,0,0,.61,6.78c1.22,4.6,2.32,9.48,2.06,14.1-.69.17-1.77.31-3,.48-1.62.21-3.63.48-5.87,1a15,15,0,0,0-6.16,26.43c.89.71,1.57,1.29,2.1,1.77a15,15,0,0,0,8.69,27.28h.17c.93,0,1.69,0,2.31.09A15,15,0,0,0,43.72,156.3c0,5.65,2.71,11.08,8,15.18l7.62,5.93c16.11,12.53,32.78,25.49,49.21,38.19A28.46,28.46,0,0,0,126,221.81c8.44,0,16.17-3.93,21.77-11.06,6.33-8.06,13.15-16.89,20.88-27a31,31,0,0,0,2.85-4.47h49.2a15,15,0,0,0,13.67-8.82A15,15,0,0,0,243,156.88V27.27A15,15,0,0,0,234.31,13.67Z"/><path class="cls-1" d="M234.17,13.57a15,15,0,0,0-13.66-8.81H97.84a15,15,0,0,0-13.76,9,15,15,0,0,0-8.61,13.57v33A14.82,14.82,0,0,0,70,63l-.25.19c-.42.31-.88.66-1.38,1.09-2.56,2.18-4.78,3.38-6.25,3.38-.85,0-2.79-.43-6.25-3.28a34.14,34.14,0,0,1-2.66-2.67c-1.08-1.15-2.29-2.45-3.73-3.78a15,15,0,0,0-25.12,9.55A18.7,18.7,0,0,0,25,74.22c1.22,4.6,2.32,9.48,2.06,14.1-.69.17-1.77.31-3,.48-1.62.21-3.63.48-5.87,1A15,15,0,0,0,12,116.18c.89.71,1.57,1.29,2.1,1.77a15,15,0,0,0,8.69,27.28h.17c.93,0,1.69,0,2.31.09A15,15,0,0,0,43.57,156.2c0,5.65,2.71,11.08,8,15.18l7.62,5.93c16.11,12.53,32.78,25.49,49.21,38.19a28.46,28.46,0,0,0,17.45,6.21c8.44,0,16.17-3.93,21.77-11.06,6.33-8.06,13.15-16.89,20.88-27a31,31,0,0,0,2.85-4.47h49.2a15,15,0,0,0,13.67-8.82,15,15,0,0,0,8.64-13.58V27.17A15,15,0,0,0,234.17,13.57Z"/><path class="cls-1" d="M234,13.47a15,15,0,0,0-13.66-8.81H97.7a15,15,0,0,0-13.76,9,15,15,0,0,0-8.61,13.57v33a14.82,14.82,0,0,0-5.47,2.58l-.25.19c-.42.31-.88.66-1.38,1.09-2.56,2.18-4.78,3.38-6.25,3.38-.85,0-2.79-.43-6.25-3.28a34.14,34.14,0,0,1-2.66-2.67c-1.08-1.15-2.29-2.45-3.73-3.78a15,15,0,0,0-25.12,9.55,18.7,18.7,0,0,0,.61,6.78c1.22,4.6,2.32,9.48,2.06,14.1-.69.17-1.77.31-3,.48-1.62.21-3.63.48-5.87,1a15,15,0,0,0-6.16,26.43c.89.71,1.57,1.29,2.1,1.77a15,15,0,0,0,8.69,27.28h.17c.93,0,1.69,0,2.31.09A15,15,0,0,0,43.43,156.1c0,5.65,2.71,11.08,8,15.18L59,177.2c16.11,12.53,32.78,25.49,49.21,38.19a28.46,28.46,0,0,0,17.45,6.21c8.44,0,16.17-3.93,21.77-11.06,6.33-8.06,13.15-16.89,20.88-27a31,31,0,0,0,2.85-4.47h49.2a15,15,0,0,0,13.67-8.82,15,15,0,0,0,8.64-13.58V27.07A15,15,0,0,0,234,13.47Z"/><path class="cls-1" d="M233.88,13.37a15,15,0,0,0-13.66-8.81H97.55a15,15,0,0,0-13.76,9,15,15,0,0,0-8.61,13.57v33a14.82,14.82,0,0,0-5.47,2.58l-.25.19c-.42.31-.88.66-1.38,1.09-2.56,2.18-4.78,3.38-6.25,3.38-.85,0-2.79-.43-6.25-3.28a34.14,34.14,0,0,1-2.66-2.67c-1.08-1.15-2.29-2.45-3.73-3.78a15,15,0,0,0-25.12,9.55A18.7,18.7,0,0,0,24.68,74c1.22,4.6,2.32,9.48,2.06,14.1-.69.17-1.77.31-3,.48-1.62.21-3.63.48-5.87,1A15,15,0,0,0,11.68,116c.89.71,1.57,1.29,2.1,1.77A15,15,0,0,0,22.47,145h.17c.93,0,1.69,0,2.31.09A15,15,0,0,0,43.29,156c0,5.65,2.71,11.08,8,15.18l7.62,5.93C75,189.64,91.66,202.59,108.1,215.3a28.46,28.46,0,0,0,17.45,6.21c8.44,0,16.17-3.93,21.77-11.06,6.33-8.06,13.15-16.89,20.88-27A31,31,0,0,0,171,179h49.2a15,15,0,0,0,13.67-8.82,15,15,0,0,0,8.64-13.58V27A15,15,0,0,0,233.88,13.37Z"/><path class="cls-1" d="M233.74,13.27a15,15,0,0,0-13.66-8.81H97.41a15,15,0,0,0-13.76,9A15,15,0,0,0,75,27.07v33a14.82,14.82,0,0,0-5.47,2.58l-.25.19c-.42.31-.88.66-1.38,1.09-2.56,2.18-4.78,3.38-6.25,3.38-.85,0-2.79-.43-6.25-3.28a34.14,34.14,0,0,1-2.66-2.67c-1.08-1.15-2.29-2.45-3.73-3.78a15,15,0,0,0-25.12,9.55,18.7,18.7,0,0,0,.61,6.78c1.22,4.6,2.32,9.48,2.06,14.1-.69.17-1.77.31-3,.48-1.62.21-3.63.48-5.87,1a15,15,0,0,0-6.16,26.43c.89.71,1.57,1.29,2.1,1.77a15,15,0,0,0,8.69,27.28h.17c.93,0,1.69,0,2.31.09a15,15,0,0,0,18.34,10.89c0,5.65,2.71,11.08,8,15.18L58.74,177C74.86,189.54,91.52,202.49,108,215.2a28.46,28.46,0,0,0,17.45,6.21c8.44,0,16.17-3.93,21.77-11.06,6.33-8.06,13.15-16.89,20.88-27a31,31,0,0,0,2.85-4.47h49.2a15,15,0,0,0,13.67-8.82,15,15,0,0,0,8.64-13.58V26.87A15,15,0,0,0,233.74,13.27Z"/><path class="cls-1" d="M233.6,13.17a15,15,0,0,0-13.66-8.81H97.27a15,15,0,0,0-13.76,9A15,15,0,0,0,74.9,27V60a14.82,14.82,0,0,0-5.47,2.58l-.25.19c-.42.31-.88.66-1.38,1.09C65.23,66,63,67.23,61.54,67.23c-.85,0-2.79-.43-6.25-3.28a34.14,34.14,0,0,1-2.66-2.67c-1.08-1.15-2.29-2.45-3.73-3.78A15,15,0,0,0,23.79,67a18.7,18.7,0,0,0,.61,6.78c1.22,4.6,2.32,9.48,2.06,14.1-.69.17-1.77.31-3,.48-1.62.21-3.63.48-5.87,1a15,15,0,0,0-6.16,26.43c.89.71,1.57,1.29,2.1,1.77a15,15,0,0,0,8.69,27.28h.17c.93,0,1.69,0,2.31.09A15,15,0,0,0,43,155.81c0,5.65,2.71,11.08,8,15.18l7.62,5.93c16.11,12.53,32.78,25.49,49.21,38.19a28.46,28.46,0,0,0,17.45,6.21c8.44,0,16.17-3.93,21.77-11.06,6.33-8.06,13.15-16.89,20.88-27a31,31,0,0,0,2.85-4.47H220A15,15,0,0,0,233.63,170a15,15,0,0,0,8.64-13.58V26.77A15,15,0,0,0,233.6,13.17Z"/><path class="cls-1" d="M233.46,13.08A15,15,0,0,0,219.8,4.27H97.13a15,15,0,0,0-13.76,9,15,15,0,0,0-8.61,13.57v33a14.82,14.82,0,0,0-5.47,2.58l-.25.19c-.42.31-.88.66-1.38,1.09-2.56,2.18-4.78,3.38-6.25,3.38-.85,0-2.79-.43-6.25-3.28a34.14,34.14,0,0,1-2.66-2.67C51.42,60,50.2,58.72,48.77,57.4a15,15,0,0,0-25.12,9.55,18.7,18.7,0,0,0,.61,6.78c1.22,4.6,2.32,9.48,2.06,14.1-.69.17-1.77.31-3,.48-1.62.21-3.63.48-5.87,1a15,15,0,0,0-6.16,26.43c.89.71,1.57,1.29,2.1,1.77A15,15,0,0,0,22,144.73h.17c.93,0,1.69,0,2.31.09a15,15,0,0,0,18.34,10.89c0,5.65,2.71,11.08,8,15.18l7.62,5.93C74.57,189.34,91.23,202.3,107.67,215a28.46,28.46,0,0,0,17.45,6.21c8.44,0,16.17-3.93,21.77-11.06,6.33-8.06,13.15-16.89,20.88-27a31,31,0,0,0,2.85-4.47h49.2a15,15,0,0,0,13.67-8.82,15,15,0,0,0,8.64-13.58V26.67A15,15,0,0,0,233.46,13.08Z"/><path class="cls-1" d="M233.32,13a15,15,0,0,0-13.66-8.81H97a15,15,0,0,0-13.76,9,15,15,0,0,0-8.61,13.57v33a14.82,14.82,0,0,0-5.47,2.58l-.25.19c-.42.31-.88.66-1.38,1.09C64.95,65.83,62.73,67,61.26,67c-.85,0-2.79-.43-6.25-3.28a34.14,34.14,0,0,1-2.66-2.67c-1.08-1.15-2.29-2.45-3.73-3.78A15,15,0,0,0,23.5,66.85a18.7,18.7,0,0,0,.61,6.78c1.22,4.6,2.32,9.48,2.06,14.1-.69.17-1.77.31-3,.48-1.62.21-3.63.48-5.87,1a15,15,0,0,0-6.16,26.43c.89.71,1.57,1.29,2.1,1.77a15,15,0,0,0,8.69,27.28h.17c.93,0,1.69,0,2.31.09a15,15,0,0,0,18.34,10.89c0,5.65,2.71,11.08,8,15.18l7.62,5.93c16.11,12.53,32.78,25.49,49.21,38.19A28.46,28.46,0,0,0,125,221.11c8.44,0,16.17-3.93,21.77-11.06,6.33-8.06,13.15-16.89,20.88-27a31,31,0,0,0,2.85-4.47h49.2a15,15,0,0,0,13.67-8.82A15,15,0,0,0,242,156.19V26.57A15,15,0,0,0,233.32,13Z"/><path class="cls-1" d="M233.17,12.88a15,15,0,0,0-13.66-8.81H96.84a15,15,0,0,0-13.76,9,15,15,0,0,0-8.61,13.57v33A14.82,14.82,0,0,0,69,62.27l-.25.19c-.42.31-.88.66-1.38,1.09-2.56,2.18-4.78,3.38-6.25,3.38-.85,0-2.79-.43-6.25-3.28A34.14,34.14,0,0,1,52.21,61c-1.08-1.15-2.29-2.45-3.73-3.78a15,15,0,0,0-25.12,9.55A18.7,18.7,0,0,0,24,73.53c1.22,4.6,2.32,9.48,2.06,14.1-.69.17-1.77.31-3,.48-1.62.21-3.63.48-5.87,1A15,15,0,0,0,11,115.49c.89.71,1.57,1.29,2.1,1.77a15,15,0,0,0,8.69,27.28h.17c.93,0,1.69,0,2.31.09a15,15,0,0,0,18.34,10.89c0,5.65,2.71,11.08,8,15.18l7.62,5.93C74.29,189.14,91,202.1,107.39,214.8A28.46,28.46,0,0,0,124.84,221c8.44,0,16.17-3.93,21.77-11.06,6.33-8.06,13.15-16.89,20.88-27a31,31,0,0,0,2.85-4.47h49.2a15,15,0,0,0,13.67-8.82,15,15,0,0,0,8.64-13.58V26.48A15,15,0,0,0,233.17,12.88Z"/><path class="cls-1" d="M233,12.78A15,15,0,0,0,219.37,4H96.7a15,15,0,0,0-13.76,9,15,15,0,0,0-8.61,13.57v33a14.82,14.82,0,0,0-5.47,2.58l-.25.19c-.42.31-.88.66-1.38,1.09-2.56,2.18-4.78,3.38-6.25,3.38-.85,0-2.79-.43-6.25-3.28a34.14,34.14,0,0,1-2.66-2.67c-1.08-1.15-2.29-2.45-3.73-3.78a15,15,0,0,0-25.12,9.55,18.7,18.7,0,0,0,.61,6.78c1.22,4.6,2.32,9.48,2.06,14.1-.69.17-1.77.31-3,.48-1.62.21-3.63.48-5.87,1a15,15,0,0,0-6.16,26.43c.89.71,1.57,1.29,2.1,1.77a15,15,0,0,0,8.69,27.28h.17c.93,0,1.69,0,2.31.09a15,15,0,0,0,18.34,10.89c0,5.65,2.71,11.08,8,15.18L58,176.51C74.15,189,90.81,202,107.25,214.7a28.46,28.46,0,0,0,17.45,6.21c8.44,0,16.17-3.93,21.77-11.06,6.33-8.06,13.15-16.89,20.88-27a31,31,0,0,0,2.85-4.47h49.2a15,15,0,0,0,13.67-8.82A15,15,0,0,0,241.7,156V26.38A15,15,0,0,0,233,12.78Z"/><path class="cls-1" d="M232.89,12.68a15,15,0,0,0-13.66-8.81H96.56a15,15,0,0,0-13.76,9,15,15,0,0,0-8.61,13.57v33a14.82,14.82,0,0,0-5.47,2.58l-.25.19c-.42.31-.88.66-1.38,1.09-2.56,2.18-4.78,3.38-6.25,3.38-.85,0-2.79-.43-6.25-3.28a34.14,34.14,0,0,1-2.66-2.67c-1.08-1.15-2.29-2.45-3.73-3.78a15,15,0,0,0-25.12,9.55,18.7,18.7,0,0,0,.61,6.78c1.22,4.6,2.32,9.48,2.06,14.1-.69.17-1.77.31-3,.48-1.62.21-3.63.48-5.87,1a15,15,0,0,0-6.16,26.43c.89.71,1.57,1.29,2.1,1.77a15,15,0,0,0,8.69,27.28h.17c.93,0,1.69,0,2.31.09a15,15,0,0,0,18.34,10.89c0,5.65,2.71,11.08,8,15.18l7.62,5.93C74,188.94,90.67,201.9,107.1,214.61a28.46,28.46,0,0,0,17.45,6.21c8.44,0,16.17-3.93,21.77-11.06,6.33-8.06,13.15-16.89,20.88-27a31,31,0,0,0,2.85-4.47h49.2a15,15,0,0,0,13.67-8.82,15,15,0,0,0,8.64-13.58V26.28A15,15,0,0,0,232.89,12.68Z"/><path class="cls-1" d="M232.75,12.58a15,15,0,0,0-13.66-8.81H96.42a15,15,0,0,0-13.76,9A15,15,0,0,0,74,26.38v33A14.82,14.82,0,0,0,68.57,62l-.25.19c-.42.31-.88.66-1.38,1.09-2.56,2.18-4.78,3.38-6.25,3.38-.85,0-2.79-.43-6.25-3.28a34.14,34.14,0,0,1-2.66-2.67c-1.08-1.15-2.29-2.45-3.73-3.78a15,15,0,0,0-25.12,9.55,18.7,18.7,0,0,0,.61,6.78c1.22,4.6,2.32,9.48,2.06,14.1-.69.17-1.77.31-3,.48-1.62.21-3.63.48-5.87,1a15,15,0,0,0-6.16,26.43c.89.71,1.57,1.29,2.1,1.77a15,15,0,0,0,8.69,27.28h.17c.93,0,1.69,0,2.31.09a15,15,0,0,0,18.34,10.89c0,5.65,2.71,11.08,8,15.18l7.62,5.93C73.86,188.85,90.52,201.8,107,214.51a28.46,28.46,0,0,0,17.45,6.21c8.44,0,16.17-3.93,21.77-11.06,6.33-8.06,13.15-16.89,20.88-27a31,31,0,0,0,2.85-4.47h49.2a15,15,0,0,0,13.67-8.82,15,15,0,0,0,8.64-13.58V26.18A15,15,0,0,0,232.75,12.58Z"/><path class="cls-1" d="M232.61,12.48a15,15,0,0,0-13.66-8.81H96.28a15,15,0,0,0-13.76,9A15,15,0,0,0,73.9,26.28v33a14.82,14.82,0,0,0-5.47,2.58l-.25.19c-.42.31-.88.66-1.38,1.09-2.56,2.18-4.78,3.38-6.25,3.38-.85,0-2.79-.43-6.25-3.28a34.14,34.14,0,0,1-2.66-2.67c-1.08-1.15-2.29-2.45-3.73-3.78a15,15,0,0,0-25.12,9.55,18.7,18.7,0,0,0,.61,6.78c1.22,4.6,2.32,9.48,2.06,14.1-.69.17-1.77.31-3,.48-1.62.21-3.63.48-5.87,1a15,15,0,0,0-6.16,26.43c.89.71,1.57,1.29,2.1,1.77a15,15,0,0,0,8.69,27.28h.17c.93,0,1.69,0,2.31.09A15,15,0,0,0,42,155.12c0,5.65,2.71,11.08,8,15.18l7.62,5.93c16.11,12.53,32.78,25.49,49.21,38.19a28.46,28.46,0,0,0,17.45,6.21c8.44,0,16.17-3.93,21.77-11.06,6.33-8.06,13.15-16.89,20.88-27a31,31,0,0,0,2.85-4.47H219a15,15,0,0,0,13.67-8.82,15,15,0,0,0,8.64-13.58V26.08A15,15,0,0,0,232.61,12.48Z"/><path class="cls-1" d="M232.46,12.38A15,15,0,0,0,218.8,3.58H96.13a15,15,0,0,0-13.76,9,15,15,0,0,0-8.61,13.57v33a14.82,14.82,0,0,0-5.47,2.58L68,62c-.42.31-.88.66-1.38,1.09-2.56,2.18-4.78,3.38-6.25,3.38-.85,0-2.79-.43-6.25-3.28a34.14,34.14,0,0,1-2.66-2.67c-1.08-1.15-2.29-2.45-3.73-3.78a15,15,0,0,0-25.12,9.55A18.7,18.7,0,0,0,23.26,73c1.22,4.6,2.32,9.48,2.06,14.1-.69.17-1.77.31-3,.48-1.62.21-3.63.48-5.87,1A15,15,0,0,0,10.26,115c.89.71,1.57,1.29,2.1,1.77A15,15,0,0,0,21,144h.17c.93,0,1.69,0,2.31.09A15,15,0,0,0,41.87,155c0,5.65,2.71,11.08,8,15.18l7.62,5.93c16.11,12.53,32.78,25.49,49.21,38.19a28.46,28.46,0,0,0,17.45,6.21c8.44,0,16.17-3.93,21.77-11.06,6.33-8.06,13.15-16.89,20.88-27a31,31,0,0,0,2.85-4.47h49.2a15,15,0,0,0,13.67-8.82,15,15,0,0,0,8.64-13.58V26A15,15,0,0,0,232.46,12.38Z"/><path class="cls-1" d="M232.32,12.29a15,15,0,0,0-13.66-8.81H96a15,15,0,0,0-13.76,9,15,15,0,0,0-8.61,13.57v33a14.82,14.82,0,0,0-5.47,2.58l-.25.19c-.42.31-.88.66-1.38,1.09-2.56,2.18-4.78,3.38-6.25,3.38-.85,0-2.79-.43-6.25-3.28a34.14,34.14,0,0,1-2.66-2.67c-1.08-1.15-2.29-2.45-3.73-3.78a15,15,0,0,0-25.12,9.55,18.7,18.7,0,0,0,.61,6.78c1.22,4.6,2.32,9.48,2.06,14.1-.69.17-1.77.31-3,.48-1.62.21-3.63.48-5.87,1a15,15,0,0,0-6.16,26.43c.89.71,1.57,1.29,2.1,1.77a15,15,0,0,0,8.69,27.28h.17c.93,0,1.69,0,2.31.09a15,15,0,0,0,18.34,10.89c0,5.65,2.71,11.08,8,15.18L57.32,176c16.11,12.53,32.78,25.49,49.21,38.19A28.46,28.46,0,0,0,124,220.42c8.44,0,16.17-3.93,21.77-11.06,6.33-8.06,13.15-16.89,20.88-27a31,31,0,0,0,2.85-4.47h49.2a15,15,0,0,0,13.67-8.82A15,15,0,0,0,241,155.5V25.88A15,15,0,0,0,232.32,12.29Z"/><path class="cls-1" d="M232.18,12.19a15,15,0,0,0-13.66-8.81H95.85a15,15,0,0,0-13.76,9A15,15,0,0,0,73.48,26V59A14.82,14.82,0,0,0,68,61.58l-.25.19c-.42.31-.88.66-1.38,1.09-2.56,2.18-4.78,3.38-6.25,3.38-.85,0-2.79-.43-6.25-3.28a34.14,34.14,0,0,1-2.66-2.67c-1.08-1.15-2.29-2.45-3.73-3.78a15,15,0,0,0-25.12,9.55A18.7,18.7,0,0,0,23,72.84c1.22,4.6,2.32,9.48,2.06,14.1-.69.17-1.77.31-3,.48-1.62.21-3.63.48-5.87,1A15,15,0,0,0,10,114.8c.89.71,1.57,1.29,2.1,1.77a15,15,0,0,0,8.69,27.28h.17c.93,0,1.69,0,2.31.09a15,15,0,0,0,18.34,10.89c0,5.65,2.71,11.08,8,15.18l7.62,5.93c16.11,12.53,32.78,25.49,49.21,38.19a28.46,28.46,0,0,0,17.45,6.21c8.44,0,16.17-3.93,21.77-11.06,6.33-8.06,13.15-16.89,20.88-27a31,31,0,0,0,2.85-4.47h49.2A15,15,0,0,0,232.21,169a15,15,0,0,0,8.64-13.58V25.78A15,15,0,0,0,232.18,12.19Z"/><path class="cls-1" d="M232,12.09a15,15,0,0,0-13.66-8.81H95.71a15,15,0,0,0-13.76,9,15,15,0,0,0-8.61,13.57v33a14.82,14.82,0,0,0-5.47,2.58l-.25.19c-.42.31-.88.66-1.38,1.09-2.56,2.18-4.78,3.38-6.25,3.38-.85,0-2.79-.43-6.25-3.28a34.14,34.14,0,0,1-2.66-2.67C50,59,48.78,57.74,47.35,56.41A15,15,0,0,0,22.23,66a18.7,18.7,0,0,0,.61,6.78c1.22,4.6,2.32,9.48,2.06,14.1-.69.17-1.77.31-3,.48-1.62.21-3.63.48-5.87,1A15,15,0,0,0,9.83,114.7c.89.71,1.57,1.29,2.1,1.77a15,15,0,0,0,8.69,27.28h.17c.93,0,1.69,0,2.31.09a15,15,0,0,0,18.34,10.89c0,5.65,2.71,11.08,8,15.18L57,175.82c16.11,12.53,32.78,25.49,49.21,38.19a28.46,28.46,0,0,0,17.45,6.21c8.44,0,16.17-3.93,21.77-11.06,6.33-8.06,13.15-16.89,20.88-27a31,31,0,0,0,2.85-4.47h49.2a15,15,0,0,0,13.67-8.82,15,15,0,0,0,8.64-13.58V25.69A15,15,0,0,0,232,12.09Z"/><path class="cls-1" d="M231.9,12a15,15,0,0,0-13.66-8.81H95.57a15,15,0,0,0-13.76,9,15,15,0,0,0-8.61,13.57v33a14.82,14.82,0,0,0-5.47,2.58l-.25.19c-.42.31-.88.66-1.38,1.09C63.52,64.84,61.31,66,59.84,66c-.85,0-2.79-.43-6.25-3.28a34.14,34.14,0,0,1-2.66-2.67c-1.08-1.15-2.29-2.45-3.73-3.78a15,15,0,0,0-25.12,9.55,18.7,18.7,0,0,0,.61,6.78c1.22,4.6,2.32,9.48,2.06,14.1-.69.17-1.77.31-3,.48-1.62.21-3.63.48-5.87,1A15,15,0,0,0,9.69,114.6c.89.71,1.57,1.29,2.1,1.77a15,15,0,0,0,8.69,27.28h.17c.93,0,1.69,0,2.31.09A15,15,0,0,0,41.3,154.62c0,5.65,2.71,11.08,8,15.18l7.62,5.93c16.11,12.53,32.78,25.49,49.21,38.19a28.46,28.46,0,0,0,17.45,6.21c8.44,0,16.17-3.93,21.77-11.06,6.33-8.06,13.15-16.89,20.88-27a31,31,0,0,0,2.85-4.47h49.2a15,15,0,0,0,13.67-8.82,15,15,0,0,0,8.64-13.58V25.59A15,15,0,0,0,231.9,12Z"/><path class="cls-1" d="M231.75,11.89a15,15,0,0,0-13.66-8.81H95.42a15,15,0,0,0-13.76,9,15,15,0,0,0-8.61,13.57v33a14.82,14.82,0,0,0-5.47,2.58l-.25.19c-.42.31-.88.66-1.38,1.09-2.56,2.18-4.78,3.38-6.25,3.38-.85,0-2.79-.43-6.25-3.28A34.14,34.14,0,0,1,50.79,60c-1.08-1.15-2.29-2.45-3.73-3.78a15,15,0,0,0-25.12,9.55,18.7,18.7,0,0,0,.61,6.78c1.22,4.6,2.32,9.48,2.06,14.1-.69.17-1.77.31-3,.48-1.62.21-3.63.48-5.87,1A15,15,0,0,0,9.55,114.5c.89.71,1.57,1.29,2.1,1.77a15,15,0,0,0,8.69,27.28h.17c.93,0,1.69,0,2.31.09a15,15,0,0,0,18.34,10.89c0,5.65,2.71,11.08,8,15.18l7.62,5.93c16.11,12.53,32.78,25.49,49.21,38.19A28.46,28.46,0,0,0,123.42,220c8.44,0,16.17-3.93,21.77-11.06,6.33-8.06,13.15-16.89,20.88-27a31,31,0,0,0,2.85-4.47h49.2a15,15,0,0,0,13.67-8.82,15,15,0,0,0,8.64-13.58V25.49A15,15,0,0,0,231.75,11.89Z"/><path class="cls-1" d="M231.61,11.79A15,15,0,0,0,218,3H95.28a15,15,0,0,0-13.76,9,15,15,0,0,0-8.61,13.57v33a14.82,14.82,0,0,0-5.47,2.58l-.25.19c-.42.31-.88.66-1.38,1.09-2.56,2.18-4.78,3.38-6.25,3.38-.85,0-2.79-.43-6.25-3.28a34.14,34.14,0,0,1-2.66-2.67c-1.08-1.15-2.29-2.45-3.73-3.78A15,15,0,0,0,21.8,65.66a18.7,18.7,0,0,0,.61,6.78c1.22,4.6,2.32,9.48,2.06,14.1-.69.17-1.77.31-3,.48-1.62.21-3.63.48-5.87,1A15,15,0,0,0,9.41,114.4c.89.71,1.57,1.29,2.1,1.77a15,15,0,0,0,8.69,27.28h.17c.93,0,1.69,0,2.31.09A15,15,0,0,0,41,154.43c0,5.65,2.71,11.08,8,15.18l7.62,5.93c16.11,12.53,32.78,25.49,49.21,38.19a28.46,28.46,0,0,0,17.45,6.21c8.44,0,16.17-3.93,21.77-11.06,6.33-8.06,13.15-16.89,20.88-27a31,31,0,0,0,2.85-4.47H218a15,15,0,0,0,13.67-8.82A15,15,0,0,0,240.28,155V25.39A15,15,0,0,0,231.61,11.79Z"/><path class="cls-1" d="M231.47,11.69a15,15,0,0,0-13.66-8.81H95.14a15,15,0,0,0-13.76,9,15,15,0,0,0-8.61,13.57v33a14.82,14.82,0,0,0-5.47,2.58l-.25.19c-.42.31-.88.66-1.38,1.09-2.56,2.18-4.78,3.38-6.25,3.38-.85,0-2.79-.43-6.25-3.28a34.14,34.14,0,0,1-2.66-2.67c-1.08-1.15-2.29-2.45-3.73-3.78a15,15,0,0,0-25.12,9.55,18.7,18.7,0,0,0,.61,6.78c1.22,4.6,2.32,9.48,2.06,14.1-.69.17-1.77.31-3,.48-1.62.21-3.63.48-5.87,1A15,15,0,0,0,9.27,114.3c.89.71,1.57,1.29,2.1,1.77a15,15,0,0,0,8.69,27.28h.17c.93,0,1.69,0,2.31.09a15,15,0,0,0,18.34,10.89c0,5.65,2.71,11.08,8,15.18l7.62,5.93c16.11,12.53,32.78,25.49,49.21,38.19a28.46,28.46,0,0,0,17.45,6.21c8.44,0,16.17-3.93,21.77-11.06,6.33-8.06,13.15-16.89,20.88-27a31,31,0,0,0,2.85-4.47h49.2a15,15,0,0,0,13.67-8.82,15,15,0,0,0,8.64-13.58V25.29A15,15,0,0,0,231.47,11.69Z"/><path class="cls-1" d="M231.33,11.59a15,15,0,0,0-13.66-8.81H95a15,15,0,0,0-13.76,9A15,15,0,0,0,72.62,25.4v33A14.82,14.82,0,0,0,67.15,61l-.25.19c-.42.31-.88.66-1.38,1.09-2.56,2.18-4.78,3.38-6.25,3.38-.85,0-2.79-.43-6.25-3.28a34.14,34.14,0,0,1-2.66-2.67c-1.08-1.15-2.29-2.45-3.73-3.78a15,15,0,0,0-25.12,9.55,18.7,18.7,0,0,0,.61,6.78c1.22,4.6,2.32,9.48,2.06,14.1-.69.17-1.77.31-3,.48-1.62.21-3.63.48-5.87,1a15,15,0,0,0-6.16,26.43c.89.71,1.57,1.29,2.1,1.77a15,15,0,0,0,8.69,27.28h.17c.93,0,1.69,0,2.31.09a15,15,0,0,0,18.34,10.89c0,5.65,2.71,11.08,8,15.18l7.62,5.93c16.11,12.53,32.78,25.49,49.21,38.19A28.46,28.46,0,0,0,123,219.73c8.44,0,16.17-3.93,21.77-11.06,6.33-8.06,13.15-16.89,20.88-27a31,31,0,0,0,2.85-4.47h49.2a15,15,0,0,0,13.67-8.82A15,15,0,0,0,240,154.81V25.19A15,15,0,0,0,231.33,11.59Z"/><path class="cls-1" d="M231.19,11.5a15,15,0,0,0-13.66-8.81H94.85a15,15,0,0,0-13.76,9A15,15,0,0,0,72.48,25.3v33A14.82,14.82,0,0,0,67,60.89l-.25.19c-.42.31-.88.66-1.38,1.09-2.56,2.18-4.78,3.38-6.25,3.38-.85,0-2.79-.43-6.25-3.28a34.14,34.14,0,0,1-2.66-2.67c-1.08-1.15-2.29-2.45-3.73-3.78a15,15,0,0,0-25.12,9.55A18.7,18.7,0,0,0,22,72.15c1.22,4.6,2.32,9.48,2.06,14.1-.69.17-1.77.31-3,.48-1.62.21-3.63.48-5.87,1A15,15,0,0,0,9,114.11c.89.71,1.57,1.29,2.1,1.77a15,15,0,0,0,8.69,27.28h.17c.93,0,1.69,0,2.31.09a15,15,0,0,0,18.34,10.89c0,5.65,2.71,11.08,8,15.18l7.62,5.93C72.3,187.76,89,200.72,105.4,213.42a28.46,28.46,0,0,0,17.45,6.21c8.44,0,16.17-3.93,21.77-11.06,6.33-8.06,13.15-16.89,20.88-27a31,31,0,0,0,2.85-4.47h49.2a15,15,0,0,0,13.67-8.82,15,15,0,0,0,8.64-13.58V25.09A15,15,0,0,0,231.19,11.5Z"/><path class="cls-1" d="M231,11.4a15,15,0,0,0-13.66-8.81H94.71a15,15,0,0,0-13.76,9A15,15,0,0,0,72.34,25.2v33a14.82,14.82,0,0,0-5.47,2.58l-.25.19c-.42.31-.88.66-1.38,1.09-2.56,2.18-4.78,3.38-6.25,3.38-.85,0-2.79-.43-6.25-3.28a34.14,34.14,0,0,1-2.66-2.67C49,58.35,47.79,57,46.35,55.72a15,15,0,0,0-25.12,9.55A18.7,18.7,0,0,0,21.84,72c1.22,4.6,2.32,9.48,2.06,14.1-.69.17-1.77.31-3,.48-1.62.21-3.63.48-5.87,1A15,15,0,0,0,8.84,114c.89.71,1.57,1.29,2.1,1.77a15,15,0,0,0,8.69,27.28h.17c.93,0,1.69,0,2.31.09A15,15,0,0,0,40.45,154c0,5.65,2.71,11.08,8,15.18L56,175.13c16.11,12.53,32.78,25.49,49.21,38.19a28.46,28.46,0,0,0,17.45,6.21c8.44,0,16.17-3.93,21.77-11.06,6.33-8.06,13.15-16.89,20.88-27a31,31,0,0,0,2.85-4.47h49.2a15,15,0,0,0,13.67-8.82,15,15,0,0,0,8.64-13.58V25A15,15,0,0,0,231,11.4Z"/><path class="cls-1" d="M230.9,11.3a15,15,0,0,0-13.66-8.81H94.57a15,15,0,0,0-13.76,9A15,15,0,0,0,72.2,25.1v33a14.82,14.82,0,0,0-5.47,2.58l-.25.19c-.42.31-.88.66-1.38,1.09-2.56,2.18-4.78,3.38-6.25,3.38-.85,0-2.79-.43-6.25-3.28a34.14,34.14,0,0,1-2.66-2.67c-1.08-1.15-2.29-2.45-3.73-3.78a15,15,0,0,0-25.12,9.55,18.7,18.7,0,0,0,.61,6.78c1.22,4.6,2.32,9.48,2.06,14.1-.69.17-1.77.31-3,.48-1.62.21-3.63.48-5.87,1A15,15,0,0,0,8.7,113.91c.89.71,1.57,1.29,2.1,1.77A15,15,0,0,0,19.48,143h.17c.93,0,1.69,0,2.31.09a15,15,0,0,0,18.34,10.89c0,5.65,2.71,11.08,8,15.18L55.9,175c16.11,12.53,32.78,25.49,49.21,38.19a28.46,28.46,0,0,0,17.45,6.21c8.44,0,16.17-3.93,21.77-11.06,6.33-8.06,13.15-16.89,20.88-27a31,31,0,0,0,2.85-4.47h49.2a15,15,0,0,0,13.67-8.82,15,15,0,0,0,8.64-13.58V24.9A15,15,0,0,0,230.9,11.3Z"/><path class="cls-1" d="M230.76,11.2A15,15,0,0,0,217.1,2.39H94.43a15,15,0,0,0-13.76,9A15,15,0,0,0,72.06,25V58a14.82,14.82,0,0,0-5.47,2.58l-.25.19c-.42.31-.88.66-1.38,1.09-2.56,2.18-4.78,3.38-6.25,3.38-.85,0-2.79-.43-6.25-3.28A34.14,34.14,0,0,1,49.8,59.3c-1.08-1.15-2.29-2.45-3.73-3.78a15,15,0,0,0-25.12,9.55,18.7,18.7,0,0,0,.61,6.78c1.22,4.6,2.32,9.48,2.06,14.1-.69.17-1.77.31-3,.48-1.62.21-3.63.48-5.87,1a15,15,0,0,0-6.16,26.43c.89.71,1.57,1.29,2.1,1.77a15,15,0,0,0,8.69,27.28h.17c.93,0,1.69,0,2.31.09a15,15,0,0,0,18.34,10.89c0,5.65,2.71,11.08,8,15.18l7.62,5.93c16.11,12.53,32.78,25.49,49.21,38.19a28.46,28.46,0,0,0,17.45,6.21c8.44,0,16.17-3.93,21.77-11.06,6.33-8.06,13.15-16.89,20.88-27a31,31,0,0,0,2.85-4.47h49.2A15,15,0,0,0,230.79,168a15,15,0,0,0,8.64-13.58V24.8A15,15,0,0,0,230.76,11.2Z"/><path class="cls-1" d="M230.62,11.1A15,15,0,0,0,217,2.29H94.29a15,15,0,0,0-13.76,9A15,15,0,0,0,71.91,24.9v33a14.82,14.82,0,0,0-5.47,2.58l-.25.19c-.42.31-.88.66-1.38,1.09C62.25,64,60,65.15,58.56,65.15c-.85,0-2.79-.43-6.25-3.28a34.14,34.14,0,0,1-2.66-2.67c-1.08-1.15-2.29-2.45-3.73-3.78A15,15,0,0,0,20.81,65a18.7,18.7,0,0,0,.61,6.78c1.22,4.6,2.32,9.48,2.06,14.1-.69.17-1.77.31-3,.48-1.62.21-3.63.48-5.87,1a15,15,0,0,0-6.16,26.43c.89.71,1.57,1.29,2.1,1.77a15,15,0,0,0,8.69,27.28h.17c.93,0,1.69,0,2.31.09A15,15,0,0,0,40,153.73c0,5.65,2.71,11.08,8,15.18l7.62,5.93c16.11,12.53,32.78,25.49,49.21,38.19a28.46,28.46,0,0,0,17.45,6.21c8.44,0,16.17-3.93,21.77-11.06,6.33-8.06,13.15-16.89,20.88-27a31,31,0,0,0,2.85-4.47H217a15,15,0,0,0,13.67-8.82,15,15,0,0,0,8.64-13.58V24.7A15,15,0,0,0,230.62,11.1Z"/><path class="cls-1" d="M230.47,11a15,15,0,0,0-13.66-8.81H94.14a15,15,0,0,0-13.76,9A15,15,0,0,0,71.77,24.8v33A14.82,14.82,0,0,0,66.3,60.4l-.25.19c-.42.31-.88.66-1.38,1.09-2.56,2.18-4.78,3.38-6.25,3.38-.85,0-2.79-.43-6.25-3.28a34.14,34.14,0,0,1-2.66-2.67c-1.08-1.15-2.29-2.45-3.73-3.78a15,15,0,0,0-25.12,9.55,18.7,18.7,0,0,0,.61,6.78c1.22,4.6,2.32,9.48,2.06,14.1-.69.17-1.77.31-3,.48-1.62.21-3.63.48-5.87,1a15,15,0,0,0-6.16,26.43c.89.71,1.57,1.29,2.1,1.77a15,15,0,0,0,8.69,27.28h.17c.93,0,1.69,0,2.31.09a15,15,0,0,0,18.34,10.89c0,5.65,2.71,11.08,8,15.18l7.62,5.93c16.11,12.53,32.78,25.49,49.21,38.19a28.46,28.46,0,0,0,17.45,6.21c8.44,0,16.17-3.93,21.77-11.06,6.33-8.06,13.15-16.89,20.88-27a31,31,0,0,0,2.85-4.47h49.2a15,15,0,0,0,13.67-8.82,15,15,0,0,0,8.64-13.58V24.6A15,15,0,0,0,230.47,11Z"/><path class="cls-1" d="M230.33,10.9A15,15,0,0,0,216.67,2.1H94a15,15,0,0,0-13.76,9A15,15,0,0,0,71.63,24.7v33a14.82,14.82,0,0,0-5.47,2.58l-.25.19c-.42.31-.88.66-1.38,1.09C62,63.75,59.74,65,58.28,65c-.85,0-2.79-.43-6.25-3.28A34.14,34.14,0,0,1,49.37,59c-1.08-1.15-2.29-2.45-3.73-3.78a15,15,0,0,0-25.12,9.55,18.7,18.7,0,0,0,.61,6.78c1.22,4.6,2.32,9.48,2.06,14.1-.69.17-1.77.31-3,.48-1.62.21-3.63.48-5.87,1a15,15,0,0,0-6.16,26.43c.89.71,1.57,1.29,2.1,1.77a15,15,0,0,0,8.69,27.28h.17c.93,0,1.69,0,2.31.09a15,15,0,0,0,18.34,10.89c0,5.65,2.71,11.08,8,15.18l7.62,5.93c16.11,12.53,32.78,25.49,49.21,38.19A28.46,28.46,0,0,0,122,219c8.44,0,16.17-3.93,21.77-11.06,6.33-8.06,13.15-16.89,20.88-27a31,31,0,0,0,2.85-4.47h49.2a15,15,0,0,0,13.67-8.82A15,15,0,0,0,239,154.12V24.5A15,15,0,0,0,230.33,10.9Z"/><path class="cls-1" d="M230.19,10.8A15,15,0,0,0,216.53,2H93.86A15,15,0,0,0,80.1,11a15,15,0,0,0-8.61,13.57v33A14.82,14.82,0,0,0,66,60.2l-.25.19c-.42.31-.88.66-1.38,1.09-2.56,2.18-4.78,3.38-6.25,3.38-.85,0-2.79-.43-6.25-3.28a34.14,34.14,0,0,1-2.66-2.67c-1.08-1.15-2.29-2.45-3.73-3.78a15,15,0,0,0-25.12,9.55A18.7,18.7,0,0,0,21,71.46c1.22,4.6,2.32,9.48,2.06,14.1-.69.17-1.77.31-3,.48-1.62.21-3.63.48-5.87,1A15,15,0,0,0,8,113.42c.89.71,1.57,1.29,2.1,1.77a15,15,0,0,0,8.69,27.28h.17c.93,0,1.69,0,2.31.09A15,15,0,0,0,39.6,153.44c0,5.65,2.71,11.08,8,15.18l7.62,5.93C71.31,187.07,88,200,104.41,212.73a28.46,28.46,0,0,0,17.45,6.21c8.44,0,16.17-3.93,21.77-11.06,6.33-8.06,13.15-16.89,20.88-27a31,31,0,0,0,2.85-4.47h49.2a15,15,0,0,0,13.67-8.82A15,15,0,0,0,238.86,154V24.4A15,15,0,0,0,230.19,10.8Z"/><path class="cls-1" d="M230,10.71A15,15,0,0,0,216.39,1.9H93.72a15,15,0,0,0-13.76,9,15,15,0,0,0-8.61,13.57v33a14.82,14.82,0,0,0-5.47,2.58l-.25.19c-.42.31-.88.66-1.38,1.09-2.56,2.18-4.78,3.38-6.25,3.38-.85,0-2.79-.43-6.25-3.28a34.14,34.14,0,0,1-2.66-2.67C48,57.66,46.79,56.35,45.36,55a15,15,0,0,0-25.12,9.55,18.7,18.7,0,0,0,.61,6.78c1.22,4.6,2.32,9.48,2.06,14.1-.69.17-1.77.31-3,.48-1.62.21-3.63.48-5.87,1a15,15,0,0,0-6.16,26.43c.89.71,1.57,1.29,2.1,1.77a15,15,0,0,0,8.69,27.28h.17c.93,0,1.69,0,2.31.09a15,15,0,0,0,18.34,10.89c0,5.65,2.71,11.08,8,15.18l7.62,5.93c16.11,12.53,32.78,25.49,49.21,38.19a28.46,28.46,0,0,0,17.45,6.21c8.44,0,16.17-3.93,21.77-11.06,6.33-8.06,13.15-16.89,20.88-27a31,31,0,0,0,2.85-4.47h49.2a15,15,0,0,0,13.67-8.82,15,15,0,0,0,8.64-13.58V24.3A15,15,0,0,0,230,10.71Z"/><path class="cls-1" d="M229.91,10.61A15,15,0,0,0,216.25,1.8H93.58a15,15,0,0,0-13.76,9A15,15,0,0,0,71.2,24.41v33A14.82,14.82,0,0,0,65.73,60l-.25.19c-.42.31-.88.66-1.38,1.09-2.56,2.18-4.78,3.38-6.25,3.38-.85,0-2.79-.43-6.25-3.28a34.14,34.14,0,0,1-2.66-2.67c-1.08-1.15-2.29-2.45-3.73-3.78A15,15,0,0,0,20.1,64.48a18.7,18.7,0,0,0,.61,6.78c1.22,4.6,2.32,9.48,2.06,14.1-.69.17-1.77.31-3,.48-1.62.21-3.63.48-5.87,1A15,15,0,0,0,7.7,113.22c.89.71,1.57,1.29,2.1,1.77a15,15,0,0,0,8.69,27.28h.17c.93,0,1.69,0,2.31.09a15,15,0,0,0,18.34,10.89c0,5.65,2.71,11.08,8,15.18l7.62,5.93c16.11,12.53,32.78,25.49,49.21,38.19a28.46,28.46,0,0,0,17.45,6.21c8.44,0,16.17-3.93,21.77-11.06,6.33-8.06,13.15-16.89,20.88-27a31,31,0,0,0,2.85-4.47h49.2a15,15,0,0,0,13.67-8.82,15,15,0,0,0,8.64-13.58V24.2A15,15,0,0,0,229.91,10.61Z"/><rect class="cls-2" x="81.69" y="24.32" width="129.79" height="137.6" rx="2.5" ry="2.5"/><path class="cls-2" d="M209,26.82v132.6H84.19V26.82H209m0-5H84.19a5,5,0,0,0-5,5v132.6a5,5,0,0,0,5,5H209a5,5,0,0,0,5-5V26.82a5,5,0,0,0-5-5Z"/><path class="cls-2" d="M164.78,161.93a2.5,2.5,0,0,1-2.47-2.14,23.1,23.1,0,0,0-6-12.9,2.5,2.5,0,0,1,1.84-4.19h39.65V138a2.5,2.5,0,0,1,1.83-2.41,13.34,13.34,0,0,1,3.61-.42l1.27,0,.66,0V38.78h-.06l-1.19,0-1.37,0a20.63,20.63,0,0,1-2.33-.12A2.5,2.5,0,0,1,198,36.21V32.07H108.53v4.19a2.5,2.5,0,0,1-2.5,2.5h-5V98.48a2.5,2.5,0,0,1-4,2l-14.32-11a2.5,2.5,0,0,1-1-2V22.61a2.5,2.5,0,0,1,2.5-2.5h4.87V15a2.5,2.5,0,0,1,2.5-2.5H214.23a2.5,2.5,0,0,1,2.5,2.5v4.9h4.83a2.5,2.5,0,0,1,2.5,2.5V152a2.5,2.5,0,0,1-2.5,2.5h-4.81v4.9a2.5,2.5,0,0,1-2.5,2.5Z"/><path class="cls-2" d="M214.23,15v7.4h7.33V152h-7.31v7.4H164.78a25.59,25.59,0,0,0-6.62-14.23h42.15V138a10.85,10.85,0,0,1,2.94-.33c.81,0,1.61,0,2.43,0a13.89,13.89,0,0,0,2-.12V36.49a12.26,12.26,0,0,0-2.56-.22c-.83,0-1.68,0-2.56,0a18.28,18.28,0,0,1-2.05-.1V29.57H106v6.69H98.52V98.48l-14.32-11V22.61h7.37V15H214.23m0-5H91.56a5,5,0,0,0-5,5v2.61H84.19a5,5,0,0,0-5,5V87.45a5,5,0,0,0,1.95,4l4.18,3.22,10.15,7.82a5,5,0,0,0,8.05-4V41.26H106a5,5,0,0,0,5-5V34.57h84.49v1.64a5,5,0,0,0,4.44,5,23,23,0,0,0,2.61.13h.12v91.33a15,15,0,0,0-3.71.51,5,5,0,0,0-3.67,4.82v2.22H158.17a5,5,0,0,0-3.68,8.39,20.71,20.71,0,0,1,5.35,11.57,5,5,0,0,0,4.95,4.27h49.47a5,5,0,0,0,5-5V157h2.31a5,5,0,0,0,5-5V22.4a5,5,0,0,0-5-5h-2.33V15a5,5,0,0,0-5-5Z"/><path class="cls-2" d="M119.56,204.45a16.09,16.09,0,0,1-9.81-3.6C93.44,188.24,76.9,175.37,60.9,162.93l-8-6.19c-3.69-2.87-4.14-6.26-1.33-10.08,2.15-2.94,3.82-5.21,6-6L52,136.31c-4.83-3.76-5.22-6.55-1.6-11.51,1.67-2.28,3.26-4.45,5.56-5.13-3.57-3.18-3.68-6.16-.51-10.34,2.51-3.31,4.32-5.7,7.23-5.7a7.82,7.82,0,0,1,4.38,1.7,7.41,7.41,0,0,1,1.42-3.79c.85-1.23,1.77-2.39,2.67-3.51,1.14-1.44,2.91-3.26,5.53-3.26a7.91,7.91,0,0,1,4.85,2q9.9,7.67,19.79,15.37l8.83,6.87,5.87,4.55a54.51,54.51,0,0,1,.13-8.13c.62-6.85,3.66-9.68,10.48-9.75H127a33.09,33.09,0,0,1,6.74.71,6.89,6.89,0,0,1,4.83,3.29,2.51,2.51,0,0,1,.22.51,6.23,6.23,0,0,1,0,3.88c-1.72,5.16-1.41,10.73,1,17.52,2,5.58,4.77,10.69,8,16.32a5.69,5.69,0,0,0,1.49,1.45l.56.45c7,5.71,8,14.34,2.54,21.5-7.67,10-14.47,18.81-20.79,26.87C128.32,202.22,124.08,204.45,119.56,204.45Z"/><path class="cls-2" d="M76.65,97.28A5.66,5.66,0,0,1,80,98.75q14.32,11.1,28.61,22.24l10.52,8.16a53.79,53.79,0,0,1-.49-13.49c.5-5.54,2.48-7.42,8-7.48h.32a30.9,30.9,0,0,1,6.25.66,4.45,4.45,0,0,1,3.17,2.09,3.72,3.72,0,0,1,0,2.35c-2.16,6.51-1.21,12.86,1,19.13a102.46,102.46,0,0,0,8.17,16.73,9.77,9.77,0,0,0,2.64,2.59c5.94,4.84,6.83,11.91,2.14,18Q140,183.26,129.53,196.62c-2.76,3.52-6.29,5.32-10,5.32a13.56,13.56,0,0,1-8.28-3.08q-28.45-22-56.8-44.09c-2.65-2.06-2.85-3.91-.85-6.63,2.62-3.57,3.95-5.24,5.63-5.24,1.46,0,3.18,1.26,6.22,3.62l15.15,11.79c.85-.18,1.08-.86,1.66-1.59q-4.85-3.79-9.69-7.58-9.54-7.41-19.08-14.81c-3.79-2.95-3.88-4.27-1.12-8.06,2-2.7,3.24-4.32,5.06-4.32,1.38,0,3.09.93,5.68,3,8.87,7.17,18,14,27,21.07a2.37,2.37,0,0,0,1.37-1.42c-.15-.88-.95-1.17-1.52-1.61Q74.24,130.74,58.44,118.5c-3.42-2.66-3.62-4.21-1-7.65,2.43-3.21,3.69-4.71,5.24-4.71,1.34,0,2.89,1.11,5.58,3.21l31.32,24.3c1,0,1.22-.84,1.68-1.59L76.51,112.84c-1.74-1.35-3.52-2.66-5.21-4.07-2.06-1.71-2.3-3.6-.78-5.8.82-1.18,1.72-2.31,2.61-3.43,1.21-1.51,2.31-2.26,3.52-2.26m0-5c-4.13,0-6.62,3.12-7.43,4.14-.95,1.19-1.91,2.39-2.82,3.71a11.73,11.73,0,0,0-.9,1.54,8,8,0,0,0-2.83-.53c-4.16,0-6.62,3.25-9.23,6.69-3.17,4.19-3.65,7.83-1.38,11.21a24.18,24.18,0,0,0-3.69,4.29c-4.41,6-3.81,10.37,2.08,15l2.92,2.27a37.29,37.29,0,0,0-3.77,4.63c-3.6,4.91-2.94,9.84,1.81,13.53L59,164.66c16.1,12.52,32.76,25.47,49.18,38.16a18.56,18.56,0,0,0,11.34,4.13c5.3,0,10.24-2.57,13.9-7.24,6.3-8,13.11-16.83,20.8-26.89,6.36-8.31,5.17-18.34-3-25l-.6-.47a7.64,7.64,0,0,1-.88-.75,97.43,97.43,0,0,1-7.78-15.88c-2.21-6.32-2.51-11.23-1-15.9a8.67,8.67,0,0,0,0-5.41,5,5,0,0,0-.45-1,9.36,9.36,0,0,0-6.49-4.49,35.63,35.63,0,0,0-7.25-.76h-.37c-8.09.09-12.21,3.91-12.95,12q-.15,1.6-.2,3.21L111.65,117,102.56,110Q92.8,102.38,83,94.8a10.38,10.38,0,0,0-6.38-2.52Z"/><path class="cls-2" d="M33.52,139.43a2.5,2.5,0,0,1-2.5-2.64,6.49,6.49,0,0,0-3.95-6.86c-2.82-1.38-5.94-2-10.42-2h-.24a2.5,2.5,0,0,1-1.33-4.62c5.7-3.57,7.46-6.27,6.74-10.33-.83-4.63-3.81-7.79-8.37-11.4a2.5,2.5,0,0,1,1-4.4c1.74-.37,3.33-.58,4.88-.79a36.82,36.82,0,0,0,4.82-.84c5.73-1.56,8.69-5.21,9.05-11.15.39-6.45-1-12.81-2.45-18.19a6.37,6.37,0,0,1-.25-2.35,2.5,2.5,0,0,1,4.19-1.6c1.12,1,2.13,2.12,3.12,3.17a41.31,41.31,0,0,0,3.81,3.75c5,4.13,9.66,6.14,14.2,6.14S65.16,73.28,70.19,69c.23-.2.48-.38.74-.58l.29-.21a2.5,2.5,0,0,1,4,1.56c1.08,6.13-2.53,13-8.57,16.34-3.87,2.14-8,3.09-12,4l-2,.46-3.92,1-.24.06A34.31,34.31,0,0,0,47.91,98l0,.64c-.14,5.54-2.38,9.1-6.65,10.62a25,25,0,0,0,.83,6.33c.12.57.25,1.14.36,1.71s.24,1,.39,1.53.33,1.18.46,1.78c1.74,8.32-.8,13.83-8.48,18.43A2.49,2.49,0,0,1,33.52,139.43Z"/><path class="cls-2" d="M33,64.14c2.45,2.26,4.47,4.9,7,7,5.42,4.47,10.62,6.71,15.8,6.71s10.52-2.32,16-7c.28-.24.59-.45.92-.71.9,5.13-2.2,10.89-7.32,13.72-4.17,2.3-8.8,3.13-13.35,4.21-1.85.44-3.7.9-5.62,1.37a32.4,32.4,0,0,0-1,9.13c-.11,4.31-1.52,7.72-6.44,8.73-.69,3.65.34,7.05,1,10.48.22,1.12.62,2.21.85,3.33,1.5,7.19-.54,11.71-7.32,15.77a9,9,0,0,0-5.35-9.25c-3.36-1.64-7-2.22-11.53-2.22h-.24c5.21-3.26,9-6.74,7.87-12.89-1-5.58-4.66-9.26-9.28-12.92,3.6-.77,6.78-.83,9.83-1.66,6.78-1.84,10.46-6.37,10.89-13.41.39-6.5-.88-12.76-2.53-19A3.89,3.89,0,0,1,33,64.14m0-5a5,5,0,0,0-5,4.51,8.73,8.73,0,0,0,.32,3.24c1.45,5.45,2.74,11.32,2.37,17.4-.3,4.87-2.52,7.61-7.21,8.89a34.54,34.54,0,0,1-4.49.78c-1.52.2-3.24.43-5.08.82a5,5,0,0,0-2.05,8.81c4.1,3.24,6.77,6,7.46,9.87.46,2.6-.26,4.42-5.6,7.77a5,5,0,0,0,2.65,9.24h.24c4.09,0,6.88.51,9.33,1.71,2,1,2.68,2.18,2.55,4.47a5,5,0,0,0,7.56,4.58c8.52-5.1,11.59-11.8,9.65-21.08-.15-.71-.33-1.37-.5-2s-.27-1-.35-1.34c-.12-.58-.24-1.16-.37-1.75a34.77,34.77,0,0,1-.74-4.17c3.42-1.76,6.44-5.28,6.62-12.18l0-.64c0-1.57.07-3.08.25-4.51L53.22,93l2-.45c4.17-1,8.49-1.94,12.67-4.25,7.06-3.9,11.1-11.7,9.82-19a5,5,0,0,0-8-3.11l-.26.2c-.26.19-.55.41-.87.68C64,71,59.85,72.86,55.84,72.86S47.77,71,43.22,67.29a39.65,39.65,0,0,1-3.57-3.52c-1-1.09-2.06-2.21-3.25-3.3A5,5,0,0,0,33,59.14Z"/><path class="cls-2" d="M148.81,132.53a2.5,2.5,0,0,1-2.33-1.59c-1.81-4.63-3.36-10.18-1.11-16.33a9.17,9.17,0,0,0,.22-3.43c0-.7-.07-1.43,0-2.2a2.5,2.5,0,0,1,2.5-2.44h37.21a2.5,2.5,0,0,1,2.5,2.5v13.56a2.5,2.5,0,0,1-2.5,2.5H181.1V130a2.5,2.5,0,0,1-2.5,2.5Z"/><path class="cls-2" d="M185.26,109v13.56H178.6V130H148.81c-1.87-4.78-2.93-9.53-1.09-14.56.74-2,.28-4.17.33-6.43h37.21m0-5H148a5,5,0,0,0-5,4.88c0,.86,0,1.66.05,2.37a8.58,8.58,0,0,1-.07,2.45c-2.56,7-.74,13.34,1.13,18.1a5,5,0,0,0,4.66,3.18H178.6a5,5,0,0,0,5-5v-2.43h1.66a5,5,0,0,0,5-5V109a5,5,0,0,0-5-5Z"/><path class="cls-2" d="M156.82,103.82a2.5,2.5,0,0,1-2.5-2.5V65.86a2.5,2.5,0,0,1,2.5-2.5h14.11a2.5,2.5,0,0,1,2.5,2.5v4.71h4.93a2.5,2.5,0,0,1,2.5,2.5v28.25a2.5,2.5,0,0,1-2.5,2.5Z"/><path class="cls-2" d="M170.93,65.86v7.21h7.43v28.25H156.82V65.86h14.11m0-5H156.82a5,5,0,0,0-5,5v35.45a5,5,0,0,0,5,5h21.54a5,5,0,0,0,5-5V73.07a5,5,0,0,0-5-5h-2.43V65.86a5,5,0,0,0-5-5Z"/><rect class="cls-2" x="124.97" y="77.2" width="19.68" height="19.57" rx="2.5" ry="2.5"/><path class="cls-2" d="M142.15,79.7V94.28H127.47V79.7h14.68m0-5H127.47a5,5,0,0,0-5,5V94.28a5,5,0,0,0,5,5h14.68a5,5,0,0,0,5-5V79.7a5,5,0,0,0-5-5Z"/><rect class="cls-2" x="183.06" y="77.13" width="19.73" height="19.73" rx="2.5" ry="2.5"/><path class="cls-2" d="M200.29,79.63V94.35H185.56V79.63h14.73m0-5H185.56a5,5,0,0,0-5,5V94.35a5,5,0,0,0,5,5h14.73a5,5,0,0,0,5-5V79.63a5,5,0,0,0-5-5Z"/><rect class="cls-3" x="81.69" y="24.32" width="129.79" height="137.6" rx="2.5" ry="2.5"/><path class="cls-3" d="M209,26.82v132.6H84.19V26.82H209m0-5H84.19a5,5,0,0,0-5,5v132.6a5,5,0,0,0,5,5H209a5,5,0,0,0,5-5V26.82a5,5,0,0,0-5-5Z"/><path class="cls-1" d="M164.78,161.93a2.5,2.5,0,0,1-2.47-2.14,23.1,23.1,0,0,0-6-12.9,2.5,2.5,0,0,1,1.84-4.19h39.65V138a2.5,2.5,0,0,1,1.83-2.41,13.34,13.34,0,0,1,3.61-.42l1.27,0,.66,0V38.78h-.06l-1.19,0-1.37,0a20.63,20.63,0,0,1-2.33-.12A2.5,2.5,0,0,1,198,36.21V32.07H108.53v4.19a2.5,2.5,0,0,1-2.5,2.5h-5V98.48a2.5,2.5,0,0,1-4,2l-14.32-11a2.5,2.5,0,0,1-1-2V22.61a2.5,2.5,0,0,1,2.5-2.5h4.87V15a2.5,2.5,0,0,1,2.5-2.5H214.23a2.5,2.5,0,0,1,2.5,2.5v4.9h4.83a2.5,2.5,0,0,1,2.5,2.5V152a2.5,2.5,0,0,1-2.5,2.5h-4.81v4.9a2.5,2.5,0,0,1-2.5,2.5Z"/><path class="cls-3" d="M214.23,15v7.4h7.33V152h-7.31v7.4H164.78a25.59,25.59,0,0,0-6.62-14.23h42.15V138a10.85,10.85,0,0,1,2.94-.33c.81,0,1.61,0,2.43,0a13.89,13.89,0,0,0,2-.12V36.49a12.26,12.26,0,0,0-2.56-.22c-.83,0-1.68,0-2.56,0a18.28,18.28,0,0,1-2.05-.1V29.57H106v6.69H98.52V98.48l-14.32-11V22.61h7.37V15H214.23m0-5H91.56a5,5,0,0,0-5,5v2.61H84.19a5,5,0,0,0-5,5V87.45a5,5,0,0,0,1.95,4l4.18,3.22,10.15,7.82a5,5,0,0,0,8.05-4V41.26H106a5,5,0,0,0,5-5V34.57h84.49v1.64a5,5,0,0,0,4.44,5,23,23,0,0,0,2.61.13h.12v91.33a15,15,0,0,0-3.71.51,5,5,0,0,0-3.67,4.82v2.22H158.17a5,5,0,0,0-3.68,8.39,20.71,20.71,0,0,1,5.35,11.57,5,5,0,0,0,4.95,4.27h49.47a5,5,0,0,0,5-5V157h2.31a5,5,0,0,0,5-5V22.4a5,5,0,0,0-5-5h-2.33V15a5,5,0,0,0-5-5Z"/><path class="cls-1" d="M119.56,204.45a16.09,16.09,0,0,1-9.81-3.6C93.44,188.24,76.9,175.37,60.9,162.93l-8-6.19c-3.69-2.87-4.14-6.26-1.33-10.08,2.15-2.94,3.82-5.21,6-6L52,136.31c-4.83-3.76-5.22-6.55-1.6-11.51,1.67-2.28,3.26-4.45,5.56-5.13-3.57-3.18-3.68-6.16-.51-10.34,2.51-3.31,4.32-5.7,7.23-5.7a7.82,7.82,0,0,1,4.38,1.7,7.41,7.41,0,0,1,1.42-3.79c.85-1.23,1.77-2.39,2.67-3.51,1.14-1.44,2.91-3.26,5.53-3.26a7.91,7.91,0,0,1,4.85,2q9.9,7.67,19.79,15.37l8.83,6.87,5.87,4.55a54.51,54.51,0,0,1,.13-8.13c.62-6.85,3.66-9.68,10.48-9.75H127a33.09,33.09,0,0,1,6.74.71,6.89,6.89,0,0,1,4.83,3.29,2.51,2.51,0,0,1,.22.51,6.23,6.23,0,0,1,0,3.88c-1.72,5.16-1.41,10.73,1,17.52,2,5.58,4.77,10.69,8,16.32a5.69,5.69,0,0,0,1.49,1.45l.56.45c7,5.71,8,14.34,2.54,21.5-7.67,10-14.47,18.81-20.79,26.87C128.32,202.22,124.08,204.45,119.56,204.45Z"/><path class="cls-3" d="M76.65,97.28A5.66,5.66,0,0,1,80,98.75q14.32,11.1,28.61,22.24l10.52,8.16a53.79,53.79,0,0,1-.49-13.49c.5-5.54,2.48-7.42,8-7.48h.32a30.9,30.9,0,0,1,6.25.66,4.45,4.45,0,0,1,3.17,2.09,3.72,3.72,0,0,1,0,2.35c-2.16,6.51-1.21,12.86,1,19.13a102.46,102.46,0,0,0,8.17,16.73,9.77,9.77,0,0,0,2.64,2.59c5.94,4.84,6.83,11.91,2.14,18Q140,183.26,129.53,196.62c-2.76,3.52-6.29,5.32-10,5.32a13.56,13.56,0,0,1-8.28-3.08q-28.45-22-56.8-44.09c-2.65-2.06-2.85-3.91-.85-6.63,2.62-3.57,3.95-5.24,5.63-5.24,1.46,0,3.18,1.26,6.22,3.62l15.15,11.79c.85-.18,1.08-.86,1.66-1.59q-4.85-3.79-9.69-7.58-9.54-7.41-19.08-14.81c-3.79-2.95-3.88-4.27-1.12-8.06,2-2.7,3.24-4.32,5.06-4.32,1.38,0,3.09.93,5.68,3,8.87,7.17,18,14,27,21.07a2.37,2.37,0,0,0,1.37-1.42c-.15-.88-.95-1.17-1.52-1.61Q74.24,130.74,58.44,118.5c-3.42-2.66-3.62-4.21-1-7.65,2.43-3.21,3.69-4.71,5.24-4.71,1.34,0,2.89,1.11,5.58,3.21l31.32,24.3c1,0,1.22-.84,1.68-1.59L76.51,112.84c-1.74-1.35-3.52-2.66-5.21-4.07-2.06-1.71-2.3-3.6-.78-5.8.82-1.18,1.72-2.31,2.61-3.43,1.21-1.51,2.31-2.26,3.52-2.26m0-5c-4.13,0-6.62,3.12-7.43,4.14-.95,1.19-1.91,2.39-2.82,3.71a11.73,11.73,0,0,0-.9,1.54,8,8,0,0,0-2.83-.53c-4.16,0-6.62,3.25-9.23,6.69-3.17,4.19-3.65,7.83-1.38,11.21a24.18,24.18,0,0,0-3.69,4.29c-4.41,6-3.81,10.37,2.08,15l2.92,2.27a37.29,37.29,0,0,0-3.77,4.63c-3.6,4.91-2.94,9.84,1.81,13.53L59,164.66c16.1,12.52,32.76,25.47,49.18,38.16a18.56,18.56,0,0,0,11.34,4.13c5.3,0,10.24-2.57,13.9-7.24,6.3-8,13.11-16.83,20.8-26.89,6.36-8.31,5.17-18.34-3-25l-.6-.47a7.64,7.64,0,0,1-.88-.75,97.43,97.43,0,0,1-7.78-15.88c-2.21-6.32-2.51-11.23-1-15.9a8.67,8.67,0,0,0,0-5.41,5,5,0,0,0-.45-1,9.36,9.36,0,0,0-6.49-4.49,35.63,35.63,0,0,0-7.25-.76h-.37c-8.09.09-12.21,3.91-12.95,12q-.15,1.6-.2,3.21L111.65,117,102.56,110Q92.8,102.38,83,94.8a10.38,10.38,0,0,0-6.38-2.52Z"/><path class="cls-4" d="M33.52,139.43a2.5,2.5,0,0,1-2.5-2.64,6.49,6.49,0,0,0-3.95-6.86c-2.82-1.38-5.94-2-10.42-2h-.24a2.5,2.5,0,0,1-1.33-4.62c5.7-3.57,7.46-6.27,6.74-10.33-.83-4.63-3.81-7.79-8.37-11.4a2.5,2.5,0,0,1,1-4.4c1.74-.37,3.33-.58,4.88-.79a36.82,36.82,0,0,0,4.82-.84c5.73-1.56,8.69-5.21,9.05-11.15.39-6.45-1-12.81-2.45-18.19a6.37,6.37,0,0,1-.25-2.35,2.5,2.5,0,0,1,4.19-1.6c1.12,1,2.13,2.12,3.12,3.17a41.31,41.31,0,0,0,3.81,3.75c5,4.13,9.66,6.14,14.2,6.14S65.16,73.28,70.19,69c.23-.2.48-.38.74-.58l.29-.21a2.5,2.5,0,0,1,4,1.56c1.08,6.13-2.53,13-8.57,16.34-3.87,2.14-8,3.09-12,4l-2,.46-3.92,1-.24.06A34.31,34.31,0,0,0,47.91,98l0,.64c-.14,5.54-2.38,9.1-6.65,10.62a25,25,0,0,0,.83,6.33c.12.57.25,1.14.36,1.71s.24,1,.39,1.53.33,1.18.46,1.78c1.74,8.32-.8,13.83-8.48,18.43A2.49,2.49,0,0,1,33.52,139.43Z"/><path class="cls-3" d="M33,64.14c2.45,2.26,4.47,4.9,7,7,5.42,4.47,10.62,6.71,15.8,6.71s10.52-2.32,16-7c.28-.24.59-.45.92-.71.9,5.13-2.2,10.89-7.32,13.72-4.17,2.3-8.8,3.13-13.35,4.21-1.85.44-3.7.9-5.62,1.37a32.4,32.4,0,0,0-1,9.13c-.11,4.31-1.52,7.72-6.44,8.73-.69,3.65.34,7.05,1,10.48.22,1.12.62,2.21.85,3.33,1.5,7.19-.54,11.71-7.32,15.77a9,9,0,0,0-5.35-9.25c-3.36-1.64-7-2.22-11.53-2.22h-.24c5.21-3.26,9-6.74,7.87-12.89-1-5.58-4.66-9.26-9.28-12.92,3.6-.77,6.78-.83,9.83-1.66,6.78-1.84,10.46-6.37,10.89-13.41.39-6.5-.88-12.76-2.53-19A3.89,3.89,0,0,1,33,64.14m0-5a5,5,0,0,0-5,4.51,8.73,8.73,0,0,0,.32,3.24c1.45,5.45,2.74,11.32,2.37,17.4-.3,4.87-2.52,7.61-7.21,8.89a34.54,34.54,0,0,1-4.49.78c-1.52.2-3.24.43-5.08.82a5,5,0,0,0-2.05,8.81c4.1,3.24,6.77,6,7.46,9.87.46,2.6-.26,4.42-5.6,7.77a5,5,0,0,0,2.65,9.24h.24c4.09,0,6.88.51,9.33,1.71,2,1,2.68,2.18,2.55,4.47a5,5,0,0,0,7.56,4.58c8.52-5.1,11.59-11.8,9.65-21.08-.15-.71-.33-1.37-.5-2s-.27-1-.35-1.34c-.12-.58-.24-1.16-.37-1.75a34.77,34.77,0,0,1-.74-4.17c3.42-1.76,6.44-5.28,6.62-12.18l0-.64c0-1.57.07-3.08.25-4.51L53.22,93l2-.45c4.17-1,8.49-1.94,12.67-4.25,7.06-3.9,11.1-11.7,9.82-19a5,5,0,0,0-8-3.11l-.26.2c-.26.19-.55.41-.87.68C64,71,59.85,72.86,55.84,72.86S47.77,71,43.22,67.29a39.65,39.65,0,0,1-3.57-3.52c-1-1.09-2.06-2.21-3.25-3.3A5,5,0,0,0,33,59.14Z"/><path class="cls-1" d="M148.81,132.53a2.5,2.5,0,0,1-2.33-1.59c-1.81-4.63-3.36-10.18-1.11-16.33a9.17,9.17,0,0,0,.22-3.43c0-.7-.07-1.43,0-2.2a2.5,2.5,0,0,1,2.5-2.44h37.21a2.5,2.5,0,0,1,2.5,2.5v13.56a2.5,2.5,0,0,1-2.5,2.5H181.1V130a2.5,2.5,0,0,1-2.5,2.5Z"/><path class="cls-3" d="M185.26,109v13.56H178.6V130H148.81c-1.87-4.78-2.93-9.53-1.09-14.56.74-2,.28-4.17.33-6.43h37.21m0-5H148a5,5,0,0,0-5,4.88c0,.86,0,1.66.05,2.37a8.58,8.58,0,0,1-.07,2.45c-2.56,7-.74,13.34,1.13,18.1a5,5,0,0,0,4.66,3.18H178.6a5,5,0,0,0,5-5v-2.43h1.66a5,5,0,0,0,5-5V109a5,5,0,0,0-5-5Z"/><path class="cls-1" d="M156.82,103.82a2.5,2.5,0,0,1-2.5-2.5V65.86a2.5,2.5,0,0,1,2.5-2.5h14.11a2.5,2.5,0,0,1,2.5,2.5v4.71h4.93a2.5,2.5,0,0,1,2.5,2.5v28.25a2.5,2.5,0,0,1-2.5,2.5Z"/><path class="cls-3" d="M170.93,65.86v7.21h7.43v28.25H156.82V65.86h14.11m0-5H156.82a5,5,0,0,0-5,5v35.45a5,5,0,0,0,5,5h21.54a5,5,0,0,0,5-5V73.07a5,5,0,0,0-5-5h-2.43V65.86a5,5,0,0,0-5-5Z"/><rect class="cls-1" x="124.97" y="77.2" width="19.68" height="19.57" rx="2.5" ry="2.5"/><path class="cls-3" d="M142.15,79.7V94.28H127.47V79.7h14.68m0-5H127.47a5,5,0,0,0-5,5V94.28a5,5,0,0,0,5,5h14.68a5,5,0,0,0,5-5V79.7a5,5,0,0,0-5-5Z"/><rect class="cls-1" x="183.06" y="77.13" width="19.73" height="19.73" rx="2.5" ry="2.5"/><path class="cls-3" d="M200.29,79.63V94.35H185.56V79.63h14.73m0-5H185.56a5,5,0,0,0-5,5V94.35a5,5,0,0,0,5,5h14.73a5,5,0,0,0,5-5V79.63a5,5,0,0,0-5-5Z"/></g></g></svg>