<svg xmlns="http://www.w3.org/2000/svg" viewBox="0 0 3247.44 232.58"><defs><style>.cls-1{fill:#fed711;}.cls-2{fill:#fff;}.cls-3{fill:#f15b2c;}.cls-4{fill:#fed612;}.cls-5{fill:#252524;}.cls-6{fill:#ec2328;}.cls-7{fill:#fffffe;}.cls-8{fill:#f15b2e;}</style></defs><title>SlugS-Logo-Long</title><g id="Layer_2" data-name="Layer 2"><g id="Layer_1-2" data-name="Layer 1"><path class="cls-1" d="M3164.48,105.95l4,4.69c-2.6,0-5,0-7.47,0h-148.3l-835.46,0-144.35,0-705.28,0H54.18a3,3,0,0,0-.56.11l-.46-.12c0-1.18,0-2.37,0-3.55,0-22.56.1-45.11-.24-67.66a7.56,7.56,0,0,1,.36-3c.92-2.24,4.05-2.16,6.07-2.16,27.21.06,1264.5.16,1291.72.16h11.63l624.87,0c10.32,0,20.64,0,31,0q20.63,0,41.25,0c12.82,0,25.64,0,38.45,0q22.53,0,45.07,0h80.18c11.43,0,22.87,0,34.3,0l45.08,0,710.7,0q22.54,0,45.08,0c13.69,0,27.37,0,41.06,0a2.14,2.14,0,0,1,1.8.87q25.84,29.07,51.69,58.13C3157,97.58,3160.72,101.76,3164.48,105.95Z"/><path class="cls-2" d="M53.4,33.66a.59.59,0,0,1,.43.62.65.65,0,0,1-.62.08Z"/><path class="cls-2" d="M83.78,34.32c1-.78,1.19-.79,1.51,0A3.35,3.35,0,0,1,83.78,34.32Z"/><path class="cls-2" d="M69.87,34.32c1-.78,1.19-.79,1.51,0A3.32,3.32,0,0,1,69.87,34.32Z"/><path class="cls-2" d="M56,34.32c1-.78,1.19-.79,1.51,0A3.32,3.32,0,0,1,56,34.32Z"/><path class="cls-2" d="M97.69,34.32c.5-.36,1-1.2,1.51,0A3.35,3.35,0,0,1,97.69,34.32Z"/><path class="cls-2" d="M104.68,34.32c.07-.34.23-.6.61-.6s.41.29.37.59C105.34,34.49,105,34.33,104.68,34.32Z"/><path class="cls-2" d="M94.49,34.31c.07-.34.23-.6.61-.59s.42.28.37.58C95.15,34.49,94.82,34.34,94.49,34.31Z"/><path class="cls-2" d="M90.77,34.32c.07-.34.23-.61.61-.6s.41.29.37.59C91.43,34.49,91.1,34.33,90.77,34.32Z"/><path class="cls-2" d="M80.58,34.31c.07-.34.23-.6.61-.6s.42.28.37.58C81.24,34.49,80.91,34.33,80.58,34.31Z"/><path class="cls-2" d="M76.85,34.32c.07-.34.23-.61.61-.6s.41.29.37.59C77.51,34.49,77.18,34.33,76.85,34.32Z"/><path class="cls-2" d="M66.67,34.31c.07-.34.23-.6.61-.6s.41.28.37.58C67.32,34.49,67,34.33,66.67,34.31Z"/><path class="cls-2" d="M62.94,34.32c.07-.34.23-.6.61-.6s.45.25.46.56C63.66,34.51,63.3,34.33,62.94,34.32Z"/><path class="cls-2" d="M101.18,34.3c.26-.5.52-.52.77,0A.86.86,0,0,1,101.18,34.3Z"/><path class="cls-2" d="M87.27,34.3c.26-.5.52-.52.77,0A.87.87,0,0,1,87.27,34.3Z"/><path class="cls-2" d="M73.35,34.3c.26-.5.52-.52.77,0A.87.87,0,0,1,73.35,34.3Z"/><path class="cls-2" d="M59.44,34.3c.26-.5.52-.52.77,0A.87.87,0,0,1,59.44,34.3Z"/><path class="cls-3" d="M0,186.77c2.93-.3,6.22-.12,9.15-.12l2149.54,0,90.77,0h997c.31,0,.62,0,1,0,0-.51-.43-.77-.7-1.09l-61.32-73.89c-.29-.35-.73-.63-.8-1.15l-.7-.19a81.69,81.69,0,0,1-8.68.13q-56.34,0-112.67,0H0Z"/><path class="cls-4" d="M1355.22,28.48a48.51,48.51,0,0,0,2-4.41,41.51,41.51,0,0,1,21.49-19.78A55.36,55.36,0,0,1,1409.5.76a48,48,0,0,1,26,12.68c.11.11.25.19.38.3.36-.28.24-.65.24-1,0-3.23,0-6.46,0-9.69,0-1,.2-1.28,1.21-1.28,10.29,0,20.57,0,30.86,0,6.82,0,13.64,0,20.45,0,1.07,0,1.33.29,1.33,1.31q0,27.93,0,55.86,0,8.91,0,17.82c0,.7.11,1,1,1q4.6-.11,9.21,0c1,0,1.28-.18,1.28-1.2q-.06-21.89,0-43.78,0-15,0-29.9c0-.88.22-1.13,1.11-1.13q28.77,0,57.53,0c12.8,0,25.6,0,38.39,0,1.1,0,1.23.38,1.22,1.28,0,3.15,0,6.29,0,9.54,1.51-1.18,2.88-2.34,4.33-3.37,9-6.44,19.26-9.07,30.23-9.21a53.6,53.6,0,0,1,18.51,2.76A40.06,40.06,0,0,1,1673,18.7a64.15,64.15,0,0,1,7.4,16.37,95.21,95.21,0,0,1,4,18.08c.73,6.31.58,12.67.59,19q0,10.41,0,20.81,0,16.44,0,32.88c0,1-.19,1.3-1.21,1.29-15.71,0-31.44,1.52-47.16,1.13a78.19,78.19,0,0,1-23.91-3.91,39,39,0,0,1-19-14c-1.33-1.76-1.34-1.74-2.61.09a39.64,39.64,0,0,1-17.45,14.07,40.79,40.79,0,0,1-11,3.2,122.43,122.43,0,0,1-14.83.38c-1.78,0-3.57-.1-5.35-.16-12.67-.41-25.33-.77-38-.92-14.71-.17-29.44.1-44.12,0h-23.08c-.92,0-1.25-.14-1.22-1.16.08-2.67,0-5.34,0-8.16-1.2.88-2.28,1.72-3.41,2.49-8.56,5.83-18.16,8.28-28.39,8.58a64.61,64.61,0,0,1-14.53-1.11c-.19,0-.39-.1-.54.09l-7.65-2c0-.25-.23-.29-.42-.35a51.05,51.05,0,0,1-24.67-18.74c-4.86-6.72-8-14.38-11.85-21.64-.28-.52,0-.68.37-.88,2-1,3.92-2,5.88-3l14.77-7.53a4.24,4.24,0,0,0-.33-.43c-9.33-9.11-13-20.32-12.27-33.14.1-1.77.31-3.54.48-5.31Zm297.49,71.79c0,.52.07.75.07,1,0,3.31.06,6.62,0,9.93,0,1,.31,1.08,1.13,1.08q7.54,0,15.07,0c.85,0,1.13-.21,1.13-1.13q-.06-23.27,0-46.53c0-.77-.12-1-1-1q-15.67,0-31.34,0c-.88,0-1,.28-1,1.05q0,7.84,0,15.67c0,.77.23,1,1,1,3.19,0,6.38,0,9.57,0,.79,0,1.16.08.87,1a32.5,32.5,0,0,1-1.42,4.2c-2.19,4.75-5.7,7.59-11.09,7.79s-9.4-2-11.84-6.9a31.49,31.49,0,0,1-2.79-9.5,98.4,98.4,0,0,1-.53-23,35.44,35.44,0,0,1,3.25-13.19,11,11,0,0,1,14.49-5.39,10,10,0,0,1,4.76,5,41.67,41.67,0,0,1,3.38,11.32c.1.54.12,1,.94.79,6.76-1.39,13.53-2.73,20.3-4.07.52-.1.75-.27.65-.86-1.29-7.15-3.08-14.14-7-20.4a25.69,25.69,0,0,0-16.05-11.85,44.57,44.57,0,0,0-15.93-.95c-10.44,1.14-19,5.67-24.92,14.51a48.18,48.18,0,0,0-7.34,19.85,93.51,93.51,0,0,0,.5,32.27c1.33,6.93,3.61,13.54,7.89,19.25,7.53,10.08,17.86,13.8,30,12.22C1643.41,112.35,1649.31,108,1652.71,100.26ZM1538.5,112.42a42.07,42.07,0,0,0,9.62,1.26c6.34.21,12.61-.21,18.63-2.42a24.33,24.33,0,0,0,14.46-13.5,42.08,42.08,0,0,0,3.33-17.05c.09-21,.05-41.95.08-62.92,0-.83-.24-1-1.09-1q-10.35.06-20.7,0c-.89,0-1.11.22-1.1,1.13q.05,24.88,0,49.76c0,5.62.41,11.26-.52,16.84-.5,3-1.48,5.86-4.2,7.65A10.48,10.48,0,0,1,1541.1,86a35.82,35.82,0,0,1-.89-8.9q0-29.61,0-59.21c0-1-.26-1.15-1.2-1.15q-10.83.07-21.65,0c-1,0-1.21.29-1.21,1.24q.05,27.09,0,54.19c0,5.66-.15,11.32.9,16.93C1519.3,100.89,1525.63,109,1538.5,112.42Zm-127.71-96.2a42.78,42.78,0,0,0-22.7.44c-15.55,4.8-23,18.23-19.33,33.84,1.78,7.54,6.67,12.74,13.12,16.67,5.94,3.61,12.49,5.86,18.86,8.53a29.76,29.76,0,0,1,8.8,5,7.94,7.94,0,0,1,2.5,8.58c-.9,3.25-3.31,4.77-6.41,5.38a16.32,16.32,0,0,1-13.33-3.18A31.47,31.47,0,0,1,1384.1,82c-.25-.42-.35-1-1.12-.56q-9,4.62-18,9.16c-.53.27-.57.5-.31,1a42.92,42.92,0,0,0,11,13.89,37.57,37.57,0,0,0,19,7.88c7.13.94,14.2.79,21.08-1.43,9.41-3,16.22-8.89,19-18.66,2.22-7.9,1.39-15.54-3.14-22.54-3-4.64-7.36-7.8-12.12-10.45-5.67-3.16-11.82-5.24-17.68-8a27,27,0,0,1-8-5,7.52,7.52,0,0,1-2.16-8c1-3.17,3.49-4.44,6.53-4.8a13.93,13.93,0,0,1,11.51,3.93,28.84,28.84,0,0,1,5.67,7.68c.27.5.41.86,1.12.46q8.54-4.77,17.12-9.46c.57-.31.6-.59.31-1.1-.71-1.21-1.34-2.46-2.08-3.65C1426.87,24.45,1420.09,18.68,1410.79,16.22Zm99.09,95.51c0-.25,0-.49,0-.73,0-5.62-.05-11.24,0-16.87,0-1.23-.32-1.48-1.48-1.47-10.77,0-21.53,0-32.3,0-.91,0-1.13-.21-1.13-1.1,0-7.46,0-14.91,0-22.37q0-25.66,0-51.32c0-1-.3-1.22-1.28-1.22q-10.83.06-21.65,0c-1,0-1.14.3-1.14,1.22q.05,46.53,0,93.06c0,.9.15,1.21,1.16,1.21,13.52,0,27,0,40.55,0l16.15,0C1509.24,112.16,1509.75,112.39,1509.87,111.73Z"/><path class="cls-5" d="M1652.71,100.26c-3.4,7.78-9.31,12.09-17.21,13.11-12.17,1.57-22.49-2.15-30-12.22-4.27-5.72-6.55-12.32-7.89-19.25a93.51,93.51,0,0,1-.5-32.27,48.18,48.18,0,0,1,7.34-19.85c6-8.84,14.48-13.37,24.92-14.51a44.57,44.57,0,0,1,15.93.95,25.69,25.69,0,0,1,16.05,11.85c3.88,6.26,5.67,13.25,7,20.4.11.6-.13.76-.65.86-6.77,1.34-13.54,2.68-20.3,4.07-.82.17-.84-.25-.94-.79A41.67,41.67,0,0,0,1643,41.28a10,10,0,0,0-4.76-5,11,11,0,0,0-14.49,5.39,35.44,35.44,0,0,0-3.25,13.19,98.4,98.4,0,0,0,.53,23,31.49,31.49,0,0,0,2.79,9.5c2.44,4.9,6.42,7.11,11.84,6.9s8.91-3,11.09-7.79a32.5,32.5,0,0,0,1.42-4.2c.29-1-.08-1-.87-1-3.19,0-6.38,0-9.57,0-.76,0-1-.22-1-1q0-7.84,0-15.67c0-.78.16-1.06,1-1.05q15.67.07,31.34,0c.84,0,1,.22,1,1q0,23.27,0,46.53c0,.92-.28,1.14-1.13,1.13q-7.54,0-15.07,0c-.82,0-1.15-.12-1.13-1.08.07-3.31,0-6.62,0-9.93C1652.79,101,1652.75,100.78,1652.71,100.26Z"/><path class="cls-5" d="M1538.5,112.42c-12.87-3.4-19.19-11.53-21.4-23.34-1-5.61-.9-11.27-.9-16.93q0-27.09,0-54.19c0-1,.17-1.25,1.21-1.24q10.83.09,21.65,0c.94,0,1.2.2,1.2,1.15q0,29.61,0,59.21a35.82,35.82,0,0,0,.89,8.9A10.48,10.48,0,0,0,1557,92.12c2.72-1.79,3.7-4.62,4.2-7.65.93-5.59.5-11.23.52-16.84q.07-24.88,0-49.76c0-.91.21-1.13,1.1-1.13q10.35.06,20.7,0c.85,0,1.09.2,1.09,1,0,21,0,41.95-.08,62.92a42.08,42.08,0,0,1-3.33,17.05,24.33,24.33,0,0,1-14.46,13.5c-6,2.21-12.29,2.63-18.63,2.42A42.07,42.07,0,0,1,1538.5,112.42Z"/><path class="cls-5" d="M1410.79,16.22c9.31,2.46,16.08,8.22,21.1,16.24.74,1.19,1.37,2.44,2.08,3.65.3.51.27.79-.31,1.1q-8.58,4.69-17.12,9.46c-.71.4-.85,0-1.12-.46a28.84,28.84,0,0,0-5.67-7.68,13.93,13.93,0,0,0-11.51-3.93c-3,.35-5.56,1.63-6.53,4.8a7.52,7.52,0,0,0,2.16,8,27,27,0,0,0,8,5c5.87,2.71,12,4.8,17.68,8,4.76,2.65,9.11,5.81,12.12,10.45,4.54,7,5.36,14.63,3.14,22.54-2.74,9.77-9.54,15.63-19,18.66-6.89,2.22-14,2.36-21.08,1.43a37.57,37.57,0,0,1-19-7.88,42.92,42.92,0,0,1-11-13.89c-.26-.5-.22-.74.31-1q9-4.55,18-9.16c.78-.4.87.14,1.12.56a31.47,31.47,0,0,0,8.19,9.45,16.32,16.32,0,0,0,13.33,3.18c3.1-.61,5.51-2.13,6.41-5.38a7.94,7.94,0,0,0-2.5-8.58,29.76,29.76,0,0,0-8.8-5c-6.36-2.67-12.92-4.92-18.86-8.53-6.45-3.92-11.35-9.13-13.12-16.67-3.67-15.61,3.78-29,19.33-33.84A42.78,42.78,0,0,1,1410.79,16.22Z"/><path class="cls-5" d="M1509.87,111.73c-.12.66-.63.43-1,.43l-16.15,0c-13.52,0-27,0-40.55,0-1,0-1.16-.31-1.16-1.21q0-46.53,0-93.06c0-.91.17-1.22,1.14-1.22q10.83.07,21.65,0c1,0,1.28.2,1.28,1.22q0,25.66,0,51.32c0,7.46,0,14.91,0,22.37,0,.89.22,1.1,1.13,1.1,10.77,0,21.53,0,32.3,0,1.16,0,1.5.25,1.48,1.47-.08,5.62,0,11.24,0,16.87C1509.87,111.24,1509.87,111.48,1509.87,111.73Z"/><path class="cls-3" d="M1466.49,202l-7.21.94c-.54.07-.79.52-1.11.86q-12.91,13.82-25.78,27.68c-.81.87-1.21.78-2,.1q-21.63-17.86-43.3-35.68c-1.12-.92-1.34-.68,0-1.8l39.63-32.39c.3-.24.59-.5,1.05-.9l-33.4-9.46c0-.54.46-.75.75-1.05q32-33,64-66.07c.61-.63,1-.73,1.74-.17q14.3,10.73,28.65,21.41a3.63,3.63,0,0,0,2.4.84c1.75,0,3.51,0,5.26.12a1,1,0,0,0,1.19-.86q3.59-11.07,7.22-22.12,2.26-6.9,4.52-13.79c.15-.44.34-.86.6-1.51l23.9,50.69c1.17-3.43,2.26-6.59,3.34-9.75.49-1.44,1-2.87,1.42-4.33.22-.76.53-.9,1.27-.66,5,1.57,10.16,2.91,15.12,4.69a34.41,34.41,0,0,0,13.5,2c2.07-.1,4.15-.06,6.22,0,1,0,1.25-.26,1.22-1.27-.09-2.83,0-5.66-.07-8.49,0-.82.19-1,1-.94q23,.51,45.93,1c2.35,0,4.7.13,7.06.13.75,0,1,.11,1,1-.21,2.34-.24,4.7-.46,7-.09.92.3,1,1,1.14.88.14.78-.43.84-.92.49-4.4,1-8.81,1.45-13.21.1-.95.36-.89,1.08-.46q24,14.26,48.06,28.47l41.78,24.75c1.23.73,1.24.73.15,1.53-6.8,5-13.59,10-20.42,15-.82.59-.93.86-.11,1.59q16.29,14.54,32.53,29.16l1.24,1.13-8,5.45q-21.82,14.75-43.62,29.51c-.86.58-1.22.54-1.81-.35-4.46-6.64-9-13.23-13.5-19.83-.22-.32-.33-.73-.86-.94l-.84,7.37c0,.32-.06.64-.11,1-.15.93.17,2.22-.51,2.7s-1.75,0-2.66-.07l-32.2-2.79c-4.33-.38-8.67-.77-13-1.11-.7-.05-.86-.22-.77-.93.29-2.1.46-4.21.74-6.3.09-.67-.1-.77-.72-.83a41.46,41.46,0,0,0-12.57,1.16c-.67.14-.67.53-.65,1,.08,2.11.09,4.23.24,6.33.07.91-.18,1.14-1.07,1.14q-15.85,0-31.7,0a29.76,29.76,0,0,1-3.23,0c-.91-.1-1.28.34-1.61,1-1.32,2.77-2.69,5.52-4,8.31-.33.72-.63.79-1.35.51-6.69-2.54-13.4-5-20.09-7.52l-19.86-7.46a20.41,20.41,0,0,1-2.13-.8c-.77-.39-.94-.07-1.09.61-.91,4.18-1.84,8.36-2.77,12.53-.27,1.21-.57,2.41-.81,3.63-.11.57-.35.67-.9.55-5.63-1.21-11.27-2.38-16.9-3.57l-24.76-5.23c-4.58-1-9.15-2-13.74-2.88-1-.2-.7-.71-.52-1.27q2.4-7.23,4.79-14.46C1466.2,203.16,1466.31,202.65,1466.49,202Zm69.69,2.48c-.49,1-.94,1.9-1.4,2.81-.2.39-.34.74.23,1,3,1.15,6.09,2.31,9.14,3.45,1.9.71,3.82,1.36,5.71,2.08,3.23,1.22,6.44,2.48,9.67,3.72.5.19.71-.1.91-.5a20,20,0,0,0,1.88-3.84c.64-2.65,2.4-2.82,4.62-2.8,9.63.08,19.26,0,28.89.07.86,0,1-.28,1-1-.13-2.74-.18-5.49-.3-8.24,0-.72.09-.87.89-.85a97.93,97.93,0,0,0,11.45.06c5.35-.47,10.66-1.44,16-2.19l7.7-1.07c.6-.08,1.19-.11,1.08.78-.22,1.77-.46,3.54-.66,5.32-.22,1.93-.4,3.87-.61,5.8-.06.55,0,.74.67.79,3.17.24,6.32.58,9.49.85,5.22.45,10.44.86,15.66,1.32,1.9.17,1.92.13,2.1-1.71.39-3.95.86-7.89,1.3-11.83.4-3.55.81-7.1,1.21-10.64.21-1.84.41-3.68.63-5.73a10.29,10.29,0,0,1,.86.94q2.61,3.79,5.19,7.6c2.81,4.16,5.59,8.33,8.41,12.49,3.33,4.91,6.7,9.79,10,14.7.9,1.32.88,1.34,2.27.51.34-.21.7-.39,1-.61q8.29-5.65,16.58-11.31,7-4.77,14.07-9.48c.78-.52.62-.81.06-1.32-1.88-1.68-3.72-3.39-5.59-5.07l-20.82-18.62c-2.14-1.92-4.25-3.88-6.4-5.79-.52-.46-.57-.68.06-1.13,3.64-2.64,7.24-5.33,10.86-8q3.94-2.9,7.91-5.77c.84-.61.73-.91-.14-1.42-4-2.3-8-4.66-11.94-7q-9.81-5.82-19.6-11.65-11.66-6.91-23.34-13.78c-2.88-1.7-5.73-3.44-8.61-5.14-.62-.37-1-.47-1.1.58-.15,2.25-.47,4.5-.74,6.74-.09.73-.31,1.33-1.26,1.19-1.14-.16-2.28-.29-3.43-.41L1626,119c-1.58-.16-3.16-.3-4.74-.47-1-.1-1.46-.46-1.31-1.63.24-1.89.2-3.81.35-5.71.06-.77-.23-1-.93-1q-15.63-.3-31.26-.64c-.75,0-.94.19-.93.89,0,2.86,0,5.73.06,8.59,0,.77-.27,1-1,1h-19c-.67,0-1.3,0-1.14,1,.06.36-.12.95-.67.68-1.9-.9-4-1.13-5.95-1.81q-6-2.1-12.23-3.76c-.56-.15-.91-.09-1.06.55-.28,1.16-.73,2.27-1.12,3.4-1.17,3.47-2.33,6.94-3.54,10.39-1.47,4.21-2.76,8.48-4.21,12.69-.38,1.11-.81,2.21-1.23,3.59l-23.85-50.57c-1.2,3.72-2.25,7.1-3.38,10.45-.56,1.66-1.07,3.34-1.61,5-1.6,5-3.32,9.88-4.92,14.84a49.86,49.86,0,0,0-1.81,5.7c0,.23-.15.46-.5.44,0-.51,0-1,.07-1.53.41-4.67.8-9.33,1.24-14,.09-1-.11-1.36-1.22-1.37-4.25,0-8.51-.14-12.76-.22-2.11,0-4.22-.09-6.33-.11-.4,0-.92.1-1.08-.29s.35-.66.6-.95.68-.67,1-1,.58-.9-.11-1.33-1.21-.91-1.82-1.36c-5.91-4.41-11.85-8.79-17.72-13.25-.78-.59-1.15-.5-1.74.11q-6.05,6.3-12.14,12.57-8,8.31-16,16.62-9,9.28-18,18.55c-1.56,1.61-1.51,1.86.71,2.41,7.64,1.92,15.14,4.3,22.74,6.37a75.33,75.33,0,0,1,10.31,3.09c-.13.58-.65.81-1,1.12-6.23,5.09-12.49,10.14-18.73,15.22q-12.22,10-24.43,19.95c-2.17,1.77-2.18,1.76,0,3.6l.36.31,17.84,14.67c2.62,2.15,5.27,4.27,7.87,6.45.58.49.9.39,1.37-.12,1.35-1.47,2.75-2.89,4.11-4.35q7.32-7.83,14.62-15.68l16.06-17.28c.72-.78,1.49-1.52,2.24-2.29a1.17,1.17,0,0,1,.24.95c.11,3.94.24,7.88.34,11.82,0,.79.24,1,1.05.84,2-.34,3.95-.55,5.92-.8l5.62-.71c-.84,2.87-1.8,5.47-2.66,8.11-1.35,4.17-2.63,8.35-4.13,12.47-.3.81-.17,1.24.76,1.43q3.92.79,7.83,1.63c4.51,1,9,2,13.55,2.87,3.87.78,7.7,1.71,11.55,2.56a6.72,6.72,0,0,0,.95.08.58.58,0,0,0,.7-.61,73.17,73.17,0,0,1,1.57-7.35c.68-3.39,1.48-6.77,2.21-10.16,1.06-5,2.29-9.86,3.41-14.8a1.38,1.38,0,0,1,1.38-1.21,39.57,39.57,0,0,0,4.38-.6c1-.22,1.36.14,1.72.92q4.1,8.83,8.23,17.64c.71,1.51.71,1.5,2.37,1C1535.42,204.47,1535.69,204.21,1536.19,204.45Z"/><path class="cls-6" d="M1536.19,204.45c-.49-.24-.77,0-1.05.11-1.65.51-1.66.53-2.37-1q-4.13-8.81-8.23-17.64c-.36-.78-.75-1.14-1.72-.92a39.57,39.57,0,0,1-4.38.6,1.38,1.38,0,0,0-1.38,1.21c-1.12,4.94-2.35,9.85-3.41,14.8-.73,3.39-1.52,6.76-2.21,10.16a73.17,73.17,0,0,0-1.57,7.35.58.58,0,0,1-.7.61,6.72,6.72,0,0,1-.95-.08c-3.85-.85-7.69-1.79-11.55-2.56-4.53-.91-9-1.89-13.55-2.87q-3.91-.84-7.83-1.63c-.93-.19-1.06-.61-.76-1.43,1.5-4.12,2.78-8.3,4.13-12.47.86-2.64,1.82-5.25,2.66-8.11l-5.62.71c-2,.25-4,.47-5.92.8-.81.14-1-.06-1.05-.84-.09-3.94-.23-7.88-.34-11.82a1.17,1.17,0,0,0-.24-.95c-.76.77-1.52,1.51-2.24,2.29l-16.06,17.28q-7.3,7.85-14.62,15.68c-1.36,1.46-2.77,2.88-4.11,4.35-.47.51-.78.61-1.37.12-2.6-2.18-5.25-4.3-7.87-6.45L1404,197.09l-.36-.31c-2.15-1.85-2.14-1.83,0-3.6q12.22-10,24.43-19.95c6.24-5.08,12.49-10.14,18.73-15.22.38-.31.9-.54,1-1.12a75.33,75.33,0,0,0-10.31-3.09c-7.6-2.07-15.1-4.45-22.74-6.37-2.22-.56-2.27-.8-.71-2.41q9-9.29,18-18.55,8-8.3,16-16.62,6.07-6.28,12.14-12.57c.59-.61,1-.7,1.74-.11,5.87,4.46,11.8,8.84,17.72,13.25.61.45,1.18,1,1.82,1.36s.59.85.11,1.33-.71.65-1,1-.77.54-.6.95.68.28,1.08.29c2.11,0,4.22.07,6.33.11,4.25.08,8.51.21,12.76.22,1.11,0,1.31.4,1.22,1.37-.44,4.66-.83,9.33-1.24,14,0,.51,0,1-.07,1.53.35,0,.45-.21.5-.44a49.86,49.86,0,0,1,1.81-5.7c1.6-5,3.32-9.88,4.92-14.84.54-1.67,1-3.34,1.61-5,1.13-3.35,2.18-6.73,3.38-10.45l23.85,50.57c.42-1.38.85-2.48,1.23-3.59,1.45-4.22,2.73-8.49,4.21-12.69,1.21-3.45,2.37-6.93,3.54-10.39.38-1.13.84-2.24,1.12-3.4.15-.64.5-.7,1.06-.55q6.18,1.67,12.23,3.76c2,.68,4.05.91,5.95,1.81.56.26.73-.32.67-.68-.16-1,.47-1,1.14-1h19c.68,0,1-.21,1-1-.06-2.86,0-5.73-.06-8.59,0-.71.17-.91.93-.89q15.63.36,31.26.64c.7,0,1,.24.93,1-.15,1.9-.12,3.82-.35,5.71-.15,1.17.34,1.53,1.31,1.63,1.58.17,3.16.31,4.74.47l11.72,1.22c1.14.12,2.29.25,3.43.41,1,.14,1.18-.47,1.26-1.19.27-2.25.6-4.49.74-6.74.07-1.06.48-1,1.1-.58,2.88,1.7,5.73,3.44,8.61,5.14q11.66,6.9,23.34,13.78,9.81,5.81,19.6,11.65c4,2.36,7.94,4.72,11.94,7,.88.5,1,.81.14,1.42q-4,2.86-7.91,5.77c-3.62,2.67-7.22,5.36-10.86,8-.63.46-.57.67-.06,1.13,2.15,1.91,4.26,3.87,6.4,5.79l20.82,18.62c1.87,1.68,3.71,3.4,5.59,5.07.57.51.73.8-.06,1.32q-7.07,4.69-14.07,9.48-8.3,5.64-16.58,11.31c-.33.22-.69.41-1,.61-1.39.83-1.36.82-2.27-.51-3.34-4.9-6.7-9.79-10-14.7-2.82-4.15-5.6-8.33-8.41-12.49q-2.57-3.81-5.19-7.6a10.29,10.29,0,0,0-.86-.94c-.23,2-.43,3.89-.63,5.73-.4,3.55-.81,7.1-1.21,10.64-.44,3.94-.91,7.88-1.3,11.83-.18,1.84-.2,1.88-2.1,1.71-5.22-.46-10.44-.87-15.66-1.32-3.16-.27-6.32-.61-9.49-.85-.63,0-.73-.24-.67-.79.22-1.93.39-3.87.61-5.8.2-1.77.45-3.54.66-5.32.11-.89-.48-.86-1.08-.78l-7.7,1.07c-5.33.75-10.64,1.71-16,2.19a97.93,97.93,0,0,1-11.45-.06c-.8,0-.93.13-.89.85.12,2.75.17,5.49.3,8.24,0,.76-.1,1-1,1-9.63,0-19.26,0-28.89-.07-2.23,0-4,.15-4.62,2.8a20,20,0,0,1-1.88,3.84c-.2.4-.41.7-.91.5-3.22-1.24-6.44-2.5-9.67-3.72-1.89-.72-3.81-1.38-5.71-2.08-3.05-1.14-6.09-2.3-9.14-3.45-.57-.21-.43-.56-.23-1C1535.25,206.35,1535.7,205.43,1536.19,204.45Zm-44.08-22.17c-.07.27-.11.42-.15.57q-3.87,11.8-7.75,23.59c-.21.63-.36,1,.57,1.24,6,1.24,12.05,2.53,18.07,3.83.56.12.79,0,.91-.58.35-1.64.75-3.28,1.11-4.91q2.82-12.65,5.61-25.3c.17-.78.55-1,1.27-1.09q8-1,16-2.14a1.21,1.21,0,0,1,1.54.83c2.63,5.7,5.34,11.36,8,17.06.33.72.61.9,1.4.6q4.81-1.84,9.69-3.52c.76-.26.85-.51.51-1.23-2.28-4.76-4.52-9.54-6.77-14.31-.18-.38-.32-.77-.51-1.24l18.08-2.41a3.34,3.34,0,0,1-.14.52q-7.25,14.91-14.52,29.8c-.25.52-.47.88.31,1.16,3.2,1.15,6.38,2.33,9.54,3.57.91.36,1.35.24,1.8-.7,3.16-6.62,6.39-13.22,9.6-19.82L1572,176c0,.34,0,.46,0,.57-.29,8.53-.57,17.06-.91,25.58,0,1.14.2,1.45,1.39,1.44,5.06-.07,10.12-.05,15.19,0,1.1,0,1.24-.36,1.2-1.35-.41-10.51-.75-21-1.16-31.54,0-1,.26-1.36,1.25-1.44,1.71-.14,3.41-.37,5.09-.68,1-.18,1.18.11,1.18,1,0,7.57.07,15.15.06,22.72,0,.85.22,1.08,1.06,1.08,3.43,0,6.86.06,10.28.21,1,0,1.19-.29,1.23-1.18.45-8.36,1-16.72,1.41-25.09,0-.68.33-.86.93-.93,1.66-.19,3.32-.43,5-.65s1.6-.21,1.55,1.37c-.25,8.37-.49,16.74-.76,25.11,0,.83.2,1,1,.82,2.42-.51,4.85-.94,7.28-1.39l18-3.39a8.72,8.72,0,0,1,0,1c-.49,4.4-1,8.81-1.52,13.21-.1.77,0,1.08.84,1.15q5.37.42,10.73.92c.56.05.77-.06.82-.66.13-1.51.34-3,.51-4.52q1.4-12.38,2.79-24.75t2.81-25c.25-2.23.52-4.47.8-6.81l15.21,9-.57.45c-4.67,3.43-9.33,6.88-14,10.27-.7.51-.79.79-.27,1.54q15.07,22,30.07,44.11c.39.58.63.83,1.35.34q9.11-6.23,18.28-12.37c.85-.57.95-.82.12-1.55-7.09-6.3-14.14-12.66-21.2-19l-12-10.77,18.89-13.87c-.14-.16-.2-.28-.3-.34Q1673,137.34,1650.47,124c-.84-.5-.83,0-.89.57-.23,2-.44,4-.67,6.07q-1.31,11.6-2.62,23.21-1.27,11.25-2.51,22.49c0,.44-.2.62-.62.7l-14.31,2.68c.15-5.12.32-10.18.44-15.23,0-.67.46-.53.8-.58,2.45-.34,4.89-.69,7.35-1,.61-.07.79-.23.66-.89-.57-3.06-1.09-6.12-1.59-9.19-.1-.64-.3-.88-1-.76-1.53.26-3.09.37-4.62.65-1,.18-1.35.08-1.29-1.08.2-3.7.29-7.41.35-11.12,0-.9.19-1,1-.64,3,1.32,6.11,2.56,9.18,3.83.49.2.89.42,1.15-.4q2.31-7.32,4.74-14.6c.23-.71,0-.79-.6-.85-8.82-.9-17.63-1.8-26.44-2.76-.9-.1-1.09.15-1.1,1-.1,4.58-.24,9.17-.37,13.75s-.25,9.17-.4,13.75c0,.38.24,1-.58,1.08-2.16.25-4.32.57-6.54.87.31-5.3.6-10.48.9-15.65.43-7.29.84-14.57,1.31-21.86.06-1-.18-1.17-1.13-1.17-4.82,0-9.65-.18-14.47-.28-1.66,0-1.65,0-1.64,1.6q.09,19.19.18,38.38c0,.74-.18,1.05-1,1.12-1.43.12-2.85.36-4.27.55-2.63.35-2.62.35-2.71-2.29-.32-9.32-.66-18.64-.94-28,0-.94-.32-1.16-1.22-1.15-3.35.06-6.7.08-10,0-1.06,0-1.31.3-1.34,1.31-.32,10.4-.7,20.8-1,31.2,0,.86-.19,1.29-1.22,1.39-2.58.24-5.14.66-7.7,1l-10.63,1.41a1.43,1.43,0,0,1,0-.34q7.43-16,14.89-32c.37-.79.32-1-.53-1.29-4.29-1.28-8.57-2.62-12.85-3.94-.91-.28-2-1-2.72-.72s-.65,1.67-1.07,2.52a.88.88,0,0,0,0,.11l-7.9,23.28q-2.35,6.93-4.69,13.86a.92.92,0,0,1-.73.65c-1,.31-1.14-.43-1.42-1l-21.33-45.24-1.06-2.24c-.55,1.7-1,3.07-1.42,4.44q-4.38,13.27-8.76,26.54-3.65,11.11-7.26,22.24a1.1,1.1,0,0,1-1,.93q-2.67.28-5.33.73c-.7.12-.82-.14-.77-.73.17-1.87.33-3.74.48-5.61q1.76-20.87,3.54-41.75c.09-1-.21-1.08-1.06-1.09q-8.25-.12-16.5-.37c-1,0-1.32.14-1.28,1.25.29,7.09.46,14.18.72,21.27,0,1-.07,1.24-1.12.94-8.38-2.4-16.78-4.74-25.17-7.11-1.26-.35-1.26-.36-.34-1.31q11.2-11.57,22.41-23.11c.6-.61.62-.89-.08-1.4q-4-2.87-7.86-5.86c-.62-.47-1-.5-1.57.1q-17.29,17.91-34.63,35.77c-.66.68-.62.91.31,1.17,7.4,2.06,14.78,4.17,22.18,6.22,4.61,1.28,9.24,2.48,13.85,3.72V154l-50.12,41c.37.32.65.59,1,.84,5,4.08,9.93,8.13,14.85,12.25.84.7,1.24.63,2-.13q21.93-23.56,43.9-47.08c.27-.29.48-.69.95-.81.25,7.79.52,15.52.72,23.25,0,1,.34,1.1,1.17,1,1.49-.25,3-.43,4.5-.63Zm-25.35-53.77-5.22,5.38c-.45.46-.65.81.22,1,1.51.37,3,.79,4.52,1.2.46.13.75.14.72-.51C1466.88,133.33,1466.83,131,1466.75,128.52Z"/><path class="cls-7" d="M1492.1,182.28l-10.25,1.35c-1.5.2-3,.38-4.5.63-.83.14-1.14,0-1.17-1-.2-7.73-.47-15.45-.72-23.25-.47.13-.67.52-.95.81q-22,23.53-43.9,47.08c-.71.76-1.11.83-2,.13-4.92-4.12-9.9-8.17-14.85-12.25-.3-.25-.59-.52-1-.84L1463,154v-.41c-4.62-1.24-9.25-2.44-13.85-3.72-7.4-2.05-14.78-4.17-22.18-6.22-.93-.26-1-.49-.31-1.17q17.34-17.86,34.63-35.77c.58-.6.95-.57,1.57-.1q3.89,3,7.86,5.86c.7.51.68.79.08,1.4q-11.23,11.53-22.41,23.11c-.92.95-.92,1,.34,1.31,8.39,2.36,16.79,4.71,25.17,7.11,1.06.3,1.16,0,1.12-.94-.26-7.09-.44-14.18-.72-21.27,0-1.11.28-1.28,1.28-1.25q8.25.25,16.5.37c.85,0,1.15.09,1.06,1.09q-1.82,20.87-3.54,41.75c-.16,1.87-.31,3.74-.48,5.61-.05.59.06.84.77.73q2.65-.44,5.33-.73a1.1,1.1,0,0,0,1-.93q3.61-11.12,7.26-22.24,4.36-13.28,8.76-26.54c.45-1.36.88-2.73,1.42-4.44l1.06,2.24,21.33,45.24c.28.59.43,1.33,1.42,1a.92.92,0,0,0,.73-.65q2.33-6.93,4.69-13.86l7.9-23.28a.88.88,0,0,1,0-.11c.42-.84.22-2.25,1.07-2.52s1.8.44,2.72.72c4.28,1.32,8.55,2.66,12.85,3.94.85.25.9.5.53,1.29q-7.48,16-14.89,32a1.43,1.43,0,0,0,0,.34l10.63-1.41c2.57-.34,5.13-.76,7.7-1,1-.1,1.19-.53,1.22-1.39.34-10.4.71-20.8,1-31.2,0-1,.29-1.33,1.34-1.31,3.35.07,6.7.05,10,0,.9,0,1.19.21,1.22,1.15.29,9.32.62,18.64.94,28,.09,2.64.08,2.64,2.71,2.29,1.42-.19,2.84-.43,4.27-.55.78-.07,1-.38,1-1.12q-.11-19.19-.18-38.38c0-1.62,0-1.63,1.64-1.6,4.82.1,9.65.24,14.47.28.94,0,1.19.22,1.13,1.17-.47,7.28-.88,14.57-1.31,21.86-.3,5.17-.6,10.35-.9,15.65,2.23-.3,4.38-.62,6.54-.87.81-.09.56-.69.58-1.08.16-4.58.28-9.17.4-13.75s.26-9.17.37-13.75c0-.8.2-1.05,1.1-1,8.81,1,17.62,1.86,26.44,2.76.6.06.83.15.6.85q-2.42,7.28-4.74,14.6c-.26.82-.66.61-1.15.4-3.06-1.27-6.14-2.51-9.18-3.83-.81-.35-1-.26-1,.64-.07,3.71-.16,7.42-.35,11.12-.06,1.16.32,1.26,1.29,1.08,1.53-.28,3.08-.39,4.62-.65.7-.12.89.12,1,.76.5,3.07,1,6.13,1.59,9.19.12.66,0,.81-.66.89-2.45.3-4.9.64-7.35,1-.34,0-.79-.09-.8.58-.12,5.05-.29,10.11-.44,15.23l14.31-2.68c.41-.08.57-.25.62-.7q1.24-11.25,2.51-22.49,1.31-11.6,2.62-23.21c.23-2,.44-4,.67-6.07.06-.53.05-1.07.89-.57q22.57,13.4,45.15,26.76c.1.06.16.18.3.34L1677,164.93l12,10.77c7.06,6.34,14.11,12.69,21.2,19,.82.73.73,1-.12,1.55q-9.18,6.13-18.28,12.37c-.72.49-1,.24-1.35-.34q-15-22.07-30.07-44.11c-.52-.76-.43-1,.27-1.54,4.7-3.4,9.36-6.84,14-10.27l.57-.45-15.21-9c-.27,2.35-.54,4.58-.8,6.81q-1.41,12.5-2.81,25t-2.79,24.75c-.17,1.51-.39,3-.51,4.52-.05.6-.26.71-.82.66q-5.36-.49-10.73-.92c-.81-.06-.93-.38-.84-1.15.55-4.4,1-8.8,1.52-13.21a8.72,8.72,0,0,0,0-1l-18,3.39c-2.43.46-4.86.89-7.28,1.39-.8.17-1,0-1-.82.27-8.37.51-16.74.76-25.11,0-1.58.06-1.58-1.55-1.37s-3.32.46-5,.65c-.6.07-.89.25-.93.93-.46,8.36-1,16.72-1.41,25.09,0,.89-.23,1.22-1.23,1.18-3.42-.15-6.85-.19-10.28-.21-.84,0-1.06-.23-1.06-1.08,0-7.57-.06-15.15-.06-22.72,0-.93-.2-1.22-1.18-1-1.68.31-3.39.54-5.09.68-1,.08-1.29.41-1.25,1.44.41,10.51.75,21,1.16,31.54,0,1-.1,1.36-1.2,1.35-5.06-.07-10.12-.08-15.19,0-1.19,0-1.43-.29-1.39-1.44.34-8.53.62-17.05.91-25.58,0-.12,0-.23,0-.57l-5.72,11.75c-3.21,6.6-6.43,13.2-9.6,19.82-.45.94-.89,1.05-1.8.7-3.16-1.23-6.35-2.41-9.54-3.57-.79-.28-.57-.64-.31-1.16q7.27-14.9,14.52-29.8a3.34,3.34,0,0,0,.14-.52l-18.08,2.41c.19.47.34.87.51,1.24,2.25,4.78,4.49,9.56,6.77,14.31.34.72.25,1-.51,1.23q-4.87,1.69-9.69,3.52c-.79.3-1.06.12-1.4-.6-2.65-5.69-5.36-11.36-8-17.06a1.21,1.21,0,0,0-1.54-.83q-8,1.11-16,2.14c-.72.09-1.1.31-1.27,1.09q-2.77,12.66-5.61,25.3c-.37,1.64-.76,3.27-1.11,4.91-.12.56-.35.7-.91.58-6-1.3-12-2.59-18.07-3.83-.93-.19-.77-.6-.57-1.24q3.89-11.79,7.75-23.59C1492,182.71,1492,182.55,1492.1,182.28ZM1523.89,167l-7-14.88-3.62,16.3Z"/><path class="cls-8" d="M1466.75,128.52c.08,2.52.13,4.81.23,7.1,0,.65-.26.63-.72.51-1.5-.41-3-.83-4.52-1.2-.87-.21-.67-.56-.22-1Z"/><path class="cls-6" d="M1523.89,167l-10.65,1.42,3.62-16.3Z"/></g></g></svg>